<svg width="29" height="29" viewBox="0 0 29 29" fill="none" xmlns="http://www.w3.org/2000/svg">
<circle cx="14.4993" cy="14.5369" r="13.7616" transform="rotate(-0.769985 14.4993 14.5369)" fill="white"/>
<path d="M10.9043 20.8685L10.7732 11.1166C10.7627 10.3388 11.3825 9.70218 12.1602 9.69173L18.3225 9.60891C19.1003 9.59845 19.7369 10.2182 19.7473 10.996L19.7835 13.6882C19.794 14.466 19.1742 15.1026 18.3965 15.1131L9.93085 15.2268C9.15309 15.2373 8.53334 15.8739 8.5438 16.6517C8.55425 17.4294 9.19088 18.0492 9.96864 18.0387L14.1865 17.982" stroke="#A6A6A6" stroke-width="2" stroke-miterlimit="10"/>
<path d="M14.5886 25.636C20.5857 25.5554 25.382 20.6284 25.3014 14.6313C25.2208 8.6342 20.2938 3.83792 14.2967 3.91852C8.29961 3.99912 3.50333 8.92607 3.58393 14.9232C3.66452 20.9203 8.59148 25.7166 14.5886 25.636Z" stroke="#A6A6A6" stroke-width="2" stroke-miterlimit="10"/>
</svg>
