<svg width="100" height="100" viewBox="0 0 100 100" fill="none" xmlns="http://www.w3.org/2000/svg">
<rect width="100" height="100" fill="white"/>
<path d="M13.362 20.0744L13.0212 68.3361C13.0095 69.9989 14.3524 71.354 16.0152 71.3573L68.663 71.4609C70.3248 71.4642 71.6727 70.1159 71.6689 68.4541L71.5587 20.1072C71.5549 18.4534 70.2135 17.1146 68.5597 17.114L16.363 17.0956C14.714 17.095 13.3736 18.4255 13.362 20.0744Z" fill="white"/>
<path d="M21.8766 62.9155L21.9998 29.7563C22.0039 28.6531 22.9005 27.7616 24.0037 27.7638L32.3032 27.7801C32.5241 27.7806 32.7436 27.7444 32.9527 27.673L35.746 26.7203C36.0578 26.614 36.385 26.5597 36.7145 26.5597L46.4121 26.5597C47.3076 26.5597 48.1911 26.7654 48.9944 27.161V27.161C49.7946 27.555 50.6742 27.7607 51.5661 27.7623L59.7384 27.7772C60.8389 27.7792 61.7311 28.67 61.7347 29.7706L61.8342 59.9783C61.8397 61.6413 60.4914 62.9915 58.8283 62.9882L54.1908 62.9791M54.1859 62.5748L31.1523 62.8516C30.0369 62.865 29.1261 61.9633 29.1283 60.8478L29.1536 47.9944L29.0962 43.218C29.0598 40.1897 31.4852 37.7053 34.5135 37.6689V37.6689C37.5418 37.6325 40.0262 40.0579 40.0626 43.0862L40.1869 53.4335C40.2096 55.3192 41.7566 56.8295 43.6423 56.8069V56.8069C45.5281 56.7842 47.0384 55.2372 47.0157 53.3514L46.8628 40.625C46.8422 38.9107 48.2152 37.5043 49.9295 37.4837V37.4837C51.6438 37.4631 53.0502 38.8361 53.0708 40.5504L53.2648 56.6913" stroke="#19191B" stroke-width="2"/>
<path d="M46.886 51.0015L67.485 50.9057C68.6305 50.9086 69.6284 50.2328 70.0792 49.2163L70.7305 47.7158C71.1314 46.7476 72.1791 46.0719 73.3246 46.0748L89.4813 46.2647C91.3739 46.2695 92.7637 48.1145 92.1118 49.8573L91.259 52.2296C90.8577 53.3431 89.81 54.0673 88.6147 54.0643L88.4653 54.0639C87.3198 54.0609 86.2721 54.7367 85.8212 55.8016L75.795 81.265C75.3938 82.3301 74.3461 83.0542 73.2006 83.0513L56.6654 83.009C55.4701 83.0059 54.4261 82.2764 54.0304 81.2093L44.2369 54.6775C43.594 52.8829 44.9436 50.9965 46.886 51.0015Z" fill="white"/>
<path d="M84.6929 51.6554L79.9504 51.6185C79.16 51.6123 78.5502 52.1771 78.3906 52.9526L74.749 72.187C74.5974 73.0143 73.9796 73.5273 73.1891 73.5212L59.1477 73.4117C58.3108 73.4052 57.4794 72.8291 57.1116 71.9459L51.2775 58.7479C50.6441 57.3448 51.3591 55.9523 52.661 55.9624L71.9098 56.1125C73.2582 56.1231 74.4189 57.6338 74.1223 59.0296L71.0236 74.5399C70.872 75.3672 70.2541 75.8802 69.4637 75.8741L62.722 75.8215C61.8851 75.815 60.9992 75.1867 60.6234 74.2517L56.9444 65.1094C56.412 63.7589 57.0885 62.4179 58.3903 62.428L66.0155 62.4875C67.3173 62.4977 68.4621 63.9047 68.2586 65.3012L67.9113 67.5769C67.7677 68.4561 67.1578 69.0209 66.3209 69.0144L61.9039 68.9799" stroke="#A6A6A6" stroke-width="2" stroke-miterlimit="10"/>
<path d="M62.261 80.7104C63.2988 80.7181 63.9988 79.7785 63.8245 78.6117C63.6501 77.4449 62.6675 76.4927 61.6296 76.485C60.5918 76.4772 59.8918 77.4168 60.0662 78.5836C60.2405 79.7505 61.2232 80.7026 62.261 80.7104Z" stroke="#A6A6A6" stroke-width="2" stroke-miterlimit="10"/>
<path d="M72.3699 80.3185C73.4077 80.3263 74.1077 79.3867 73.9334 78.2199C73.759 77.0531 72.7764 76.1009 71.7385 76.0931C70.7007 76.0854 70.0007 77.025 70.1751 78.1918C70.3494 79.3586 71.3321 80.3108 72.3699 80.3185Z" stroke="#A6A6A6" stroke-width="2" stroke-miterlimit="10"/>
</svg>
