<svg width="100" height="100" viewBox="0 0 100 100" fill="none" xmlns="http://www.w3.org/2000/svg">
<rect width="100" height="100" fill="white"/>
<path d="M21.3577 16L21.0152 82.9876C21.0068 84.6444 22.343 85.9944 23.9999 86.0029L75.8866 86.2682C77.5435 86.2767 78.8934 84.9404 78.9019 83.2836L79.0621 51.9508C79.0706 50.2939 77.7343 48.9439 76.0775 48.9355L54.6908 48.8261C53.2608 48.8188 52.0347 47.8031 51.7615 46.3995L45.7528 15.5363C45.4795 14.1326 44.2534 13.117 42.8234 13.1097L24.373 13.0153C22.7162 13.0069 21.3662 14.3431 21.3577 16Z" fill="white"/>
<path d="M28.5805 80.1535L28.7698 43.1428C28.7754 42.0383 29.6754 41.1475 30.78 41.1531L37.6757 41.1884C38.607 41.1931 39.4118 41.8401 39.6165 42.7486L42.4335 55.2469C42.7407 56.6097 43.9478 57.5801 45.3448 57.5873L66.1264 57.6935C67.231 57.6992 68.1218 58.5992 68.1162 59.7037L68.0211 78.2959C68.0153 79.4331 67.0887 80.3504 65.9514 80.3445L62.4913 80.3268C61.3695 80.3211 60.4648 79.4071 60.4706 78.2854L60.4934 73.8147C60.5023 72.0772 59.101 70.6615 57.3635 70.6526V70.6526C55.626 70.6437 54.2103 72.045 54.2014 73.7825L54.1785 78.2532C54.1728 79.3749 53.2588 80.2796 52.137 80.2739L49.4877 80.2604C48.366 80.2546 47.4613 79.3406 47.467 78.2189L47.4942 72.9093C47.5007 71.6351 46.473 70.5969 45.1989 70.5904V70.5904C43.9247 70.5839 42.8865 71.6115 42.88 72.8857L42.8529 78.1953C42.8471 79.317 41.9331 80.2217 40.8114 80.216L33.9363 80.1809C32.8317 80.1752 31.9409 79.2752 31.9465 78.1707L32.0113 65.4892L32.1486 38.6432L32.1582 36.7556C32.1648 35.4814 33.203 34.4538 34.4771 34.4603V34.4603C35.7513 34.4668 36.7895 33.4392 36.796 32.165L36.8067 30.0677C36.8132 28.7935 35.7856 27.7553 34.5114 27.7488L33.6725 27.7445C32.8617 27.7404 32.2077 27.0797 32.2119 26.2689V26.2689C32.216 25.4581 32.8767 24.8041 33.6875 24.8083L34.5264 24.8125C35.8006 24.8191 36.8388 23.7914 36.8453 22.5173L36.8571 20.2102" stroke="#19191B" stroke-width="2"/>
</svg>
