<svg width="100" height="100" viewBox="0 0 100 100" fill="none" xmlns="http://www.w3.org/2000/svg">
<rect width="100" height="100" fill="white"/>
<rect x="22" y="22" width="56.5309" height="56.5309" rx="7" fill="white"/>
<circle cx="40.4208" cy="48.7311" r="1.97356" stroke="#A6A6A6" stroke-width="2"/>
<circle cx="40.4208" cy="58.2465" r="1.97356" stroke="#A6A6A6" stroke-width="2"/>
<circle cx="49.936" cy="48.7311" r="1.97356" stroke="#A6A6A6" stroke-width="2"/>
<circle cx="49.936" cy="58.2465" r="1.97356" stroke="#A6A6A6" stroke-width="2"/>
<path d="M60.0462 33.8632H61.3722C65.2382 33.8632 68.3722 36.9972 68.3722 40.8632V63.1406C68.3722 67.0066 65.2382 70.1406 61.3722 70.1406H39.0947C35.2287 70.1406 32.0947 67.0066 32.0947 63.1406V40.4861C32.0947 36.8284 35.0599 33.8632 38.7177 33.8632V33.8632C40.8078 33.8632 42.5022 32.1688 42.5022 30.0786V29.4028" stroke="#A6A6A6" stroke-width="2"/>
<circle cx="59.4511" cy="48.7311" r="1.97356" stroke="#19191B" stroke-width="2"/>
<circle cx="49.579" cy="48.7311" r="1.97356" stroke="#19191B" stroke-width="2"/>
<circle cx="39.9052" cy="48.7311" r="1.97356" stroke="#A6A6A6" stroke-width="2"/>
<circle cx="59.4511" cy="58.2465" r="1.97356" stroke="#A6A6A6" stroke-width="2"/>
<circle cx="49.579" cy="58.2465" r="1.97356" stroke="#19191B" stroke-width="2"/>
<circle cx="39.9052" cy="58.2465" r="1.97356" stroke="#19191B" stroke-width="2"/>
<path d="M45.4756 40.7024H52.991C54.0956 40.7024 54.991 39.8069 54.991 38.7024V36.4579C54.991 35.3533 55.8864 34.4579 56.991 34.4579H58.046C59.1506 34.4579 60.046 33.5625 60.046 32.4579V29.4028" stroke="#A6A6A6" stroke-width="2"/>
</svg>
