<svg width="100" height="100" viewBox="0 0 100 100" fill="none" xmlns="http://www.w3.org/2000/svg">
<g clip-path="url(#clip0)">
<rect width="100" height="100" fill="white"/>
<path d="M17.7296 15.4442L17.2906 72.5618C17.2736 74.7712 18.9788 76.5029 21.1882 76.5199L62.9217 76.8406C65.0493 76.857 66.8634 75.0705 66.8798 72.943L67.227 27.7726C67.2364 26.5451 66.673 25.3133 65.6967 24.5693L49.9128 12.5818C49.2619 12.0858 48.4462 11.7522 47.6278 11.7459L21.6876 11.5465C19.4782 11.5296 17.7459 13.3166 17.7296 15.4442Z" fill="white"/>
<path d="M46.1002 18.854L25.3971 18.6949C23.8424 18.6829 22.6055 19.9009 22.676 21.3745L22.6417 68.4295C22.6303 69.9024 23.8484 71.1393 25.3213 71.1506L59.1991 71.411C60.672 71.4224 61.9089 70.2043 61.9202 68.7314L62.1976 32.6442C62.2096 31.0894 60.9915 29.8525 59.4361 29.9224L51.5798 29.9439C50.1068 29.9325 48.8064 28.7768 48.8183 27.2221L48.7597 24.1937C48.7767 21.9843 51.1599 20.6932 52.9513 21.8527L59.0591 25.7459C59.8736 26.2432 60.3576 27.1471 60.3507 28.0472L60.3653 36.8037C60.3533 38.3585 59.1164 39.5765 57.5616 39.5645L30.8862 39.1958C29.3314 39.1839 28.0945 40.4019 28.0832 41.8749L28.0518 45.9664C28.0404 47.4393 29.2585 48.6762 30.7314 48.6875L53.8082 48.7831C55.2812 48.7944 56.4992 50.0313 56.4879 51.5042L56.4696 53.8773C56.4583 55.3503 55.2214 56.5683 53.7485 56.557L30.6717 56.4614C29.1169 56.4495 27.88 57.6675 27.9499 59.2229L27.9335 61.3505C27.9222 62.8234 29.1402 64.0603 30.695 64.0723L56.7995 64.1911" stroke="#19191B" stroke-width="2" stroke-miterlimit="10"/>
<path d="M50.7611 53.0682L50.5037 86.5589C50.4937 87.8543 51.4936 88.8697 52.7891 88.8797L77.2593 89.0677C78.5068 89.0773 79.5705 88.0299 79.5801 86.7823L79.7837 60.2969C79.7892 59.5772 79.4589 58.8549 78.8864 58.4186L69.6316 51.3899C69.25 51.099 68.7716 50.9034 68.2918 50.8997L53.0819 50.7828C51.7864 50.7729 50.7707 51.8207 50.7611 53.0682Z" fill="white"/>
<path d="M67.3962 55.0674L55.257 54.9741C54.3454 54.9671 53.6201 55.6813 53.6615 56.5453L53.6414 84.1358C53.6347 84.9994 54.3489 85.7247 55.2126 85.7313L75.0766 85.884C75.9403 85.8906 76.6655 85.1764 76.6722 84.3128L76.8348 63.1532C76.8418 62.2416 76.1276 61.5163 75.2156 61.5573L70.6091 61.5699C69.7454 61.5633 68.9829 60.8856 68.9899 59.974L68.9556 58.1983C68.9655 56.9028 70.3629 56.1458 71.4133 56.8257L74.9945 59.1085C75.4721 59.4 75.756 59.93 75.7519 60.4578L75.7604 65.5921C75.7534 66.5038 75.0282 67.218 74.1165 67.211L58.4755 66.9948C57.5639 66.9878 56.8386 67.7019 56.832 68.5656L56.8135 70.9646C56.8069 71.8283 57.5211 72.5535 58.3847 72.5602L71.9157 72.6162C72.7794 72.6228 73.4936 73.3481 73.4869 74.2117L73.4762 75.6032C73.4696 76.4668 72.7443 77.181 71.8807 77.1744L58.3497 77.1184C57.4381 77.1114 56.7128 77.8255 56.7538 78.7375L56.7442 79.985C56.7376 80.8487 57.4518 81.5739 58.3634 81.5809L73.6697 81.6506" stroke="#A6A6A6" stroke-width="2" stroke-miterlimit="10"/>
</g>
<defs>
<clipPath id="clip0">
<rect width="100" height="100" fill="white"/>
</clipPath>
</defs>
</svg>
