<svg width="160" height="53" viewBox="0 0 160 53" fill="none" xmlns="http://www.w3.org/2000/svg">
<path d="M26.4998 52.75C40.8592 52.75 52.4998 41.1094 52.4998 26.75C52.4998 12.3906 40.8592 0.75 26.4998 0.75C12.1404 0.75 0.499756 12.3906 0.499756 26.75C0.499756 41.1094 12.1404 52.75 26.4998 52.75Z" fill="#19191B"/>
<path d="M41.1583 46.6082C40.979 45.9807 40.7548 45.3979 40.5755 44.7703C39.6341 41.9462 38.3341 38.9427 36.3169 37.1944C41.8755 34.9531 44.4307 29.3944 44.4307 24.2841C44.4307 20.16 42.7721 16.3496 39.7238 13.5255C37.7065 11.6427 35.1962 10.2979 32.2824 9.53584C33.2686 8.32549 34.4341 7.38411 35.779 6.75653C38.1548 5.68066 40.8445 5.77032 43.0859 6.93584C41.5617 5.68067 39.9031 4.6048 38.11 3.70825C36.9893 3.84273 35.8686 4.1117 34.7928 4.6048C32.5962 5.59101 30.9376 7.15997 29.6824 8.9979C28.5169 8.81859 27.3514 8.72894 26.0962 8.72894C20.5824 8.72894 15.8755 10.3876 12.5134 13.4807C9.46517 16.3048 7.76172 20.16 7.76172 24.2393C7.76172 31.0531 12.3341 36.2979 19.641 37.822L20.1341 35.491C13.9479 34.191 10.1376 29.8876 10.1376 24.2393C10.1376 17.9186 15.1134 11.1048 26.0514 11.1048C26.8583 11.1048 27.6203 11.1496 28.3824 11.1945C25.8272 16.6186 25.7824 23.4324 25.9617 27.0186L26.0514 28.1841C26.5893 38.7634 24.1686 46.1151 19.3272 48.4462C16.6824 49.7462 13.4548 49.3427 10.6755 47.5048C12.8272 49.1634 15.2928 50.5082 17.8928 51.4048C18.7445 51.2255 19.5514 50.9565 20.3583 50.5979C23.7203 48.9841 29.2341 43.8738 28.4272 28.0496L28.3376 26.8841C28.0238 20.4738 28.8755 15.2289 30.8479 11.5979C38.4686 13.2565 41.9652 18.9048 41.9652 24.2393C41.9652 31.6358 36.8996 35.3117 31.9238 35.7151V35.76C31.879 35.76 31.7893 35.76 31.7445 35.76L32.0134 38.1358C34.5238 37.822 36.4065 40.0186 38.2445 45.4875C38.4238 46.0703 38.6479 46.6979 38.8272 47.2807C39.0514 47.9979 39.2755 48.6703 39.4997 49.3875C40.2169 48.9841 40.8893 48.5358 41.5617 48.0427C41.4721 47.6393 41.2928 47.1462 41.1583 46.6082Z" fill="white"/>
<path d="M113.037 31.8812C112.388 33.8647 111.778 35.4285 111.244 36.5346C110.71 37.6408 110.062 38.7851 109.261 39.8912C107.277 42.7519 106.019 43.324 105.332 43.324C105.103 43.324 104.951 43.2859 104.836 43.1715C104.722 43.057 104.684 42.9045 104.684 42.6756C104.684 42.3705 104.76 41.8365 104.874 41.0355L105.828 35.8862C106.019 34.8182 106.133 34.0554 106.133 33.4832C106.133 32.6441 105.942 31.9194 105.523 31.3472C105.103 30.737 104.531 30.4318 103.921 30.4318C103.463 30.4318 102.929 30.6607 102.433 31.0802C101.975 31.4617 101.251 32.2245 100.297 33.3307L99.7632 33.9028L100.755 34.7419L101.022 34.4749C102.433 32.9492 103.043 32.7967 103.196 32.7967C103.31 32.7967 103.425 32.8348 103.577 33.0637C103.73 33.3307 103.806 33.6739 103.806 34.1316C103.806 34.6275 103.692 35.3522 103.463 36.2676L102.471 40.1963L102.242 41.2262C102.052 41.9509 101.937 42.4849 101.937 42.9045C101.937 43.6673 102.166 44.2776 102.624 44.7735C103.082 45.2312 103.692 45.4982 104.378 45.4982C105.713 45.4982 107.125 44.6972 108.574 43.1715C109.49 42.1798 110.405 40.8829 111.32 39.2809L109.718 45.994L112.961 44.6209L115.745 30.3174L113.266 31.0802L113.037 31.8812Z" fill="#19191B"/>
<path d="M156.595 31.0419L156.29 31.881C155.642 33.8645 155.032 35.4283 154.498 36.5345C153.964 37.6406 153.315 38.7849 152.514 39.891C150.531 42.7517 149.272 43.3238 148.585 43.3238C148.357 43.3238 148.204 43.2857 148.09 43.1713C147.975 43.0568 147.937 42.9043 147.937 42.6754C147.937 42.3703 148.013 41.8363 148.128 41.0353L149.081 35.886C149.272 34.818 149.386 34.0552 149.386 33.483C149.386 32.6439 149.196 31.9192 148.776 31.347C148.357 30.7368 147.784 30.4316 147.174 30.4316C146.716 30.4316 146.182 30.6605 145.687 31.08C145.229 31.4615 144.504 32.2243 143.551 33.3305L143.017 33.9026L144.008 34.7417L144.275 34.4747C145.687 32.949 146.297 32.7965 146.449 32.7965C146.564 32.7965 146.678 32.8346 146.831 33.0635C146.983 33.3305 147.06 33.6737 147.06 34.1315C147.06 34.6273 146.945 35.352 146.716 36.2675L145.763 40.1961L145.534 41.226C145.343 41.9507 145.229 42.4847 145.229 42.9043C145.229 43.6671 145.458 44.2774 145.915 44.7733C146.373 45.231 146.983 45.498 147.67 45.498C149.005 45.498 150.416 44.697 151.866 43.1713C152.781 42.1796 153.697 40.8827 154.612 39.2807L153.01 45.9557L156.252 44.5826L159.037 30.2791L156.595 31.0419Z" fill="#19191B"/>
<path d="M126.92 40.997C126.158 41.9887 125.433 42.6752 124.746 43.1329C124.098 43.5525 123.449 43.7814 122.763 43.7814C121.924 43.7814 121.237 43.4762 120.703 42.8659C120.169 42.2175 119.902 41.4165 119.902 40.4248C119.902 40.3867 119.902 40.3104 119.902 40.2722C122.153 39.395 123.983 38.3651 125.318 37.1445C126.73 35.8477 127.454 34.5127 127.454 33.1777C127.454 32.453 127.187 31.8809 126.692 31.4231C126.196 30.9654 125.547 30.7366 124.823 30.7366C123.602 30.7366 122.381 31.2706 121.161 32.2623C119.978 33.254 118.987 34.5508 118.224 36.0384C117.423 37.5641 117.042 39.0898 117.042 40.5774C117.042 42.1031 117.461 43.3237 118.3 44.2772C119.139 45.2308 120.284 45.6885 121.695 45.6885C122.839 45.6885 123.945 45.3834 124.937 44.7731C125.929 44.1628 126.92 43.1711 127.95 41.8361L128.179 41.531L127.149 40.6918L126.92 40.997ZM124.67 34.589C124.289 35.2756 123.831 35.9621 123.221 36.5724C122.458 37.3734 121.352 38.0981 119.978 38.7847C120.245 37.2208 120.818 35.7333 121.733 34.322C122.725 32.7963 123.678 32.0334 124.556 32.0334C124.975 32.0334 125.204 32.1479 125.204 32.7963C125.204 33.2921 125.051 33.9024 124.67 34.589Z" fill="#19191B"/>
<path d="M141.338 41.9516C140.27 43.0577 139.659 43.2866 139.316 43.2866C139.164 43.2866 138.973 43.2103 138.782 43.0577C138.553 42.867 138.286 42.5237 137.981 42.066C137.676 41.5702 137.333 40.9217 136.913 40.1208C136.227 38.7858 135.54 37.2601 134.93 35.6199C136.455 33.9416 138.057 33.0644 139.774 33.0644C140.003 33.0644 140.308 33.1025 140.766 33.2169L141.147 33.2932L141.757 30.5088L141.261 30.5469C140.232 30.5851 139.278 30.7758 138.477 31.1191C137.638 31.4242 136.837 31.9201 135.998 32.5685C135.387 33.0644 134.701 33.7128 134.053 34.4756C133.404 35.2385 132.794 36.0395 132.298 36.8405L138.363 10.4839L134.892 12.124L128.293 45.804L130.696 45.0412L130.734 44.8123C131.116 42.5619 131.917 40.3115 133.175 38.0992C133.786 39.5486 134.51 41.0743 135.387 42.6382C135.998 43.7443 136.494 44.5072 136.951 44.9649C137.447 45.4607 138.019 45.7277 138.63 45.7277C139.164 45.7277 140.193 45.4226 142.444 42.6763L142.635 42.4093L141.834 41.4939L141.338 41.9516Z" fill="#19191B"/>
<path d="M94.8675 41.3925C94.7149 40.8585 94.5242 40.3627 94.3716 39.8287C93.5706 37.4257 92.4645 34.8701 90.7481 33.3826C95.4777 31.4755 97.6519 26.7458 97.6519 22.3975C97.6519 18.8884 96.2406 15.6462 93.6469 13.2433C91.9305 11.6413 89.7945 10.497 87.3152 9.84856C88.1544 8.81871 89.1461 8.01771 90.2903 7.48371C92.3119 6.56829 94.6005 6.64458 96.5076 7.63628C96.4398 5.87325 94.2552 4.71634 92.2738 4.89001C91.3202 5.00444 90.3666 5.2333 89.4512 5.65287C87.5822 6.492 86.1709 7.827 85.1029 9.39085C84.1112 9.23828 83.1195 9.16199 82.0515 9.16199C77.36 9.16199 73.355 10.5733 70.4943 13.2051C67.9006 15.6081 66.4512 18.8884 66.4512 22.3594C66.4512 28.157 70.3417 32.6197 76.559 33.9166L76.9785 31.9332C71.7149 30.827 68.6465 27.1653 68.6465 22.3594C68.6465 16.9812 72.7066 11.1836 82.0134 11.1836C82.7 11.1836 83.3484 11.2217 83.9968 11.2598C81.8227 15.8751 81.6108 21.6728 81.7634 24.7242L81.8397 25.7159C82.2974 34.7176 80.4114 40.973 76.292 42.9564C74.0416 44.0625 71.2953 43.7192 68.9304 42.1554C69.4009 45.2026 72.8422 45.9431 75.0714 45.4738C75.7961 45.3212 76.4827 45.0924 77.1693 44.7872C80.03 43.4141 84.8952 39.0658 84.2087 25.6015L84.1324 24.6098C83.8654 19.1554 84.4164 14.6927 86.0946 11.6031C92.5789 13.0144 95.3803 17.8204 95.3803 22.3594C95.3803 28.6529 91.2439 31.7806 87.0101 32.1239V32.162C86.9719 32.162 86.8956 32.162 86.8575 32.162L86.9126 34.1836C89.0486 33.9166 90.6506 35.7856 92.2145 40.439C92.367 40.9348 92.5577 41.4688 92.7103 41.9647C92.901 42.575 93.0461 43.1633 93.2825 43.7574C93.6472 44.674 94.5158 45.6942 95.9482 45.6942C98.2536 45.6942 99.8811 42.2529 99.8811 42.2529L98.8979 41.2696C98.8979 41.2696 97.7298 42.5024 97.2955 42.763C96.8612 43.0236 96.2137 43.0786 95.7319 42.763C95.2502 42.4474 94.9819 41.8503 94.8675 41.3925Z" fill="#19191B" stroke="#19191B" stroke-width="0.5"/>
</svg>
