<svg width="121" height="120" viewBox="0 0 121 120" fill="none" xmlns="http://www.w3.org/2000/svg">
<g filter="url(#filter0_b)">
<circle cx="60.4998" cy="60" r="60" fill="#19191B"/>
</g>
<path d="M54.3003 78.5465C54.6597 78.4839 55.0191 78.4214 55.3786 78.3432C55.7224 78.2651 55.8787 78.0775 55.8943 77.7336C55.9255 77.0926 55.9412 76.4517 55.9412 75.8108C55.9412 75.3574 55.8005 75.2011 55.3629 75.0917C54.9566 74.9822 54.5347 74.9041 54.1127 74.8103C53.7846 74.7321 53.5345 74.5758 53.4095 74.2475C53.2376 73.7785 53.0657 73.3252 52.8938 72.8562C52.8313 72.6686 52.8625 72.4967 52.9563 72.3403C53.0188 72.2309 53.0813 72.1215 53.1594 72.012C53.3939 71.6681 53.6439 71.3086 53.8939 70.9647C54.0346 70.7614 54.019 70.5582 53.8939 70.355C53.8314 70.2768 53.7846 70.183 53.722 70.1205C53.2845 69.6515 52.8469 69.1982 52.4093 68.7448C52.1905 68.526 51.9405 68.5103 51.6748 68.6354C51.5029 68.7292 51.331 68.823 51.1747 68.9324C50.9091 69.1044 50.6434 69.292 50.3777 69.4639C50.1433 69.6203 49.8776 69.6359 49.6276 69.5265C49.1744 69.3232 48.7368 69.12 48.2836 68.9168C48.1117 68.8386 47.9867 68.6979 47.9398 68.5103C47.8929 68.3071 47.8461 68.0883 47.7992 67.8694C47.7367 67.5724 47.6898 67.2597 47.6273 66.9471C47.5335 66.5094 47.346 66.353 46.8928 66.3374C46.2833 66.3218 45.6582 66.3062 45.0331 66.3062C44.6424 66.3062 44.4392 66.4781 44.3455 66.8533C44.2361 67.3223 44.1267 67.7912 44.0173 68.2602C43.9548 68.5416 43.7829 68.7448 43.486 68.8543C43.0328 69.0106 42.5796 69.1825 42.142 69.3545C41.9076 69.4483 41.7044 69.417 41.5012 69.292C41.345 69.2138 41.2043 69.1044 41.0637 69.0106C40.7667 68.8074 40.4698 68.5729 40.1573 68.3853C39.8916 68.2133 39.6103 68.2602 39.3759 68.4634C39.204 68.6198 39.0321 68.7761 38.8602 68.9324C38.532 69.2607 38.2038 69.589 37.8756 69.9173C37.8288 69.9798 37.7975 70.0423 37.8444 70.058C37.7975 70.3237 37.9069 70.5426 38.0319 70.7458C38.2351 71.0741 38.4382 71.418 38.657 71.7463C38.8758 72.0589 38.9071 72.3716 38.7352 72.7155C38.5476 73.122 38.3601 73.544 38.1726 73.9505C38.0788 74.1381 37.9381 74.2475 37.735 74.2944C37.2036 74.4038 36.6879 74.5133 36.1566 74.6071C35.8753 74.6696 35.7034 74.8259 35.6721 75.0917C35.6253 75.4512 35.594 75.8264 35.5784 76.1859C35.5628 76.5611 35.5784 76.9363 35.594 77.3115C35.594 77.5616 35.719 77.7336 35.9378 77.7961C36.3285 77.9212 36.7348 78.015 37.1255 78.1088C37.2818 78.1556 37.4381 78.1869 37.5943 78.2338M52.8156 81.1884C53.0188 81.4854 53.222 81.798 53.4095 82.0951C53.5033 82.2514 53.5814 82.4233 53.6595 82.6109C53.722 82.7829 53.7064 82.9705 53.5658 83.1112C53.0813 83.5645 52.6125 84.0335 52.128 84.4868C52.0655 84.5494 51.9717 84.5963 51.8936 84.6432C51.6904 84.7682 51.4873 84.7839 51.2841 84.6432C50.9403 84.393 50.5809 84.1586 50.2371 83.9084C50.1277 83.8303 50.0183 83.7677 49.9089 83.7052C49.7214 83.5958 49.5182 83.5645 49.2994 83.6427C48.8775 83.8146 48.4399 83.9866 48.018 84.1429C47.7523 84.2524 47.596 84.4399 47.5335 84.7213C47.4397 85.1278 47.346 85.5499 47.2522 85.9563C47.2366 86.0345 47.2053 86.1283 47.1741 86.2064C47.0647 86.5347 46.8928 86.6754 46.549 86.6754C45.877 86.6598 45.205 86.6441 44.5174 86.5972C44.1579 86.5816 44.0017 86.4253 43.9392 86.0814C43.861 85.6749 43.7829 85.2528 43.7204 84.8308C43.6735 84.393 43.4547 84.1117 43.0484 83.9553C42.6421 83.7834 42.2357 83.6114 41.8294 83.4395C41.6419 83.3613 41.47 83.3613 41.2981 83.4707C40.9543 83.6896 40.5948 83.9084 40.251 84.1273C40.1573 84.1742 40.0791 84.2367 39.9854 84.2836C39.7978 84.393 39.5947 84.4556 39.3759 84.4243C39.329 84.393 39.2821 84.3774 39.2352 84.3462C39.2196 84.3305 39.204 84.2993 39.1884 84.2836C38.7039 83.799 38.2194 83.2988 37.735 82.8298C37.5631 82.6578 37.5162 82.4546 37.5631 82.2358C37.5943 82.0951 37.6725 81.9387 37.7662 81.8137C37.9694 81.501 38.1882 81.204 38.4226 80.907M46.8303 74.1537C45.5175 73.5128 43.9704 74.0755 43.3297 75.3887C42.7983 76.4673 43.1578 78.1713 44.5799 78.8435C45.8613 79.4688 47.4397 78.9216 48.0492 77.6398" stroke="#929292" stroke-width="2" stroke-miterlimit="10"/>
<path d="M82.3788 71.2029C79.9272 68.3683 76.1317 67.4915 72.854 68.5804C72.8223 68.5447 72.7906 68.509 72.759 68.4733L54.9393 48.3853C54.8126 48.2424 54.6683 48.1152 54.5398 48.0058C56.0963 44.8702 55.6643 40.946 53.1616 38.1247C50.7223 35.3749 46.9955 34.4692 43.7705 35.5113L49.2035 41.6359L43.9612 46.2862L38.5441 40.1795C37.1231 43.2906 37.5955 47.0832 40.019 49.8152C42.5216 52.6365 46.3681 53.4999 49.6652 52.3619C49.7585 52.5025 49.8518 52.6431 49.9943 52.8038L59.6933 63.626M61.8374 66.3061L67.8298 72.9096C67.8457 72.9275 67.8615 72.9453 67.8773 72.9632C66.3033 76.1144 66.7177 80.0543 69.2203 82.8755C71.6597 85.6253 75.3865 86.531 78.6115 85.489L73.1785 79.3644L78.4207 74.714L83.8538 80.8386C84.73 78.9201 84.8863 76.7424 84.309 74.714" stroke="white" stroke-width="2" stroke-miterlimit="10" stroke-linecap="round" stroke-linejoin="round"/>
<path d="M65.5896 35.2162H78.9904" stroke="#929292" stroke-width="2" stroke-linecap="round"/>
<path d="M82.7427 35.2162H84.8868" stroke="#929292" stroke-width="2" stroke-linecap="round"/>
<path d="M65.5896 45.9369H78.9904" stroke="#929292" stroke-width="2" stroke-linecap="round"/>
<path d="M82.7427 45.9369H84.8868" stroke="#929292" stroke-width="2" stroke-linecap="round"/>
<path d="M65.5896 40.5766H68.8058" stroke="#929292" stroke-width="2" stroke-linecap="round"/>
<path d="M73.094 40.5766L84.8867 40.5766" stroke="#929292" stroke-width="2" stroke-linecap="round"/>
<path d="M65.5896 51.2972H74.1661" stroke="#929292" stroke-width="2" stroke-linecap="round"/>
<path d="M78.4543 51.2972L84.8867 51.2972" stroke="#929292" stroke-width="2" stroke-linecap="round"/>
<defs>
<filter id="filter0_b" x="-3.50024" y="-4" width="128" height="128" filterUnits="userSpaceOnUse" color-interpolation-filters="sRGB">
<feFlood flood-opacity="0" result="BackgroundImageFix"/>
<feGaussianBlur in="BackgroundImage" stdDeviation="2"/>
<feComposite in2="SourceAlpha" operator="in" result="effect1_backgroundBlur"/>
<feBlend mode="normal" in="SourceGraphic" in2="effect1_backgroundBlur" result="shape"/>
</filter>
</defs>
</svg>
