<svg width="75" height="75" fill="none" xmlns="http://www.w3.org/2000/svg"><circle cx="31" cy="30.5" r="30.5" fill="#fff"/><path d="M34.788 24.079c-4.11-2.119-8.347.128-9.631 3.018m1.733 8.733a7.204 7.204 0 0 1-2.48-4.431m3.893 5.265c2.89 1.541 7.577.706 9.503-3.146.514-.963.77-2.055.77-3.018m-3.53 19.263c.192-.642.577-1.091 1.22-1.284.898-.321 1.861-.578 2.696-.963.899-.321 1.605-.193 2.376.385.706.578 1.348 1.092 2.119 1.605.257.193.642.45.963.514.45.128.963.064 1.413-.321 1.155-1.156 2.375-2.247 3.531-3.339.064-.064.129-.064.193-.129.064-.128.128-.192.192-.32.129-.45 0-.964-.257-1.413-.128-.193-.256-.45-.385-.642-.45-.835-.963-1.67-1.412-2.504a1.36 1.36 0 0 1 0-1.22l1.348-2.89c.385-.899 1.092-1.412 2.055-1.477a21.83 21.83 0 0 0 2.953-.385c.835-.193 1.22-.514 1.285-1.349.128-1.605.192-3.146.32-4.751.065-.835-.256-1.22-1.027-1.477l-.578-.193c-.963-.256-1.926-.513-2.89-.706-.705-.192-1.09-.514-1.348-1.156-.32-.963-.706-1.99-1.091-3.018a1.7 1.7 0 0 1 .128-1.476c.193-.257.321-.514.514-.77.578-.771 1.156-1.606 1.798-2.44.321-.45.321-.964.064-1.478-.128-.192-.193-.385-.385-.578a153.937 153.937 0 0 0-3.146-3.467c-.386-.321-.771-.385-1.156-.257a5.246 5.246 0 0 0-1.22.578c-.77.385-1.477.899-2.183 1.348-.643.386-1.285.386-1.99.129a27.184 27.184 0 0 0-1.991-.899c-1.67-.77-1.863-1.027-2.12-2.89-.128-.834-.192-1.733-.385-2.568-.192-.835-.642-1.22-1.412-1.284-1.477-.129-3.018-.193-4.495-.257-1.092 0-1.477.257-1.734 1.284-.256.963-.513 1.99-.706 2.954-.193.77-.578 1.413-1.348 1.605-1.092.321-2.248.77-3.34 1.092-.449.128-.834 0-1.22-.193-.192-.193-.449-.32-.706-.514-.77-.577-1.605-1.155-2.44-1.797-.45-.322-.963-.322-1.476-.065-.193.129-.45.193-.578.386-1.092.963-2.184 1.99-3.34 2.953-.577.45-.642 1.028-.32 1.734.192.45.385.835.642 1.22l1.155 1.926c.386.578.386 1.22.129 1.798-.45 1.092-.963 2.055-1.477 3.147-.257.449-.578.706-.963.77-.514.064-.963.193-1.541.257a19.73 19.73 0 0 0-2.183.32c-1.028.194-1.413.579-1.477 1.67-.129 1.477-.193 2.954-.257 4.43 0 .9.385 1.414 1.22 1.67 1.092.321 2.183.578 3.339.835.642.193 1.156.578 1.348 1.284.321 1.092.77 2.12 1.092 3.21.193.515.064 1.028-.193 1.478a9.8 9.8 0 0 1-.706 1.027c-.578.706-1.092 1.349-1.541 2.119-.385.578-.321 1.284.193 1.862.385.45.706.9 1.091 1.284.707.835.707.77 1.477 1.541l1.284 1.092c.578.193 1.156-.064 1.605-.385.835-.514 1.67-.9 2.376-1.413.707-.45 1.477-.514 2.248-.064.963.514 1.926.963 2.89 1.412.449.257.705.578.77 1.028.192 1.22.385 2.504.578 3.724.064.642.449 1.027 1.091 1.156.835.128 1.734.192 2.569.32h2.632c.578 0 .963-.256 1.156-.77l.963-4.045z" stroke="#19191B" stroke-width="2" stroke-miterlimit="10"/><circle cx="55.218" cy="54.719" r="14.181" transform="rotate(-55.504 55.218 54.719)" fill="#fff"/><path d="M53.755 51.576c-1.894 1.017-2.148 3.233-1.38 4.486.734 1.41 2.332 2.036 3.803 1.635m.692-.322c1.352-.701 2.266-2.717 1.297-4.47a3.062 3.062 0 0 0-.953-1.09m6.451 6.426c-.195-.243-.266-.509-.17-.806.113-.429.268-.865.34-1.287.114-.429.35-.666.774-.809.407-.118.773-.229 1.173-.389.141-.048.341-.128.45-.234a.69.69 0 0 0 .249-.626c-.138-.747-.235-1.502-.35-2.232-.007-.042.01-.066.002-.108-.032-.058-.04-.1-.072-.158-.139-.168-.37-.254-.61-.274-.107-.001-.24-.02-.347-.021-.438-.048-.893-.07-1.331-.118a.632.632 0 0 1-.468-.321l-.752-1.278c-.243-.384-.254-.79-.025-1.176.246-.41.45-.814.63-1.234.146-.37.125-.602-.178-.847-.582-.472-1.155-.902-1.736-1.374-.303-.244-.536-.223-.837.005l-.226.17c-.352.302-.704.603-1.031.922-.26.22-.485.283-.798.212-.454-.13-.95-.253-1.444-.376a.79.79 0 0 1-.532-.438c-.048-.142-.113-.259-.16-.4-.143-.424-.311-.866-.462-1.331-.088-.242-.285-.377-.549-.414-.108-.001-.198-.027-.323-.005-.713.09-1.427.18-2.157.293-.224.063-.35.194-.403.375a2.447 2.447 0 0 0-.1.62c-.055.397-.044.803-.058 1.192-.021.347-.19.593-.475.796-.292.162-.6.348-.868.526-.735.437-.884.443-1.665.052-.354-.171-.715-.383-1.086-.53-.37-.145-.637-.074-.864.204-.438.532-.869 1.106-1.282 1.655-.288.418-.29.633.035 1.002.302.352.628.721.946 1.049.245.276.39.593.26.939-.164.503-.296 1.064-.46 1.567-.07.206-.22.32-.396.417-.124.023-.241.087-.383.135-.424.143-.865.31-1.33.462-.242.087-.378.284-.414.549-.002.107-.045.223-.005.322.082.673.188 1.361.253 2.058.02.34.224.516.58.58.222.044.42.072.636.075l1.042.064a.842.842 0 0 1 .723.424c.3.46.534.91.817 1.395.105.216.118.407.042.571-.111.214-.18.42-.308.659a9.207 9.207 0 0 0-.452.92c-.196.445-.15.694.251 1.006.532.438 1.081.852 1.63 1.265.345.237.643.225.962-.028.41-.333.796-.684 1.198-1.06.243-.195.526-.29.848-.178.502.165 1.015.263 1.517.427.248.062.411.246.516.463.072.158.152.358.207.541.119.408.23.773.406 1.149.12.3.408.46.765.416.273-.03.53-.034.78-.08.505-.05.48-.068.979-.16l.756-.205c.226-.17.28-.46.275-.716.023-.455.095-.877.084-1.283.014-.389.193-.7.568-.878.45-.234.876-.484 1.302-.735.217-.105.407-.119.596-.025.519.248 1.061.512 1.58.76.263.144.512.098.73-.114.269-.286.53-.614.8-.9l.692-1.009c.153-.221.156-.437.01-.646l-1.297-1.434z" stroke="#A6A6A6" stroke-width="2" stroke-miterlimit="10"/></svg>