<svg width="100" height="100" viewBox="0 0 100 100" fill="none" xmlns="http://www.w3.org/2000/svg">
<rect width="100" height="100" fill="white"/>
<path d="M21.7121 21.2262L21.8707 72.4933C21.8768 74.4764 23.424 76.014 25.4071 76.0079L62.8659 75.892C64.7755 75.8861 66.3864 74.2652 66.3805 72.3556L66.2551 31.812C66.2517 30.7103 65.7341 29.6101 64.8507 28.9518L50.5687 18.3459C49.9798 17.907 49.2444 17.6155 48.5099 17.6177L25.2267 17.6898C23.2436 17.6959 21.7062 19.3166 21.7121 21.2262Z" fill="white"/>
<path d="M47.2075 24.0122L28.625 24.0696C27.2295 24.074 26.1312 25.1791 26.2087 26.5009L26.6332 68.7329C26.6373 70.055 27.7424 71.1533 29.0645 71.1492L59.4722 71.0552C60.7942 71.0511 61.8926 69.9459 61.8885 68.6239L61.7883 36.2331C61.7839 34.8375 60.6788 33.7392 59.2835 33.817L52.2327 33.9123C50.9106 33.9163 49.7323 32.8917 49.7279 31.4962L49.6461 28.7788C49.6399 26.7957 51.7663 25.6139 53.3854 26.6372L58.9047 30.0722C59.6405 30.5107 60.0837 31.3172 60.0862 32.1252L60.184 39.9839C60.1883 41.3795 59.09 42.4846 57.6945 42.4889L33.7498 42.4161C32.3543 42.4204 31.2559 43.5255 31.26 44.8476L31.2714 48.52C31.2755 49.8421 32.3806 50.9404 33.7027 50.9363L54.415 50.7988C55.737 50.7947 56.8422 51.8931 56.8463 53.2151L56.8528 55.3451C56.8569 56.6672 55.7586 57.7723 54.4365 57.7764L33.7243 57.914C32.3288 57.9183 31.2304 59.0234 31.3082 60.4187L31.3141 62.3284C31.3182 63.6504 32.4233 64.7488 33.8189 64.7444L57.2487 64.5985" stroke="#19191B" stroke-width="2" stroke-miterlimit="10"/>
<circle cx="68.9995" cy="68.5369" r="13.7616" transform="rotate(-0.769985 68.9995 68.5369)" fill="white"/>
<path d="M65.4045 74.8684L65.2734 65.1164C65.263 64.3387 65.8827 63.7021 66.6605 63.6916L72.8227 63.6088C73.6005 63.5983 74.2371 64.2181 74.2476 64.9958L74.2838 67.6881C74.2942 68.4658 73.6745 69.1025 72.8967 69.1129L64.4311 69.2267C63.6533 69.2372 63.0336 69.8738 63.044 70.6516C63.0545 71.4293 63.6911 72.0491 64.4689 72.0386L68.6867 71.9819" stroke="#A6A6A6" stroke-width="2" stroke-miterlimit="10"/>
<path d="M69.0891 79.636C75.0862 79.5554 79.8825 74.6284 79.8019 68.6313C79.7213 62.6342 74.7943 57.8379 68.7972 57.9185C62.8001 57.9991 58.0038 62.9261 58.0844 68.9232C58.165 74.9203 63.092 79.7166 69.0891 79.636Z" stroke="#A6A6A6" stroke-width="2" stroke-miterlimit="10"/>
</svg>
