<svg width="100" height="100" viewBox="0 0 100 100" fill="none" xmlns="http://www.w3.org/2000/svg">
<rect width="100" height="100" fill="white"/>
<path d="M18.193 30.2742L57.7044 30.2541C59.4158 30.2533 60.9035 29.2389 61.5724 27.7182L62.5386 25.4734C63.1331 24.0252 64.6952 23.0108 66.4066 23.01L81.8094 23.0021C84.6369 23.0007 86.7218 25.7507 85.7558 28.3575L84.4926 31.9056C83.8982 33.5711 82.3362 34.6578 80.5503 34.6587L80.3271 34.6589C78.6157 34.6597 77.0536 35.6741 76.3847 37.2672L61.5222 75.3558C60.9278 76.9489 59.3657 78.0356 57.6543 78.0365L32.9504 78.0491C31.1645 78.05 29.6014 76.9648 29.0053 75.3724L14.2521 35.7784C13.2834 33.1002 15.291 30.2757 18.193 30.2742Z" fill="white"/>
<path d="M73.315 29.386L66.2222 29.3742C65.0401 29.3722 64.1291 30.2277 63.892 31.396L58.4855 60.3695C58.2604 61.6157 57.3375 62.3932 56.1553 62.3913L35.155 62.3563C33.9033 62.3543 32.6586 61.4952 32.1068 60.1698L23.3541 40.3661C22.404 38.261 23.4705 36.1592 25.4176 36.1624L54.2061 36.2103C56.2226 36.2136 57.9617 38.4759 57.521 40.5788L52.9186 63.9441C52.6936 65.1903 51.7706 65.9678 50.5885 65.9659L40.5056 65.9491C39.2539 65.947 37.9276 65.0099 37.3638 63.6066L31.8427 49.8852C31.0436 47.8583 32.0526 45.8343 33.9996 45.8375L45.4038 45.8565C47.3508 45.8597 49.0658 47.9661 48.7643 50.0692L48.2497 53.4964C48.0366 54.8205 47.1256 55.676 45.874 55.6739L39.2679 55.6629" stroke="#19191B" stroke-width="2" stroke-miterlimit="10"/>
<path d="M39.8776 73.1099C41.43 73.112 42.4743 71.6952 42.2101 69.9454C41.9459 68.1956 40.4732 66.7755 38.9208 66.7735C37.3684 66.7714 36.324 68.1882 36.5882 69.938C36.8524 71.6878 38.3251 73.1079 39.8776 73.1099Z" stroke="#19191B" stroke-width="2" stroke-miterlimit="10"/>
<path d="M54.9786 72.4782C56.5311 72.4803 57.5754 71.0635 57.3112 69.3138C57.047 67.564 55.5743 66.1439 54.0219 66.1419C52.4694 66.1398 51.4251 67.5566 51.6893 69.3064C51.9535 71.0561 53.4262 72.4762 54.9786 72.4782Z" stroke="#19191B" stroke-width="2" stroke-miterlimit="10"/>
</svg>
