<svg width="100" height="100" viewBox="0 0 100 100" fill="none" xmlns="http://www.w3.org/2000/svg">
<rect width="100" height="100" fill="white"/>
<path d="M62.1621 25.6481C45.6627 25.3913 48.1311 43.5256 51.4277 52.6248C47.066 53.8236 38.3089 58.3923 38.1738 67.0762C38.0048 77.931 46.6549 80.2372 61.309 80.4652C75.963 80.6933 84.1296 79.1918 84.307 67.7942C84.4489 58.6761 75.4724 54.0848 70.9665 52.9289C74.9064 43.9423 78.6615 25.9049 62.1621 25.6481Z" fill="white"/>
<path d="M42.5154 67.1654C42.4011 74.5126 52.8011 74.3069 61.1965 74.4376C69.5919 74.5682 80.0191 75.8329 80.4889 68.1238C81.0259 59.3134 72.0198 57.168 66.3026 54.6749C61.9336 52.7696 69.7155 51.2644 70.4777 43.3489C71.4316 33.4426 67.0855 30.0679 61.8884 29.987C55.8916 29.8938 52.6305 33.8849 52.499 42.3341C52.3675 50.7834 60.3174 53.8468 57.1077 54.5318C53.898 55.2167 42.6298 59.8182 42.5154 67.1654Z" stroke="#A6A6A6" stroke-width="2"/>
<circle cx="31.0656" cy="38.0657" r="15.6806" transform="rotate(1.42485 31.0656 38.0657)" fill="white"/>
<path d="M26.696 45.1181L26.9723 34.0087C26.9944 33.1227 27.7278 32.4249 28.6138 32.4469L35.6338 32.6215C36.5199 32.6436 37.2177 33.377 37.1957 34.263L37.1194 37.33C37.0973 38.216 36.3639 38.9139 35.4779 38.8918L25.8339 38.6519C24.9479 38.6299 24.2144 39.3277 24.1924 40.2138C24.1703 41.0998 24.8682 41.8332 25.7542 41.8553L30.5592 41.9748" stroke="#19191B" stroke-width="2" stroke-miterlimit="10"/>
<path d="M30.6831 50.7071C37.515 50.877 43.1911 45.4764 43.361 38.6445C43.5309 31.8127 38.1303 26.1366 31.2984 25.9666C24.4666 25.7967 18.7905 31.1973 18.6205 38.0292C18.4506 44.861 23.8512 50.5371 30.6831 50.7071Z" stroke="#19191B" stroke-width="2" stroke-miterlimit="10"/>
</svg>
