<svg width="102" height="108" fill="none" xmlns="http://www.w3.org/2000/svg"><path d="m25.62 22.888-.44 57.117c-.016 2.21 1.69 3.941 3.899 3.958l41.733.321c2.128.016 3.942-1.77 3.958-3.898l.347-45.17c.01-1.227-.554-2.46-1.53-3.203L57.803 20.025c-.65-.496-1.466-.83-2.285-.836l-25.94-.2c-2.21-.016-3.942 1.771-3.958 3.899z" fill="#fff"/><path d="m53.99 26.297-20.703-.159c-1.554-.012-2.791 1.206-2.72 2.68l-.035 47.055c-.011 1.473 1.207 2.71 2.68 2.721l33.877.26c1.473.012 2.71-1.206 2.722-2.68l.277-36.086c.012-1.555-1.206-2.792-2.761-2.722l-7.857.021c-1.473-.011-2.773-1.167-2.761-2.721l-.059-3.029c.017-2.21 2.4-3.5 4.192-2.34l6.107 3.892a2.712 2.712 0 0 1 1.292 2.302l.015 8.756a2.76 2.76 0 0 1-2.804 2.761l-26.675-.369c-1.555-.012-2.792 1.206-2.803 2.68l-.032 4.09c-.011 1.474 1.207 2.71 2.68 2.722l23.077.096c1.473.01 2.69 1.248 2.68 2.72l-.019 2.374c-.011 1.473-1.248 2.69-2.721 2.68l-23.077-.096c-1.555-.012-2.792 1.206-2.722 2.761l-.016 2.128c-.011 1.473 1.207 2.71 2.761 2.722l26.105.119" stroke="#19191B" stroke-width="2" stroke-miterlimit="10"/><path d="m58.651 60.512-.257 33.49a2.274 2.274 0 0 0 2.285 2.321l24.47.188c1.248.01 2.312-1.037 2.321-2.285l.204-26.486c.005-.72-.325-1.441-.897-1.878l-9.255-7.028c-.382-.291-.86-.487-1.34-.49l-15.21-.118a2.304 2.304 0 0 0-2.32 2.286z" fill="#fff"/><path d="m75.286 62.511-12.14-.093c-.91-.007-1.636.707-1.595 1.571l-.02 27.59a1.597 1.597 0 0 0 1.571 1.596l19.864.153a1.597 1.597 0 0 0 1.596-1.572l.163-21.159c.007-.912-.707-1.637-1.62-1.596l-4.606.013c-.864-.007-1.626-.685-1.62-1.596l-.034-1.776c.01-1.295 1.408-2.052 2.458-1.373l3.581 2.283c.478.292.762.822.758 1.35l.008 5.134a1.618 1.618 0 0 1-1.644 1.619l-15.64-.216c-.912-.007-1.638.707-1.644 1.57l-.019 2.4a1.598 1.598 0 0 0 1.572 1.595l13.53.056a1.597 1.597 0 0 1 1.572 1.596l-.01 1.39a1.597 1.597 0 0 1-1.596 1.572l-13.531-.056c-.912-.007-1.637.707-1.596 1.62l-.01 1.247c-.007.863.708 1.589 1.62 1.596l15.306.07" stroke="#A6A6A6" stroke-width="2" stroke-miterlimit="10"/></svg>