<svg width="59" height="74" fill="none" xmlns="http://www.w3.org/2000/svg"><path d="M.497 3 .154 69.988a3 3 0 0 0 2.985 3.015l51.887.265a3 3 0 0 0 3.015-2.984l.16-31.333a3 3 0 0 0-2.984-3.016l-21.387-.109A3 3 0 0 1 30.9 33.4L24.893 2.536A3 3 0 0 0 21.962.11L3.512.015A3 3 0 0 0 .497 3z" fill="#fff"/><path d="m7.72 67.153.19-37.01a2 2 0 0 1 2.01-1.99l6.895.035a2 2 0 0 1 1.94 1.56l2.818 12.499a3 3 0 0 0 2.911 2.34l20.782.106a2 2 0 0 1 1.99 2.01l-.096 18.593a2.06 2.06 0 0 1-2.07 2.048l-3.46-.017a2.031 2.031 0 0 1-2.02-2.042l.023-4.47a3.146 3.146 0 1 0-6.292-.032l-.023 4.47a2.031 2.031 0 0 1-2.042 2.02l-2.649-.013a2.031 2.031 0 0 1-2.02-2.041l.027-5.31a2.307 2.307 0 1 0-4.614-.024l-.028 5.31a2.031 2.031 0 0 1-2.041 2.021l-6.875-.035a2 2 0 0 1-1.99-2.01l.065-12.682.137-26.846.01-1.887a2.307 2.307 0 0 1 2.319-2.296 2.307 2.307 0 0 0 2.318-2.295l.011-2.097a2.307 2.307 0 0 0-2.295-2.32l-.84-.003a1.468 1.468 0 1 1 .015-2.936l.84.003a2.307 2.307 0 0 0 2.319-2.295l.011-2.307" stroke="#19191B" stroke-width="2"/></svg>