<svg width="71" height="59" fill="none" xmlns="http://www.w3.org/2000/svg"><path d="M47.662 3.648c-16.5-.257-14.031 17.878-10.735 26.977-4.361 1.199-13.119 5.767-13.254 14.451-.169 10.855 8.481 13.161 23.136 13.39 14.654.227 22.82-1.274 22.998-12.672.141-9.118-8.835-13.71-13.341-14.865 3.94-8.987 7.695-27.024-8.804-27.28z" fill="#fff"/><path d="M28.015 45.165c-.114 7.348 10.286 7.142 18.681 7.273 8.395.13 18.823 1.395 19.293-6.314.536-8.81-8.47-10.956-14.187-13.45-4.369-1.904 3.413-3.41 4.175-11.325.954-9.906-3.392-13.281-8.59-13.362-5.996-.093-9.257 3.898-9.389 12.347-.131 8.45 7.819 11.513 4.61 12.198-3.21.685-14.479 5.286-14.593 12.633z" stroke="#A6A6A6" stroke-width="2"/><circle cx="16.565" cy="16.066" r="15.681" transform="rotate(1.425 16.565 16.066)" fill="#fff"/><path d="m12.196 23.118.276-11.11a1.6 1.6 0 0 1 1.642-1.561l7.02.174a1.6 1.6 0 0 1 1.561 1.642l-.076 3.067a1.6 1.6 0 0 1-1.641 1.562l-9.644-.24a1.6 1.6 0 0 0-1.642 1.562 1.6 1.6 0 0 0 1.562 1.641l4.805.12" stroke="#19191B" stroke-width="2" stroke-miterlimit="10"/><path d="M16.183 28.707c6.832.17 12.508-5.23 12.678-12.063.17-6.831-5.23-12.507-12.063-12.677C9.966 3.797 4.29 9.197 4.12 16.029c-.17 6.832 5.23 12.508 12.063 12.678z" stroke="#19191B" stroke-width="2" stroke-miterlimit="10"/></svg>