<svg width="100" height="100" fill="none" xmlns="http://www.w3.org/2000/svg"><path fill="#fff" d="M0 0h100v100H0z"/><path d="m18.193 30.274 39.511-.02c1.712 0 3.2-1.015 3.868-2.536l.967-2.245c.594-1.448 2.156-2.462 3.868-2.463l15.402-.008c2.828-.001 4.913 2.749 3.947 5.356l-1.263 3.548c-.595 1.665-2.157 2.752-3.943 2.753h-.223a4.27 4.27 0 0 0-3.942 2.608L61.522 75.356a4.16 4.16 0 0 1-3.868 2.68l-24.704.013c-1.786.001-3.349-1.084-3.945-2.677L14.252 35.778c-.969-2.678 1.039-5.502 3.941-5.504z" fill="#fff"/><path d="m73.315 29.386-7.093-.012c-1.182-.002-2.093.854-2.33 2.022L58.485 60.37c-.225 1.246-1.148 2.023-2.33 2.021l-21-.035c-1.252-.002-2.496-.86-3.048-2.186l-8.753-19.804c-.95-2.105.117-4.207 2.064-4.204l28.788.048c2.017.004 3.756 2.266 3.315 4.369l-4.602 23.365c-.225 1.246-1.148 2.024-2.33 2.022l-10.083-.017c-1.252-.002-2.578-.94-3.142-2.342l-5.521-13.722c-.8-2.027.21-4.05 2.157-4.047l11.404.018c1.947.004 3.662 2.11 3.36 4.213l-.514 3.427c-.213 1.325-1.124 2.18-2.376 2.178l-6.606-.011M39.878 73.11c1.552.002 2.596-1.415 2.332-3.165-.264-1.75-1.737-3.17-3.29-3.171-1.552-.003-2.596 1.414-2.332 3.164.264 1.75 1.737 3.17 3.29 3.172zM54.979 72.478c1.552.002 2.596-1.414 2.332-3.164-.264-1.75-1.737-3.17-3.29-3.172-1.552-.002-2.596 1.415-2.332 3.164.264 1.75 1.737 3.17 3.29 3.172z" stroke="#19191B" stroke-width="2" stroke-miterlimit="10"/></svg>