<svg width="100" height="100" fill="none" xmlns="http://www.w3.org/2000/svg"><path fill="#fff" d="M0 0h100v100H0z"/><rect x="22" y="22" width="56.531" height="56.531" rx="7" fill="#fff"/><circle cx="40.421" cy="48.731" r="1.974" stroke="#A6A6A6" stroke-width="2"/><circle cx="40.421" cy="58.246" r="1.974" stroke="#A6A6A6" stroke-width="2"/><circle cx="49.936" cy="48.731" r="1.974" stroke="#A6A6A6" stroke-width="2"/><circle cx="49.936" cy="58.246" r="1.974" stroke="#A6A6A6" stroke-width="2"/><path d="M60.046 33.863h1.326a7 7 0 0 1 7 7v22.278a7 7 0 0 1-7 7H39.095a7 7 0 0 1-7-7V40.486a6.623 6.623 0 0 1 6.623-6.623 3.785 3.785 0 0 0 3.784-3.784v-.676" stroke="#A6A6A6" stroke-width="2"/><circle cx="59.451" cy="48.731" r="1.974" stroke="#19191B" stroke-width="2"/><circle cx="49.579" cy="48.731" r="1.974" stroke="#19191B" stroke-width="2"/><circle cx="39.905" cy="48.731" r="1.974" stroke="#A6A6A6" stroke-width="2"/><circle cx="59.451" cy="58.246" r="1.974" stroke="#A6A6A6" stroke-width="2"/><circle cx="49.579" cy="58.246" r="1.974" stroke="#19191B" stroke-width="2"/><circle cx="39.905" cy="58.246" r="1.974" stroke="#19191B" stroke-width="2"/><path d="M45.476 40.702h7.515a2 2 0 0 0 2-2v-2.244a2 2 0 0 1 2-2h1.055a2 2 0 0 0 2-2v-3.055" stroke="#A6A6A6" stroke-width="2"/></svg>