<svg width="100" height="100" fill="none" xmlns="http://www.w3.org/2000/svg"><path fill="#fff" d="M0 0h100v100H0z"/><path d="M62.162 25.648c-16.5-.257-14.03 17.878-10.734 26.977-4.362 1.199-13.12 5.767-13.254 14.451-.17 10.855 8.48 13.161 23.135 13.39 14.654.227 22.82-1.274 22.998-12.672.142-9.118-8.835-13.71-13.34-14.865 3.94-8.987 7.695-27.024-8.805-27.28z" fill="#fff"/><path d="M42.515 67.165c-.114 7.348 10.286 7.142 18.681 7.273 8.396.13 18.823 1.395 19.293-6.314.537-8.81-8.47-10.956-14.186-13.45-4.37-1.904 3.413-3.41 4.175-11.325.954-9.906-3.392-13.281-8.59-13.362-5.996-.093-9.258 3.898-9.389 12.347-.132 8.45 7.818 11.513 4.609 12.198-3.21.685-14.478 5.286-14.593 12.633z" stroke="#A6A6A6" stroke-width="2"/><circle cx="31.066" cy="38.066" r="15.681" transform="rotate(1.425 31.066 38.066)" fill="#fff"/><path d="m26.696 45.118.276-11.11a1.6 1.6 0 0 1 1.642-1.561l7.02.174a1.6 1.6 0 0 1 1.562 1.642l-.077 3.067a1.6 1.6 0 0 1-1.641 1.562l-9.644-.24a1.6 1.6 0 0 0-1.642 1.562 1.6 1.6 0 0 0 1.562 1.641l4.805.12" stroke="#19191B" stroke-width="2" stroke-miterlimit="10"/><path d="M30.683 50.707c6.832.17 12.508-5.23 12.678-12.063.17-6.831-5.23-12.507-12.063-12.677-6.831-.17-12.507 5.23-12.677 12.062-.17 6.832 5.23 12.508 12.062 12.678z" stroke="#19191B" stroke-width="2" stroke-miterlimit="10"/></svg>