<svg width="89" height="92" fill="none" xmlns="http://www.w3.org/2000/svg"><path d="m22.212 20.226.158 51.267c.007 1.983 1.554 3.521 3.537 3.515l37.459-.116c1.91-.006 3.52-1.627 3.514-3.536l-.125-40.544c-.004-1.102-.521-2.202-1.405-2.86L51.07 17.346c-.59-.439-1.325-.73-2.06-.728l-23.282.072a3.526 3.526 0 0 0-3.515 3.536z" fill="#fff"/><path d="m47.707 23.012-18.582.058c-1.396.004-2.494 1.109-2.416 2.43l.424 42.233a2.445 2.445 0 0 0 2.431 2.416l30.408-.094a2.445 2.445 0 0 0 2.416-2.431l-.1-32.391c-.004-1.396-1.11-2.494-2.505-2.416l-7.05.095c-1.323.004-2.501-1.02-2.505-2.416l-.082-2.717c-.006-1.983 2.12-3.165 3.74-2.142l5.518 3.435a2.434 2.434 0 0 1 1.182 2.053l.098 7.859a2.477 2.477 0 0 1-2.49 2.505l-23.945-.073c-1.395.004-2.493 1.11-2.49 2.431l.012 3.673a2.445 2.445 0 0 0 2.431 2.416l20.713-.137a2.445 2.445 0 0 1 2.431 2.416l.007 2.13a2.445 2.445 0 0 1-2.417 2.431l-20.712.138c-1.395.004-2.494 1.11-2.416 2.505l.006 1.91c.004 1.321 1.11 2.42 2.505 2.415l23.43-.146" stroke="#19191B" stroke-width="2" stroke-miterlimit="10"/></svg>