<svg width="73" height="56" fill="none" xmlns="http://www.w3.org/2000/svg"><path d="m4.693 7.605 39.511-.02c1.712-.001 3.2-1.015 3.868-2.536l.966-2.245c.595-1.448 2.157-2.462 3.868-2.463L68.31.333c2.828-.002 4.913 2.748 3.947 5.355l-1.264 3.548c-.594 1.666-2.156 2.752-3.942 2.753h-.223a4.27 4.27 0 0 0-3.942 2.609L48.022 52.686a4.16 4.16 0 0 1-3.868 2.681l-24.704.013c-1.786 0-3.349-1.085-3.945-2.677L.752 13.11c-.969-2.678 1.039-5.503 3.94-5.504z" fill="#fff"/><path d="m63.104 7.636-7.543-.138a2.764 2.764 0 0 0-2.68 1.924l-8.637 28.071c-.363 1.208-1.422 1.947-2.68 1.924l-22.333-.407a3.287 3.287 0 0 1-3.024-2.18L8.87 17.422c-.801-2.064.543-4.088 2.613-4.05l30.616.558c2.145.04 3.769 2.27 3.09 4.306L37.968 40.87c-.363 1.208-1.422 1.947-2.68 1.924l-10.723-.195c-1.33-.025-2.648-.96-3.108-2.334L16.95 26.828c-.648-1.985.627-3.935 2.698-3.897l12.128.221c2.07.038 3.685 2.116 3.155 4.156l-.89 3.322c-.358 1.284-1.412 2.1-2.743 2.075l-7.025-.128M26.098 50.39c1.707.03 3.002-1.342 2.892-3.064-.11-1.722-1.583-3.142-3.29-3.172-1.706-.03-3.001 1.342-2.891 3.065.11 1.722 1.582 3.142 3.29 3.172zM41.2 49.759c1.706.03 3-1.342 2.89-3.064-.11-1.723-1.582-3.143-3.289-3.172-1.707-.03-3.001 1.342-2.891 3.064.11 1.722 1.583 3.142 3.29 3.172z" stroke="#19191B" stroke-width="2" stroke-miterlimit="10"/></svg>