<svg width="100" height="100" fill="none" xmlns="http://www.w3.org/2000/svg"><path fill="#fff" d="M0 0h100v100H0z"/><path d="m21.358 16-.343 66.988A3 3 0 0 0 24 86.003l51.887.265a3 3 0 0 0 3.015-2.984l.16-31.333a3 3 0 0 0-2.984-3.016l-21.387-.109a3 3 0 0 1-2.93-2.426l-6.008-30.864a3 3 0 0 0-2.93-2.426l-18.45-.095A3 3 0 0 0 21.358 16z" fill="#fff"/><path d="m28.58 80.153.19-37.01a2 2 0 0 1 2.01-1.99l6.896.035a2 2 0 0 1 1.94 1.56l2.818 12.499a3 3 0 0 0 2.91 2.34l20.782.106a2 2 0 0 1 1.99 2.01l-.095 18.593a2.06 2.06 0 0 1-2.07 2.048l-3.46-.017a2.031 2.031 0 0 1-2.02-2.042l.022-4.47a3.146 3.146 0 1 0-6.292-.032l-.023 4.47a2.031 2.031 0 0 1-2.041 2.02l-2.65-.013a2.031 2.031 0 0 1-2.02-2.041l.027-5.31a2.307 2.307 0 1 0-4.614-.024l-.027 5.31a2.031 2.031 0 0 1-2.042 2.021l-6.875-.035a2 2 0 0 1-1.99-2.01l.065-12.682.138-26.846.01-1.887a2.307 2.307 0 0 1 2.318-2.296 2.307 2.307 0 0 0 2.319-2.295l.01-2.097a2.307 2.307 0 0 0-2.295-2.32l-.839-.004a1.468 1.468 0 1 1 .015-2.936l.84.005a2.307 2.307 0 0 0 2.318-2.296l.012-2.307" stroke="#19191B" stroke-width="2"/></svg>