<svg width="100" height="100" viewBox="0 0 100 100" fill="none" xmlns="http://www.w3.org/2000/svg">
<rect width="100" height="100" fill="white"/>
<circle cx="43.5" cy="45.5" r="30.5" fill="white"/>
<path d="M47.2882 39.079C43.1788 36.9601 38.9409 39.2075 37.6567 42.0969M39.3904 50.8296C38.0302 49.6787 37.1625 48.0921 36.9109 46.3991M40.803 51.6643C43.6925 53.2054 48.3798 52.3706 50.3061 48.518C50.8198 47.5548 51.0767 46.4632 51.0767 45.5001M47.5451 64.7632C47.7377 64.1211 48.123 63.6717 48.7651 63.479C49.664 63.158 50.6272 62.9011 51.4619 62.5159C52.3609 62.1948 53.0672 62.3233 53.8377 62.9011C54.544 63.479 55.1861 63.9927 55.9567 64.5064C56.2135 64.699 56.5988 64.9559 56.9198 65.0201C57.3693 65.1485 57.883 65.0843 58.3325 64.6991C59.4882 63.5433 60.7082 62.4517 61.864 61.3601C61.9282 61.2959 61.9925 61.2959 62.0567 61.2317C62.1209 61.1032 62.1851 61.039 62.2493 60.9106C62.3777 60.4611 62.2493 59.9475 61.9925 59.498C61.864 59.3054 61.7356 59.0485 61.6072 58.8559C61.1577 58.0212 60.644 57.1864 60.1946 56.3517C60.0019 55.9664 60.0019 55.5169 60.1946 55.1317C60.644 54.1685 61.0935 53.2054 61.543 52.2422C61.9282 51.3432 62.6346 50.8296 63.5977 50.7654C64.6251 50.7012 65.5882 50.5727 66.5514 50.3801C67.3861 50.1875 67.7714 49.8664 67.8356 49.0317C67.964 47.4264 68.0282 45.8854 68.1567 44.2801C68.2209 43.4454 67.8998 43.0601 67.1293 42.8033C66.9367 42.7391 66.744 42.6748 66.5514 42.6106C65.5882 42.3538 64.6251 42.0969 63.6619 41.9043C62.9556 41.7117 62.5704 41.3906 62.3135 40.7485C61.9925 39.7854 61.6072 38.758 61.2219 37.7306C61.0293 37.2169 61.0935 36.7033 61.3504 36.2538C61.543 35.9969 61.6714 35.7401 61.864 35.4833C62.4419 34.7127 63.0198 33.878 63.6619 33.0433C63.983 32.5938 63.983 32.0801 63.7261 31.5664C63.5977 31.3738 63.5335 31.1812 63.3409 30.9885C62.3135 29.8327 61.2861 28.6769 60.1946 27.5211C59.8093 27.2001 59.424 27.1359 59.0388 27.2643C58.6535 27.3927 58.204 27.5854 57.8188 27.8422C57.0483 28.2275 56.3419 28.7411 55.6356 29.1906C54.9935 29.5759 54.3514 29.5759 53.6451 29.319C53.003 28.998 52.2967 28.6769 51.6546 28.4201C49.9851 27.6496 49.7925 27.3927 49.5356 25.5306C49.4072 24.6959 49.343 23.7969 49.1504 22.9622C48.9577 22.1275 48.5082 21.7422 47.7377 21.678C46.2609 21.5496 44.7198 21.4854 43.243 21.4211C42.1514 21.4211 41.7661 21.678 41.5093 22.7054C41.2525 23.6685 40.9956 24.6959 40.803 25.659C40.6104 26.4296 40.2251 27.0717 39.4546 27.2643C38.363 27.5854 37.2072 28.0348 36.1156 28.3559C35.6661 28.4843 35.2809 28.3559 34.8956 28.1632C34.703 27.9706 34.4461 27.8422 34.1893 27.6496C33.4188 27.0717 32.584 26.4938 31.7493 25.8517C31.2998 25.5306 30.7861 25.5306 30.2725 25.7875C30.0798 25.9159 29.823 25.9801 29.6946 26.1727C28.603 27.1359 27.5114 28.1632 26.3556 29.1264C25.7777 29.5759 25.7135 30.1538 26.0346 30.8601C26.2272 31.3096 26.4198 31.6948 26.6767 32.0801C27.0619 32.7222 27.4472 33.3643 27.8325 34.0064C28.2177 34.5843 28.2177 35.2264 27.9609 35.8043C27.5114 36.8959 26.9977 37.859 26.484 38.9506C26.2272 39.4001 25.9061 39.6569 25.5209 39.7211C25.0072 39.7854 24.5577 39.9138 23.9798 39.978C23.2093 40.0422 22.4388 40.1706 21.7967 40.2991C20.7693 40.4917 20.384 40.8769 20.3198 41.9685C20.1914 43.4454 20.1272 44.9222 20.063 46.3991C20.063 47.298 20.4482 47.8117 21.283 48.0685C22.3746 48.3896 23.4661 48.6464 24.6219 48.9033C25.264 49.0959 25.7777 49.4812 25.9704 50.1875C26.2914 51.2791 26.7409 52.3064 27.0619 53.398C27.2546 53.9117 27.1261 54.4254 26.8693 54.8748C26.6767 55.1959 26.4198 55.5811 26.163 55.9022C25.5851 56.6085 25.0714 57.2506 24.6219 58.0211C24.2367 58.599 24.3009 59.3054 24.8146 59.8833C25.1998 60.3327 25.5209 60.7822 25.9061 61.1675C26.6125 62.0022 26.6125 61.938 27.383 62.7085L28.6672 63.8001C29.2451 63.9927 29.823 63.7359 30.2725 63.4148C31.1072 62.9012 31.9419 62.5159 32.6482 62.0022C33.3546 61.5527 34.1251 61.4885 34.8956 61.938C35.8588 62.4517 36.8219 62.9012 37.7851 63.3506C38.2346 63.6075 38.4914 63.9285 38.5556 64.378C38.7483 65.598 38.9409 66.8822 39.1335 68.1022C39.1977 68.7443 39.583 69.1296 40.2251 69.258C41.0598 69.3864 41.9588 69.4506 42.7935 69.579C43.6282 69.579 44.5914 69.579 45.4261 69.579C46.004 69.579 46.3893 69.3222 46.5819 68.8085L47.5451 64.7632Z" stroke="#19191B" stroke-width="2" stroke-miterlimit="10"/>
<circle cx="67.7187" cy="69.7188" r="14.1809" transform="rotate(-55.5043 67.7187 69.7188)" fill="white"/>
<path d="M66.2557 66.5765C64.3616 67.5932 64.1069 69.809 64.8759 71.0619C65.6097 72.4717 67.2074 73.0987 68.6788 72.6971M69.3706 72.3755C70.722 71.6741 71.6364 69.6581 70.6673 67.9055C70.4335 67.455 70.0828 67.0692 69.7138 66.8156M76.1654 73.2412C75.97 72.9983 75.8992 72.7323 75.9945 72.4356C76.1082 72.0065 76.2634 71.5698 76.3356 71.1485C76.4493 70.7195 76.6845 70.4827 77.1088 70.3396C77.5162 70.2211 77.8821 70.1103 78.2819 69.9503C78.4233 69.9026 78.6232 69.8226 78.7323 69.7165C78.8999 69.5781 79.0106 69.3643 78.9813 69.0906C78.8427 68.3434 78.7457 67.5885 78.6318 66.8581C78.6241 66.8166 78.641 66.792 78.6333 66.7505C78.601 66.6921 78.5933 66.6506 78.561 66.5922C78.4225 66.4246 78.1919 66.3385 77.952 66.3186C77.8444 66.3171 77.7122 66.2987 77.6045 66.2972C77.1663 66.2496 76.7112 66.2266 76.273 66.1791C76.0746 66.1514 75.9024 66.0331 75.8055 65.8578C75.5547 65.432 75.304 65.0061 75.0533 64.5802C74.8103 64.1959 74.7994 63.79 75.0284 63.404C75.2743 62.9934 75.4787 62.5905 75.6586 62.1707C75.8045 61.8001 75.783 61.568 75.48 61.3235C74.8987 60.8516 74.3251 60.4212 73.7438 59.9493C73.4408 59.7049 73.2086 59.7265 72.9073 59.9541C72.832 60.011 72.7567 60.068 72.6813 60.1249C72.3293 60.4263 71.9773 60.7278 71.6498 61.0461C71.39 61.266 71.1655 61.3291 70.8519 61.2585C70.3982 61.1279 69.9031 61.005 69.408 60.8821C69.1604 60.8206 68.9805 60.6608 68.8759 60.444C68.8282 60.3025 68.7636 60.1857 68.7159 60.0443C68.5728 59.6199 68.4051 59.1787 68.2543 58.7128C68.1666 58.4714 67.9698 58.3362 67.7053 58.2993C67.5977 58.2978 67.5069 58.2717 67.3824 58.2948C66.669 58.3841 65.9556 58.4735 65.2252 58.5874C65.0008 58.6505 64.8747 58.7812 64.8225 58.9627C64.7702 59.1441 64.7257 59.3671 64.7227 59.5823C64.6674 59.979 64.6783 60.385 64.6645 60.774C64.6431 61.1215 64.474 61.3675 64.1896 61.5706C63.8975 61.7321 63.5885 61.9182 63.321 62.0966C62.5861 62.5334 62.437 62.5396 61.6558 62.1477C61.3021 61.9771 60.9407 61.765 60.5701 61.619C60.1995 61.4731 59.9335 61.5438 59.706 61.8222C59.2679 62.3543 58.8375 62.9279 58.4241 63.4769C58.1366 63.8952 58.1336 64.1105 58.4597 64.4794C58.7611 64.8315 59.0872 65.2004 59.4055 65.5278C59.65 65.8045 59.7946 66.1213 59.6656 66.4672C59.5012 66.9701 59.3691 67.5313 59.2046 68.0341C59.1355 68.2402 58.9848 68.354 58.8096 68.4509C58.685 68.474 58.5682 68.5386 58.4268 68.5863C58.0024 68.7294 57.5612 68.8971 57.0953 69.0479C56.8539 69.1356 56.7187 69.3324 56.6818 69.5969C56.6803 69.7045 56.6373 69.8199 56.6773 69.9198C56.7589 70.5917 56.8652 71.2805 56.9299 71.977C56.95 72.3168 57.1545 72.4936 57.5097 72.5566C57.7327 72.6011 57.931 72.6287 58.1463 72.6318C58.4938 72.6532 58.8413 72.6747 59.1888 72.6961C59.5117 72.7006 59.7577 72.8697 59.9115 73.1203C60.2115 73.58 60.4453 74.0304 60.7283 74.5147C60.8329 74.7315 60.8468 74.9222 60.77 75.0867C60.6593 75.3004 60.5902 75.5065 60.4626 75.7448C60.2843 76.057 60.1306 76.3861 60.0107 76.666C59.814 77.1104 59.8602 77.3594 60.2616 77.6715C60.7937 78.1096 61.3427 78.5231 61.8917 78.9366C62.2362 79.1733 62.5345 79.1609 62.8527 78.9087C63.2632 78.5749 63.649 78.2243 64.0518 77.849C64.2947 77.6537 64.5776 77.5583 64.8989 77.6704C65.4018 77.8349 65.9138 77.9331 66.4166 78.0976C66.6642 78.159 66.8272 78.3435 66.9318 78.5602C67.0041 78.7186 67.0841 78.9185 67.1395 79.1014C67.258 79.5089 67.3688 79.8748 67.5457 80.2499C67.6657 80.5497 67.9533 80.7111 68.31 80.6664C68.5837 80.6372 68.8404 80.6325 69.0895 80.5863C69.5954 80.5354 69.5708 80.5185 70.0689 80.4262L70.8254 80.2215C71.0514 80.0508 71.1051 79.7617 71.1004 79.5049C71.1234 79.0498 71.1956 78.6285 71.1847 78.2226C71.1985 77.8336 71.3768 77.5214 71.7519 77.3445C72.2023 77.1107 72.6282 76.8599 73.0541 76.6092C73.2708 76.5046 73.4615 76.4907 73.6506 76.5845C74.1689 76.8319 74.7117 77.0963 75.2299 77.3437C75.4929 77.4882 75.7419 77.442 75.9602 77.2297C76.2292 76.9437 76.4906 76.6161 76.7596 76.3301C76.9794 76.0102 77.233 75.6411 77.4528 75.3213C77.605 75.0998 77.608 74.8846 77.4619 74.6755L76.1654 73.2412Z" stroke="#A6A6A6" stroke-width="2" stroke-miterlimit="10"/>
</svg>
