<svg width="100" height="100" fill="none" xmlns="http://www.w3.org/2000/svg"><g clip-path="url(#a)"><path fill="#fff" d="M0 0h100v100H0z"/><path d="m17.73 15.444-.44 57.118c-.016 2.21 1.689 3.94 3.898 3.958l41.734.32c2.127.017 3.941-1.77 3.958-3.897l.347-45.17c.01-1.228-.554-2.46-1.53-3.204L49.913 12.582c-.651-.496-1.467-.83-2.285-.836l-25.94-.2a3.929 3.929 0 0 0-3.958 3.898z" fill="#fff"/><path d="m46.1 18.854-20.703-.16c-1.555-.011-2.791 1.207-2.721 2.68l-.034 47.056c-.012 1.472 1.206 2.71 2.68 2.72l33.877.261c1.473.011 2.71-1.207 2.721-2.68l.278-36.087c.012-1.555-1.206-2.791-2.762-2.722l-7.856.022c-1.473-.011-2.774-1.167-2.762-2.722l-.058-3.028c.017-2.21 2.4-3.5 4.191-2.341l6.108 3.893a2.712 2.712 0 0 1 1.292 2.301l.014 8.757a2.76 2.76 0 0 1-2.803 2.76l-26.676-.368c-1.555-.012-2.791 1.206-2.803 2.679l-.031 4.091c-.012 1.473 1.207 2.71 2.68 2.721l23.076.096c1.473.011 2.691 1.248 2.68 2.721l-.018 2.373c-.012 1.473-1.249 2.691-2.721 2.68l-23.077-.096c-1.555-.011-2.792 1.206-2.722 2.762l-.017 2.127c-.01 1.473 1.207 2.71 2.762 2.722l26.105.12" stroke="#19191B" stroke-width="2" stroke-miterlimit="10"/><path d="m50.761 53.068-.257 33.49a2.274 2.274 0 0 0 2.285 2.322l24.47.188c1.248.01 2.311-1.038 2.321-2.286l.204-26.485c.005-.72-.325-1.442-.898-1.878l-9.254-7.03c-.382-.29-.86-.486-1.34-.49l-15.21-.116a2.304 2.304 0 0 0-2.32 2.285z" fill="#fff"/><path d="m67.396 55.067-12.139-.093c-.912-.007-1.637.707-1.596 1.571l-.02 27.59a1.597 1.597 0 0 0 1.572 1.596l19.864.153a1.598 1.598 0 0 0 1.595-1.571l.163-21.16c.007-.911-.707-1.637-1.62-1.596l-4.606.013c-.864-.007-1.626-.684-1.62-1.596l-.033-1.776c.01-1.295 1.407-2.052 2.457-1.372l3.582 2.282c.477.292.761.822.757 1.35l.008 5.134a1.618 1.618 0 0 1-1.644 1.619l-15.64-.216c-.912-.007-1.637.707-1.644 1.57l-.019 2.4a1.598 1.598 0 0 0 1.572 1.595l13.53.056a1.597 1.597 0 0 1 1.572 1.596l-.01 1.391a1.598 1.598 0 0 1-1.596 1.571l-13.531-.056c-.912-.007-1.637.708-1.596 1.62l-.01 1.247c-.006.864.708 1.589 1.62 1.596l15.306.07" stroke="#A6A6A6" stroke-width="2" stroke-miterlimit="10"/></g><defs><clipPath id="a"><path fill="#fff" d="M0 0h100v100H0z"/></clipPath></defs></svg>