<svg width="100" height="100" fill="none" xmlns="http://www.w3.org/2000/svg"><path fill="#fff" d="M0 0h100v100H0z"/><path d="m21.712 21.226.159 51.267c.006 1.983 1.553 3.521 3.536 3.515l37.459-.116c1.91-.006 3.52-1.627 3.514-3.536l-.125-40.544c-.003-1.102-.52-2.202-1.404-2.86L50.569 18.346c-.59-.439-1.325-.73-2.06-.728l-23.282.072a3.526 3.526 0 0 0-3.515 3.536z" fill="#fff"/><path d="m47.208 24.012-18.583.058c-1.395.004-2.494 1.11-2.416 2.43l.424 42.233a2.445 2.445 0 0 0 2.431 2.416l30.408-.094a2.445 2.445 0 0 0 2.416-2.431l-.1-32.39c-.004-1.397-1.11-2.495-2.505-2.417l-7.05.095c-1.322.004-2.5-1.02-2.505-2.416l-.082-2.717c-.006-1.983 2.12-3.165 3.74-2.142l5.519 3.435a2.434 2.434 0 0 1 1.181 2.053l.098 7.859a2.477 2.477 0 0 1-2.49 2.505l-23.944-.073c-1.396.004-2.494 1.11-2.49 2.432l.011 3.672a2.445 2.445 0 0 0 2.432 2.416l20.712-.137a2.445 2.445 0 0 1 2.431 2.416l.007 2.13a2.445 2.445 0 0 1-2.416 2.431l-20.713.138c-1.395.004-2.494 1.11-2.416 2.505l.006 1.91c.004 1.321 1.11 2.42 2.505 2.415l23.43-.145" stroke="#19191B" stroke-width="2" stroke-miterlimit="10"/><circle cx="68.999" cy="68.537" r="13.762" transform="rotate(-.77 69 68.537)" fill="#fff"/><path d="m65.404 74.868-.13-9.752a1.405 1.405 0 0 1 1.386-1.424l6.163-.083c.778-.01 1.414.61 1.425 1.387l.036 2.692c.01.778-.61 1.415-1.387 1.425l-8.466.114a1.405 1.405 0 0 0-1.387 1.425c.01.777.647 1.397 1.425 1.387l4.218-.057" stroke="#A6A6A6" stroke-width="2" stroke-miterlimit="10"/><path d="M69.09 79.636c5.996-.08 10.792-5.008 10.712-11.005-.08-5.997-5.008-10.793-11.005-10.712-5.997.08-10.793 5.007-10.713 11.004.081 5.997 5.008 10.794 11.005 10.713z" stroke="#A6A6A6" stroke-width="2" stroke-miterlimit="10"/></svg>