<svg width="80" height="67" fill="none" xmlns="http://www.w3.org/2000/svg"><path d="M.862 3.074.52 51.336a3 3 0 0 0 2.994 3.021l52.648.104a3 3 0 0 0 3.006-3.007l-.11-48.347a3 3 0 0 0-3-2.993L3.864.096A3 3 0 0 0 .862 3.074z" fill="#fff"/><path d="m9.376 45.916.124-33.16a2 2 0 0 1 2.004-1.992l8.299.016c.22 0 .44-.036.65-.107l2.793-.953a3 3 0 0 1 .968-.16h9.698c.895 0 1.779.205 2.582.601.8.394 1.68.6 2.572.601l8.172.015a2 2 0 0 1 1.996 1.994l.1 30.207a3 3 0 0 1-3.006 3.01l-4.637-.009m-.005-.404-23.034.277a2 2 0 0 1-2.024-2.004l.025-12.854-.057-4.776a5.484 5.484 0 1 1 10.966-.132l.125 10.348a3.415 3.415 0 0 0 6.829-.082l-.153-12.727a3.104 3.104 0 1 1 6.208-.075l.193 16.141" stroke="#19191B" stroke-width="2"/><path d="m34.386 34.002 20.599-.096a2.822 2.822 0 0 0 2.594-1.69l.651-1.5c.401-.968 1.449-1.644 2.594-1.641l16.157.19c1.893.005 3.282 1.85 2.63 3.592l-.852 2.373a2.777 2.777 0 0 1-2.645 1.834h-.149a2.858 2.858 0 0 0-2.644 1.738L63.295 64.265a2.785 2.785 0 0 1-2.595 1.786l-16.535-.042c-1.195-.003-2.24-.733-2.635-1.8l-9.793-26.532c-.643-1.794.706-3.68 2.649-3.675z" fill="#fff"/><path d="m74.386 35.398-5.042-.139a1.828 1.828 0 0 0-1.793 1.255L61.755 55.02c-.244.796-.953 1.278-1.793 1.255l-14.93-.41a2.219 2.219 0 0 1-2.02-1.46l-4.89-12.88c-.535-1.368.365-2.698 1.75-2.66l20.467.562c1.434.04 2.518 1.524 2.063 2.866l-4.846 14.92c-.244.796-.953 1.278-1.793 1.255l-7.169-.197c-.89-.025-1.77-.65-2.076-1.562l-3.002-8.914c-.432-1.316.422-2.597 1.806-2.56l8.108.224c1.385.038 2.462 1.422 2.106 2.767l-.597 2.191c-.24.847-.946 1.38-1.836 1.355l-4.696-.13M49.574 63.67c1.141.03 2.009-.873 1.937-2.017-.07-1.145-1.053-2.097-2.195-2.127-1.14-.03-2.008.873-1.937 2.017.071 1.144 1.054 2.096 2.195 2.127zM59.683 63.278c1.14.03 2.008-.873 1.937-2.017-.071-1.145-1.054-2.097-2.195-2.127-1.14-.03-2.008.873-1.937 2.017.071 1.144 1.054 2.097 2.195 2.127z" stroke="#A6A6A6" stroke-width="2" stroke-miterlimit="10"/></svg>