<svg width="58" height="57" fill="none" xmlns="http://www.w3.org/2000/svg"><rect x=".5" width="56.531" height="56.531" rx="7" fill="#fff"/><circle cx="18.921" cy="26.731" r="1.974" stroke="#A6A6A6" stroke-width="2"/><circle cx="18.921" cy="36.246" r="1.974" stroke="#A6A6A6" stroke-width="2"/><circle cx="28.436" cy="26.731" r="1.974" stroke="#A6A6A6" stroke-width="2"/><circle cx="28.436" cy="36.246" r="1.974" stroke="#A6A6A6" stroke-width="2"/><path d="M38.546 11.863h1.326a7 7 0 0 1 7 7v22.278a7 7 0 0 1-7 7H17.595a7 7 0 0 1-7-7V18.486a6.623 6.623 0 0 1 6.622-6.623 3.785 3.785 0 0 0 3.785-3.784v-.676" stroke="#A6A6A6" stroke-width="2"/><circle cx="37.951" cy="26.731" r="1.974" stroke="#19191B" stroke-width="2"/><circle cx="28.079" cy="26.731" r="1.974" stroke="#19191B" stroke-width="2"/><circle cx="18.405" cy="26.731" r="1.974" stroke="#A6A6A6" stroke-width="2"/><circle cx="37.951" cy="36.246" r="1.974" stroke="#A6A6A6" stroke-width="2"/><circle cx="28.079" cy="36.246" r="1.974" stroke="#19191B" stroke-width="2"/><circle cx="18.405" cy="36.246" r="1.974" stroke="#19191B" stroke-width="2"/><path d="M23.975 18.702h7.516a2 2 0 0 0 2-2v-2.244a2 2 0 0 1 2-2h1.055a2 2 0 0 0 2-2V7.403" stroke="#A6A6A6" stroke-width="2"/></svg>