<svg width="100" height="100" fill="none" xmlns="http://www.w3.org/2000/svg"><path fill="#fff" d="M0 0h100v100H0z"/><circle cx="43.5" cy="45.5" r="30.5" fill="#fff"/><path d="M47.288 39.079c-4.11-2.119-8.347.129-9.631 3.018m1.733 8.733a7.204 7.204 0 0 1-2.48-4.43m3.893 5.264c2.89 1.541 7.577.707 9.503-3.146.514-.963.77-2.055.77-3.018m-3.53 19.263c.192-.642.577-1.091 1.22-1.284.898-.321 1.861-.578 2.696-.963.899-.321 1.605-.193 2.376.385.706.578 1.348 1.092 2.119 1.605.257.193.642.45.963.514.45.129.963.064 1.413-.32 1.155-1.157 2.375-2.248 3.531-3.34.064-.064.129-.064.193-.128.064-.129.128-.193.192-.321.129-.45 0-.964-.257-1.413-.128-.193-.256-.45-.385-.642-.45-.835-.963-1.67-1.412-2.504a1.36 1.36 0 0 1 0-1.22l1.348-2.89c.385-.899 1.092-1.412 2.055-1.477a21.83 21.83 0 0 0 2.953-.385c.835-.193 1.22-.514 1.285-1.348.128-1.606.192-3.147.32-4.752.065-.835-.256-1.22-1.027-1.477l-.578-.192c-.963-.257-1.926-.514-2.89-.707-.705-.192-1.09-.513-1.348-1.156-.32-.963-.706-1.99-1.091-3.017a1.7 1.7 0 0 1 .128-1.477c.193-.257.321-.514.514-.77.578-.771 1.156-1.606 1.798-2.44.321-.45.321-.964.064-1.478-.128-.192-.193-.385-.385-.578-1.028-1.155-2.055-2.311-3.146-3.467-.386-.32-.771-.385-1.156-.257a5.25 5.25 0 0 0-1.22.578c-.77.386-1.477.9-2.183 1.349-.643.385-1.285.385-1.99.128a27.184 27.184 0 0 0-1.991-.899c-1.67-.77-1.863-1.027-2.12-2.89-.128-.834-.192-1.733-.385-2.568-.192-.834-.642-1.22-1.412-1.284-1.477-.128-3.018-.193-4.495-.257-1.092 0-1.477.257-1.734 1.284-.257.964-.513 1.99-.706 2.954-.193.77-.578 1.413-1.348 1.605-1.092.321-2.248.77-3.34 1.092-.449.128-.834 0-1.22-.193-.192-.192-.449-.32-.706-.513-.77-.578-1.605-1.156-2.44-1.798-.45-.321-.963-.321-1.476-.064-.193.128-.45.192-.578.385-1.092.963-2.184 1.99-3.34 2.953-.577.45-.642 1.028-.32 1.734.192.45.385.835.642 1.22l1.155 1.926c.386.578.386 1.22.129 1.798-.45 1.092-.963 2.055-1.477 3.147-.257.45-.578.706-.963.77-.514.064-.963.193-1.541.257-.77.064-1.541.193-2.183.321-1.028.193-1.413.578-1.477 1.67-.129 1.476-.193 2.953-.257 4.43 0 .899.385 1.413 1.22 1.67 1.092.32 2.183.577 3.339.834.642.193 1.156.578 1.348 1.285.321 1.091.77 2.118 1.092 3.21.193.514.064 1.027-.193 1.477a9.8 9.8 0 0 1-.706 1.027c-.578.706-1.092 1.349-1.541 2.12-.385.577-.321 1.283.193 1.861.385.45.706.9 1.091 1.284.707.835.707.771 1.477 1.541l1.284 1.092c.578.193 1.156-.064 1.605-.385.835-.514 1.67-.9 2.376-1.413.707-.45 1.477-.514 2.248-.064.963.514 1.926.963 2.89 1.413.449.257.705.578.77 1.027.192 1.22.385 2.504.578 3.724.064.642.449 1.028 1.091 1.156.835.128 1.734.193 2.569.321h2.632c.578 0 .963-.257 1.156-.77l.963-4.046z" stroke="#19191B" stroke-width="2" stroke-miterlimit="10"/><circle cx="67.719" cy="69.719" r="14.181" transform="rotate(-55.504 67.719 69.719)" fill="#fff"/><path d="M66.256 66.576c-1.894 1.017-2.15 3.233-1.38 4.486.734 1.41 2.331 2.037 3.803 1.635m.692-.322c1.351-.7 2.265-2.717 1.296-4.47a3.061 3.061 0 0 0-.953-1.09m6.451 6.426c-.195-.243-.266-.509-.17-.805.113-.43.268-.866.34-1.288.114-.428.35-.665.774-.808.407-.119.773-.23 1.173-.39.141-.047.341-.127.45-.234a.69.69 0 0 0 .25-.625c-.14-.748-.236-1.502-.35-2.233-.008-.041.009-.066.001-.108-.032-.058-.04-.1-.072-.158-.139-.167-.37-.254-.609-.273-.108-.002-.24-.02-.347-.022-.439-.047-.894-.07-1.332-.118a.632.632 0 0 1-.468-.321l-.752-1.278c-.243-.384-.254-.79-.025-1.176.246-.41.45-.814.63-1.233.147-.37.125-.603-.178-.847-.581-.472-1.155-.903-1.736-1.375-.303-.244-.535-.222-.837.005l-.226.17c-.352.302-.704.604-1.031.922-.26.22-.485.283-.798.212-.454-.13-.949-.253-1.444-.376a.79.79 0 0 1-.532-.438c-.048-.142-.112-.258-.16-.4-.143-.424-.31-.865-.462-1.331-.087-.242-.284-.377-.549-.414-.107-.001-.198-.027-.323-.004-.713.09-1.426.178-2.157.292-.224.063-.35.194-.402.376a2.437 2.437 0 0 0-.1.62c-.056.396-.045.802-.058 1.191-.022.347-.191.593-.475.797-.292.161-.601.347-.869.526-.735.436-.884.443-1.665.05-.354-.17-.715-.382-1.086-.528-.37-.146-.636-.075-.864.203-.438.532-.869 1.106-1.282 1.655-.287.418-.29.634.036 1.002.301.353.627.721.946 1.049.244.276.389.593.26.94-.165.502-.297 1.063-.461 1.566-.07.206-.22.32-.395.417-.125.023-.242.088-.383.135-.425.143-.866.311-1.332.462-.241.088-.376.284-.413.549-.002.108-.045.223-.005.323.082.672.188 1.36.253 2.057.02.34.224.517.58.58.223.044.421.072.636.075l1.043.064a.842.842 0 0 1 .722.424c.3.46.534.91.817 1.395.105.216.119.407.042.572-.11.213-.18.42-.307.658a9.178 9.178 0 0 0-.452.921c-.197.444-.15.693.25 1.005.533.439 1.082.852 1.63 1.266.345.236.644.224.962-.028.41-.334.796-.685 1.199-1.06.243-.195.526-.29.847-.179.503.165 1.015.263 1.518.428.247.061.41.246.515.462.072.159.152.358.207.541.119.408.23.774.407 1.149.12.3.407.461.764.416.274-.029.53-.034.78-.08.505-.05.48-.067.979-.16l.756-.204c.226-.171.28-.46.275-.717.023-.455.096-.876.085-1.282.013-.39.192-.702.567-.879.45-.233.876-.484 1.302-.735.217-.104.407-.118.597-.024.518.247 1.06.511 1.579.759.263.144.512.098.73-.114.27-.286.53-.614.8-.9l.693-1.009c.152-.221.155-.436.009-.645l-1.297-1.435z" stroke="#A6A6A6" stroke-width="2" stroke-miterlimit="10"/></svg>