<svg width="100" height="100" fill="none" xmlns="http://www.w3.org/2000/svg"><path fill="#fff" d="M0 0h100v100H0z"/><path d="m13.362 20.074-.34 48.262a3 3 0 0 0 2.993 3.021l52.648.104a3 3 0 0 0 3.006-3.007l-.11-48.347a3 3 0 0 0-3-2.993l-52.196-.018a3 3 0 0 0-3.001 2.978z" fill="#fff"/><path d="M21.877 62.916 22 29.756a2 2 0 0 1 2.004-1.992l8.3.016c.22 0 .44-.036.649-.107l2.793-.953c.312-.106.639-.16.968-.16h9.698c.896 0 1.78.205 2.582.601.8.394 1.68.6 2.572.601l8.172.015a2 2 0 0 1 1.997 1.994l.1 30.207a3 3 0 0 1-3.007 3.01l-4.637-.009m-.005-.404-23.034.277a2 2 0 0 1-2.024-2.004l.026-12.854-.058-4.776a5.484 5.484 0 1 1 10.966-.132l.125 10.348a3.415 3.415 0 1 0 6.829-.082l-.153-12.727a3.104 3.104 0 1 1 6.208-.075l.194 16.141" stroke="#19191B" stroke-width="2"/><path d="m46.886 51.002 20.599-.096a2.821 2.821 0 0 0 2.594-1.69l.652-1.5c.4-.968 1.448-1.644 2.594-1.641l16.156.19c1.893.005 3.283 1.85 2.63 3.592l-.852 2.373a2.777 2.777 0 0 1-2.644 1.834h-.15a2.858 2.858 0 0 0-2.644 1.738L75.795 81.265a2.785 2.785 0 0 1-2.594 1.786l-16.536-.042c-1.195-.003-2.239-.733-2.635-1.8l-9.793-26.532c-.643-1.794.707-3.68 2.649-3.675z" fill="#fff"/><path d="m84.693 51.655-4.743-.037c-.79-.006-1.4.56-1.56 1.335L74.75 72.187c-.152.827-.77 1.34-1.56 1.334l-14.041-.11c-.837-.006-1.669-.582-2.036-1.465l-5.834-13.198c-.634-1.403.081-2.796 1.383-2.786l19.249.15c1.348.011 2.509 1.522 2.212 2.918l-3.098 15.51c-.152.827-.77 1.34-1.56 1.334l-6.742-.052c-.837-.007-1.723-.635-2.099-1.57l-3.679-9.143c-.532-1.35.145-2.691 1.446-2.681l7.626.06c1.301.01 2.446 1.417 2.243 2.813l-.348 2.276c-.143.88-.753 1.444-1.59 1.437l-4.417-.034M62.261 80.71c1.038.008 1.738-.931 1.563-2.098-.174-1.167-1.157-2.12-2.194-2.127-1.038-.008-1.738.932-1.564 2.099.174 1.166 1.157 2.119 2.195 2.126zM72.37 80.319c1.038.007 1.738-.932 1.563-2.1-.174-1.166-1.157-2.118-2.195-2.126-1.037-.008-1.737.932-1.563 2.099.174 1.167 1.157 2.119 2.195 2.127z" stroke="#A6A6A6" stroke-width="2" stroke-miterlimit="10"/></svg>