<svg width="70" height="69" fill="none" xmlns="http://www.w3.org/2000/svg"><circle cx="34.952" cy="34.452" r="34.452" fill="#19191B"/><path d="M41.48 43.338H29.076v-2.685l5.713-6.006c1.408-1.603 2.112-2.877 2.112-3.82 0-.766-.167-1.348-.5-1.746-.334-.4-.819-.599-1.453-.599-.627 0-1.136.269-1.526.806-.39.53-.586 1.192-.586 1.99H28.71c0-1.09.272-2.096.818-3.015a5.723 5.723 0 0 1 2.27-2.173c.969-.521 2.051-.781 3.247-.781 1.92 0 3.398.443 4.431 1.33 1.042.887 1.563 2.16 1.563 3.821 0 .7-.13 1.383-.39 2.05-.261.66-.668 1.356-1.221 2.088-.546.724-1.429 1.697-2.65 2.918l-2.294 2.649h6.994v3.173z" fill="#fff"/></svg>