<svg width="70" height="69" fill="none" xmlns="http://www.w3.org/2000/svg"><circle cx="34.952" cy="34.452" r="34.452" fill="#19191B"/><path d="M33.392 32.73h1.941c1.538 0 2.308-.752 2.308-2.258 0-.586-.184-1.062-.55-1.428-.366-.374-.883-.562-1.55-.562-.545 0-1.021.16-1.428.477-.4.317-.599.712-.599 1.184h-4.113c0-.936.26-1.77.781-2.503.52-.732 1.241-1.302 2.16-1.709.928-.415 1.946-.622 3.052-.622 1.978 0 3.532.451 4.663 1.355 1.132.903 1.697 2.144 1.697 3.723 0 .765-.236 1.489-.708 2.173-.464.675-1.143 1.224-2.038 1.648.944.341 1.684.862 2.221 1.562.538.692.806 1.55.806 2.576 0 1.587-.61 2.856-1.831 3.808-1.22.952-2.824 1.428-4.81 1.428a7.987 7.987 0 0 1-3.247-.659c-.992-.447-1.745-1.062-2.258-1.843-.513-.79-.769-1.684-.769-2.685h4.138c0 .545.22 1.017.66 1.415.439.4.98.599 1.623.599.724 0 1.302-.2 1.733-.599.432-.406.647-.923.647-1.55 0-.895-.224-1.53-.671-1.904-.448-.374-1.066-.562-1.856-.562h-2.002v-3.063z" fill="#fff"/></svg>