<svg width="70" height="69" viewBox="0 0 70 69" fill="none" xmlns="http://www.w3.org/2000/svg">
<circle cx="34.9516" cy="34.4518" r="34.4518" fill="#19191B"/>
<path d="M41.4794 43.3384H29.077V40.6528L34.7899 34.647C36.1978 33.0438 36.9017 31.7702 36.9017 30.8262C36.9017 30.0612 36.7349 29.4793 36.4012 29.0806C36.0676 28.6818 35.5834 28.4824 34.9486 28.4824C34.322 28.4824 33.8133 28.751 33.4227 29.2881C33.0321 29.8171 32.8368 30.4803 32.8368 31.2778H28.7108C28.7108 30.1873 28.9834 29.1823 29.5287 28.2627C30.0739 27.335 30.8308 26.6107 31.7992 26.0898C32.7676 25.569 33.85 25.3086 35.0463 25.3086C36.9668 25.3086 38.4439 25.7521 39.4774 26.6392C40.5191 27.5262 41.0399 28.7998 41.0399 30.46C41.0399 31.1598 40.9097 31.8434 40.6493 32.5107C40.3889 33.1699 39.982 33.8657 39.4286 34.5981C38.8833 35.3224 38.0004 36.2949 36.7797 37.5156L34.4847 40.1646H41.4794V43.3384Z" fill="white"/>
</svg>
