<svg width="70" height="69" viewBox="0 0 70 69" fill="none" xmlns="http://www.w3.org/2000/svg">
<circle cx="34.9516" cy="34.4518" r="34.4518" fill="#19191B"/>
<path d="M33.3924 32.7305H35.3334C36.8714 32.7305 37.6405 31.9777 37.6405 30.4722C37.6405 29.8862 37.4574 29.4102 37.0912 29.0439C36.725 28.6696 36.2082 28.4824 35.5409 28.4824C34.9956 28.4824 34.5196 28.6411 34.1127 28.9585C33.7139 29.2759 33.5145 29.6706 33.5145 30.1426H29.4007C29.4007 29.2067 29.6612 28.3726 30.182 27.6401C30.7028 26.9077 31.423 26.3381 32.3426 25.9312C33.2704 25.5161 34.2876 25.3086 35.3944 25.3086C37.3719 25.3086 38.9263 25.7603 40.0575 26.6636C41.1887 27.5669 41.7543 28.8079 41.7543 30.3867C41.7543 31.1517 41.5183 31.876 41.0463 32.5596C40.5824 33.235 39.9029 33.7843 39.0077 34.2075C39.9517 34.5493 40.6922 35.0701 41.2294 35.77C41.7665 36.4618 42.035 37.3203 42.035 38.3457C42.035 39.9326 41.4247 41.2021 40.204 42.1543C38.9833 43.1064 37.3801 43.5825 35.3944 43.5825C34.2307 43.5825 33.1483 43.3628 32.1473 42.9233C31.1545 42.4757 30.4017 41.8613 29.889 41.0801C29.3763 40.2907 29.12 39.3955 29.12 38.3945H33.2582C33.2582 38.9398 33.4779 39.4118 33.9173 39.8105C34.3568 40.2093 34.898 40.4087 35.5409 40.4087C36.2652 40.4087 36.843 40.2093 37.2743 39.8105C37.7056 39.4036 37.9213 38.8869 37.9213 38.2603C37.9213 37.3651 37.6975 36.7303 37.2499 36.356C36.8023 35.9816 36.1838 35.7944 35.3944 35.7944H33.3924V32.7305Z" fill="white"/>
</svg>
