<svg width="186" height="167" viewBox="0 0 186 167" fill="none" xmlns="http://www.w3.org/2000/svg">
<path d="M99.2082 113.341C99.8942 105.795 101.884 89.0571 104.353 82.4716C106.823 75.8861 112.471 68.9805 114.986 66.3508C113.614 62.8065 110.458 54.4146 108.812 49.2011C106.754 42.6842 106.041 41.4743 104.353 36.1672C102.764 31.1694 103.489 26.7215 104.001 24.8047C103.63 24.4232 103.283 24.0729 103.028 23.8194C100.819 23.2889 96.0384 21.8663 94.5923 20.4202C92.7846 18.6125 89.1692 10.7792 89.7718 10.7792C90.3743 10.7792 94.4725 10.1766 99.4128 8.97147C104.353 7.76634 116.452 0.53557 125.323 1.13813C134.194 1.7407 140.387 4.75352 144.003 7.16378C147.618 9.57404 153.644 14.9971 152.438 24.6381C151.474 32.351 150.028 38.698 149.426 40.9074L147.882 45.5396C147.957 46.2239 148.047 46.8809 148.154 47.5C148.398 48.918 150.374 50.7207 150.564 51.7179L155.802 53.66L159.575 63.2639C167.35 65.2075 183.484 76.1803 184.307 89.0769C185.131 101.973 182.5 132.461 177.411 151.414L105.725 139.409L99.2082 113.341Z" fill="url(#paint0_linear)"/>
<path d="M84.8062 161.725L87.3663 164.285L33.7319 165.822L13.123 138.3" stroke="#19191B" stroke-width="2" stroke-miterlimit="10" stroke-linecap="round" stroke-linejoin="round"/>
<path d="M52.5068 142.672L46.5322 143.068L57.658 155.55L69.4322 154.446L64.649 148.927" stroke="#19191B" stroke-width="2" stroke-miterlimit="10" stroke-linecap="round" stroke-linejoin="round"/>
<path d="M27.8438 140.476L40.0043 140.22L58.4371 161.213L33.732 161.981" stroke="#19191B" stroke-width="2" stroke-miterlimit="10" stroke-linecap="round" stroke-linejoin="round"/>
<path d="M33.7319 165.821L21.5713 116.539L1.73047 96.9541L13.123 138.3L33.7319 165.821Z" stroke="#19191B" stroke-width="2" stroke-miterlimit="10" stroke-linecap="round" stroke-linejoin="round"/>
<path d="M116.161 66.8745C98.1318 74.2334 99.7824 113.594 99.7824 113.594L96.66 115.811L93.7164 117.651C93.7164 117.651 84.8857 122.802 84.8857 125.378" stroke="#19191B" stroke-width="2" stroke-miterlimit="10" stroke-linecap="round" stroke-linejoin="round"/>
<path d="M133.832 80.0563C133.832 80.0563 142.024 75.7041 146.761 69.3038C152.009 62.3915 156.489 54.3272 156.489 54.3272L149.961 51.3831" stroke="#19191B" stroke-width="2" stroke-miterlimit="10" stroke-linecap="round" stroke-linejoin="round"/>
<path d="M127.267 72.0626L127.176 66.2324C127.176 66.2324 121.928 68.4085 118.728 68.0245C115.527 67.5125 110.82 58.2538 109.431 53.1978C108.042 48.1419 107.208 42.221 105.031 37.4312C105.031 37.4312 101.447 26.0387 104.391 24.2466" stroke="#19191B" stroke-width="2" stroke-miterlimit="10" stroke-linecap="round" stroke-linejoin="round"/>
<path d="M152.777 60.6001C151.369 58.168 151.113 54.7119 149.961 51.5117" stroke="#19191B" stroke-width="2" stroke-miterlimit="10" stroke-linecap="round" stroke-linejoin="round"/>
<path d="M112.711 41.5273L111.559 52.4078L117.96 51.1278" stroke="#19191B" stroke-width="2" stroke-miterlimit="10" stroke-linecap="round" stroke-linejoin="round"/>
<path d="M133.832 80.0567C133.832 80.0567 136.184 89.5291 139.336 89.5291C142.488 89.5291 154.313 76.0885 157.001 70.2003C159.689 64.184 159.689 64.184 159.689 64.184L156.489 54.4556" stroke="#19191B" stroke-width="2" stroke-miterlimit="10" stroke-linecap="round" stroke-linejoin="round"/>
<path d="M159.177 87.4812L154.185 130.747C154.185 137.477 142.922 139.056 130.511 141.2C118.604 143.257 105.639 145.991 100.55 147.004C100.55 147.004 82.3736 144.572 80.9655 144.956C79.4295 145.468 75.3333 149.308 73.7972 150.588C72.2612 151.868 66.2449 157.5 67.2689 158.908C68.293 160.444 72.5172 156.86 72.5172 156.86C72.5172 156.86 68.805 162.108 70.8531 161.596C72.9012 161.084 75.3333 158.268 75.3333 158.268L79.1735 155.836C79.1735 155.836 74.4373 161.98 75.9733 161.724C77.5094 161.468 80.1975 159.548 80.1975 159.548L81.9896 158.524C81.9896 158.524 78.7894 161.724 80.4535 162.236C82.2456 162.748 85.9578 158.78 85.9578 158.78L89.1579 156.732C89.1579 156.732 91.846 158.524 96.0702 157.244C100.294 155.964 103.239 154.812 103.239 154.812C103.239 154.812 163.401 160.316 167.369 159.036C171.337 157.756 175.178 157.5 176.33 155.324C176.842 154.172 190.282 100.794 182.602 83.001C174.922 65.2082 159.689 64.0562 159.689 64.0562" stroke="#19191B" stroke-width="2" stroke-miterlimit="10" stroke-linecap="round" stroke-linejoin="round"/>
<path d="M124.487 142.139L100.55 146.875L111.687 144.699C113.479 146.491 115.527 149.82 115.783 155.964C119.367 156.22 123.591 156.604 127.944 156.988" stroke="#19191B" stroke-width="2" stroke-miterlimit="10" stroke-linecap="round" stroke-linejoin="round"/>
<path d="M111.687 144.7L100.55 146.876C100.55 146.876 82.3736 144.444 80.9655 144.828C79.4295 145.34 75.3333 149.18 73.7972 150.46C72.2612 151.74 66.2449 157.372 67.2689 158.78C68.293 160.316 72.5172 156.732 72.5172 156.732C72.5172 156.732 68.805 161.98 70.8531 161.468C72.9012 160.956 75.3333 158.14 75.3333 158.14L79.1735 155.708C79.1735 155.708 74.4373 161.852 75.9733 161.596C77.5094 161.34 80.1975 159.42 80.1975 159.42L81.9896 158.396C81.9896 158.396 78.7894 161.596 80.4535 162.108C82.2456 162.62 85.9578 158.652 85.9578 158.652L89.1579 156.604C89.1579 156.604 91.846 158.396 96.0702 157.116C100.294 155.836 103.239 154.684 103.239 154.684C103.239 154.684 108.359 155.196 115.783 155.836C115.527 149.82 113.479 146.364 111.687 144.7Z" stroke="#19191B" stroke-width="2" stroke-miterlimit="10" stroke-linecap="round" stroke-linejoin="round"/>
<path d="M81.8616 158.524C81.8616 158.524 86.2138 154.044 88.0058 153.404" stroke="#19191B" stroke-width="2" stroke-miterlimit="10" stroke-linecap="round" stroke-linejoin="round"/>
<path d="M79.1733 155.836C79.1733 155.836 83.6535 150.844 85.4456 150.332" stroke="#19191B" stroke-width="2" stroke-miterlimit="10" stroke-linecap="round" stroke-linejoin="round"/>
<path d="M72.3892 156.732C72.3892 156.732 79.4295 148.668 81.9896 147.644" stroke="#19191B" stroke-width="2" stroke-miterlimit="10" stroke-linecap="round" stroke-linejoin="round"/>
<path d="M84.8059 125.627L79.1737 132.795C79.1737 132.795 61.8929 133.435 58.9488 134.075C56.0046 134.843 52.2925 143.42 52.2925 145.084C52.2925 146.876 54.0846 146.62 54.8526 145.468C55.7486 144.316 58.3087 138.939 58.3087 138.939C58.3087 138.939 55.3646 147.388 55.3646 148.284C55.3646 149.18 57.2847 148.284 57.2847 148.284C57.2847 148.284 57.1567 150.076 58.1807 150.46C59.2048 150.844 61.5089 149.436 61.5089 149.436C61.5089 149.436 62.1489 150.588 63.813 149.564C65.6051 148.54 69.8293 141.755 70.9813 140.987C72.1334 140.219 75.4615 140.859 75.4615 140.859C75.4615 140.859 72.1334 142.395 70.8533 145.212C69.5732 148.028 69.8293 148.796 70.7253 148.54C71.6213 148.284 74.5655 145.34 76.2295 144.444C78.0216 143.548 82.3738 143.804 83.6539 143.292C84.9339 142.652 96.7104 136.379 96.7104 136.379C96.7104 136.379 96.5824 129.851 92.6143 127.163C88.6461 124.475 84.8059 125.627 84.8059 125.627Z" stroke="#19191B" stroke-width="2" stroke-miterlimit="10" stroke-linecap="round" stroke-linejoin="round"/>
<path d="M90.5663 139.708C93.7665 138.044 96.7106 136.38 96.7106 136.38C96.7106 136.38 96.5826 129.851 92.6144 127.163C88.6463 124.603 84.8061 125.627 84.8061 125.627L81.2219 130.107" stroke="#19191B" stroke-width="2" stroke-miterlimit="10" stroke-linecap="round" stroke-linejoin="round"/>
<path d="M79.0457 132.667C79.0457 132.667 83.3978 132.411 84.6779 135.612" stroke="#19191B" stroke-width="2" stroke-miterlimit="10" stroke-linecap="round" stroke-linejoin="round"/>
<path d="M57.2847 148.284L62.6609 136.635" stroke="#19191B" stroke-width="2" stroke-miterlimit="10" stroke-linecap="round" stroke-linejoin="round"/>
<path d="M61.5088 149.436L66.501 137.403" stroke="#19191B" stroke-width="2" stroke-miterlimit="10" stroke-linecap="round" stroke-linejoin="round"/>
<path d="M58.3086 138.94L59.7167 136.252" stroke="#19191B" stroke-width="2" stroke-miterlimit="10" stroke-linecap="round" stroke-linejoin="round"/>
<path d="M133.704 29.1111C134.488 31.6509 135.434 34.1381 136.264 36.6634C136.264 36.6634 138.585 36.0483 140.616 35.5113C138.952 32.8232 138.952 28.471 142.024 27.063C144.759 25.8095 147.657 26.935 147.657 32.1832C147.657 35.2497 146.526 38.9861 144.125 40.0151C143.782 42.4161 144.969 44.5997 144.969 44.5997C144.969 44.5997 147.401 47.5439 147.913 46.3918C148.425 45.1118 160.073 17.8466 144.841 8.11814C134.344 1.46185 122.056 -0.842252 109.127 5.43002C96.1985 11.7023 89.6702 11.1903 89.6702 11.1903C89.6702 11.1903 89.6098 16.6602 94.0846 20.1461C99.0564 24.0191 101.811 24.3865 106.344 24.3865C112.518 24.0435 125.768 23.0948 130.248 25.5269C132.754 26.7874 133.345 27.9484 133.704 29.1111Z" stroke="#19191B" stroke-width="2" stroke-miterlimit="10" stroke-linecap="round" stroke-linejoin="round"/>
<path d="M149.561 51.4828L147.846 46.3379" stroke="#19191B" stroke-width="2"/>
<path d="M116.935 58.168C119.239 58.168 121.544 57.656 123.72 56.8879" stroke="#19191B" stroke-width="2" stroke-miterlimit="10" stroke-linecap="round" stroke-linejoin="round"/>
<path d="M122.696 42.8072C123.403 42.8072 123.976 42.2341 123.976 41.5271C123.976 40.8202 123.403 40.2471 122.696 40.2471C121.989 40.2471 121.416 40.8202 121.416 41.5271C121.416 42.2341 121.989 42.8072 122.696 42.8072Z" fill="#19191B"/>
<path d="M109.767 44.4712C110.474 44.4712 111.047 43.8981 111.047 43.1912C111.047 42.4842 110.474 41.9111 109.767 41.9111C109.06 41.9111 108.487 42.4842 108.487 43.1912C108.487 43.8981 109.06 44.4712 109.767 44.4712Z" fill="#19191B"/>
<path d="M116.977 38.2463C119.025 36.3262 122.097 35.9421 124.913 36.0702" stroke="#19191B" stroke-width="2" stroke-miterlimit="10" stroke-linecap="round" stroke-linejoin="round"/>
<path d="M106.567 40.7593C108.103 39.8632 109.895 39.3512 111.687 39.0952" stroke="#19191B" stroke-width="2" stroke-miterlimit="10" stroke-linecap="round" stroke-linejoin="round"/>
<path d="M27.8438 137.404C28.2278 137.404 53.9569 137.02 53.9569 137.02" stroke="#19191B" stroke-width="2" stroke-miterlimit="10" stroke-linecap="round" stroke-linejoin="round"/>
<path d="M115.399 86.0735C114.247 91.9617 115.015 97.978 115.271 103.866C115.399 108.346 115.143 112.699 114.759 117.179C114.247 124.219 113.863 131.259 113.351 138.172" stroke="#19191B" stroke-width="2" stroke-miterlimit="10" stroke-linecap="round" stroke-linejoin="round"/>
<path d="M97.0281 136.785C99.9716 140.096 113.458 131.025 113.586 130.897" stroke="#19191B" stroke-width="2" stroke-miterlimit="10" stroke-linecap="round" stroke-linejoin="round"/>
<path d="M157.641 135.611C160.073 138.171 163.401 139.708 165.577 142.524C166.73 143.932 167.498 145.596 168.266 147.26" stroke="#19191B" stroke-width="2" stroke-miterlimit="10" stroke-linecap="round" stroke-linejoin="round"/>
<path d="M76.9334 115.234C78.7665 116.359 81.1346 115.743 82.2259 113.861C83.3172 111.979 82.7109 109.541 80.8707 108.423C80.7779 108.363 80.6781 108.316 80.5782 108.269C80.9634 107.204 81.2558 106.126 81.4698 105.034C81.5768 105.047 81.6838 105.054 81.7908 105.054C83.9306 105.081 85.6852 103.326 85.7066 101.13C85.728 98.9396 84.0162 97.1447 81.8764 97.1246C81.7622 97.1246 81.6552 97.1313 81.5483 97.138C81.3628 96.033 81.0918 94.948 80.7351 93.8832C80.835 93.8363 80.9349 93.7894 81.0347 93.7292C82.8963 92.6509 83.5597 90.2265 82.5112 88.3245C81.4627 86.4225 79.1089 85.7595 77.2544 86.8378C77.1617 86.8913 77.069 86.9516 76.9834 87.0186C76.2915 86.168 75.5283 85.3711 74.7009 84.6344C74.7651 84.5406 74.8222 84.4536 74.8792 84.3531C75.9634 82.4645 77.3685 80.4219 75.5212 79.3503C71.2559 76.8724 69.3443 78.4864 68.2673 80.3683C68.2102 80.4687 68.1603 80.5625 68.1175 80.663C67.0904 80.2812 66.0419 79.9865 64.9934 79.7789C65.0006 79.6718 65.0148 79.5579 65.0148 79.4508C65.0433 77.2742 65.7281 76.1558 63.6168 75.9214C59.0163 75.4124 57.4043 77.2474 57.3829 79.4173C57.3829 79.5311 57.39 79.645 57.3972 79.7521C56.3344 79.9531 55.293 80.2343 54.2731 80.6027C54.2303 80.5022 54.1804 80.4018 54.1304 80.3013C53.1033 78.4194 50.7924 77.7631 48.9664 78.8413C47.1404 79.9196 46.4985 82.3105 47.5185 84.1924C47.5684 84.2861 47.6255 84.3799 47.6897 84.467C46.8765 85.1769 46.1062 85.9604 45.4001 86.8043C45.3145 86.744 45.2289 86.677 45.1362 86.6235C43.3459 85.5318 41.0278 86.1546 39.965 88.0232C38.9023 89.885 39.4943 92.2826 41.2846 93.3809C41.3773 93.4345 41.47 93.4881 41.5699 93.5349C41.199 94.5864 40.9065 95.658 40.6997 96.7295C40.5927 96.7228 40.4928 96.7094 40.3858 96.7094C38.3031 96.6893 36.6056 98.4239 36.577 100.58C36.5485 102.737 38.2175 104.512 40.2931 104.532C40.4001 104.532 40.5071 104.525 40.6141 104.518C40.7995 105.61 41.0634 106.682 41.4058 107.733C41.306 107.78 41.2132 107.827 41.1134 107.88C39.3017 108.938 38.6526 111.323 39.6726 113.211C40.6925 115.1 44.2303 116.299 46.0492 115.241C46.1419 115.187 44.9935 114.604 45.0791 114.544C45.7567 115.388 46.5056 116.185 47.3188 116.928C47.2546 117.015 47.1975 117.109 47.1404 117.203C46.0706 119.065 46.6626 121.469 48.4671 122.587C50.2645 123.706 52.5969 123.103 53.6668 121.241C53.7239 121.147 53.7738 121.047 53.8166 120.947C54.8366 121.342 55.8779 121.65 56.9193 121.871C56.9122 121.978 56.8979 122.092 56.8979 122.199C56.8694 124.375 58.5598 126.17 60.6639 126.204C62.7752 126.244 64.5084 124.509 64.5298 122.333C64.5298 122.219 64.5227 122.105 64.5155 121.998C65.5854 121.81 66.6339 121.543 67.661 121.188C67.7038 121.288 67.7537 121.389 67.8037 121.489C68.8379 123.398 71.1845 124.087 73.0319 123.029C74.8864 121.971 75.5426 119.56 74.5012 117.645C74.4513 117.544 74.3871 117.457 74.33 117.364C75.1574 116.654 75.942 115.877 76.6624 115.026C76.748 115.113 76.8407 115.174 76.9334 115.234Z" stroke="#A6A6A6" stroke-width="2" stroke-miterlimit="10"/>
<path d="M78.931 115.662C80.7641 116.788 83.1393 116.171 84.2306 114.29C85.3219 112.408 84.7156 109.97 82.8754 108.851C82.7827 108.791 82.6828 108.744 82.5829 108.697C82.9681 107.633 83.2605 106.554 83.4745 105.463C83.5815 105.476 83.6885 105.483 83.7955 105.483C85.9353 105.51 87.697 103.748 87.7184 101.558C87.7398 99.3615 86.028 97.5667 83.8882 97.5466C83.7741 97.5466 83.6671 97.5533 83.5601 97.56C83.3747 96.4549 83.1036 95.3633 82.747 94.3051C82.8468 94.2583 82.9467 94.2114 83.0466 94.1511C84.9082 93.0729 85.5715 90.6485 84.523 88.7398C83.4745 86.8378 81.1136 86.1681 79.2591 87.253C79.1664 87.3066 79.0737 87.3669 78.9881 87.4338C78.2962 86.5833 77.533 85.7863 76.6985 85.0496C76.7627 84.9559 76.8198 84.8688 76.8768 84.7684C77.961 82.8797 77.3619 80.4554 75.5288 79.357C73.7028 78.2587 71.3419 78.8949 70.2578 80.7835C70.2007 80.884 70.1508 80.9777 70.108 81.0782C69.0809 80.6965 68.0324 80.4018 66.9767 80.1942C66.9839 80.087 66.9981 79.9732 66.9981 79.866C67.0267 77.6894 65.3291 75.9147 63.2178 75.908C61.1066 75.9013 59.3805 77.6559 59.352 79.8325C59.352 79.9464 59.3591 80.0602 59.3662 80.1674C58.3035 80.3683 57.255 80.6496 56.235 81.0179C56.1922 80.9175 56.1423 80.817 56.0924 80.7166C55.0653 78.8346 52.7472 78.1783 50.9212 79.2566C49.0952 80.3348 48.4462 82.7324 49.4733 84.6143C49.5232 84.7081 49.5803 84.8018 49.6445 84.8889C48.8313 85.5988 48.061 86.3824 47.3478 87.2329C47.2622 87.1726 47.1766 87.1057 47.0767 87.0521C45.2793 85.9604 42.9612 86.5833 41.8984 88.4518C40.8357 90.3136 41.4277 92.7179 43.218 93.8095C43.3107 93.8631 43.4034 93.9167 43.5033 93.9636C43.1324 95.015 42.8399 96.0866 42.6331 97.1648C42.5261 97.1581 42.4262 97.1447 42.3192 97.1447C40.2365 97.1247 38.5318 98.8592 38.5033 101.022C38.4748 103.186 40.1438 104.954 42.2265 104.98C42.3335 104.98 42.4405 104.974 42.5475 104.967C42.7329 106.059 42.9968 107.137 43.3392 108.182C43.2394 108.229 43.1466 108.275 43.0468 108.329C41.228 109.38 40.586 111.765 41.606 113.653C42.626 115.542 44.9298 116.218 46.7486 115.167C46.8413 115.113 46.9269 115.053 47.0196 114.993C47.6972 115.837 48.4462 116.64 49.2664 117.377C49.2022 117.464 49.1452 117.558 49.0881 117.652C48.0182 119.513 48.6102 121.924 50.4148 123.036C52.2193 124.154 54.5517 123.552 55.6216 121.69C55.6787 121.596 55.7286 121.496 55.7714 121.395C56.7914 121.79 57.8327 122.098 58.8812 122.319C58.8741 122.427 58.8598 122.54 58.8598 122.648C58.8313 124.824 60.5217 126.619 62.633 126.659C64.7442 126.699 66.4775 124.965 66.506 122.782C66.506 122.668 66.4989 122.554 66.4917 122.447C67.5616 122.259 68.6101 121.991 69.6443 121.636C69.6871 121.737 69.7371 121.837 69.7941 121.938C70.8355 123.846 73.175 124.536 75.0295 123.478C76.884 122.42 77.5473 120.009 76.4988 118.094C76.4489 117.993 76.3847 117.906 76.3276 117.812C77.155 117.102 77.9396 116.319 78.6671 115.468C78.7456 115.542 78.8383 115.609 78.931 115.662ZM55.8498 113.573C49.3021 109.541 47.148 100.795 51.0282 94.0172C54.9155 87.2262 63.4104 84.9358 70.0152 88.934C76.6486 92.9523 78.8454 101.766 74.9011 108.597C70.9639 115.408 62.4333 117.625 55.8498 113.573Z" fill="white" stroke="#A6A6A6" stroke-width="2" stroke-miterlimit="10"/>
<path d="M38.9628 70.8338C39.8873 71.3841 41.0852 71.0828 41.6356 70.1624C42.1859 69.242 41.8802 68.0497 40.9521 67.5028C40.9053 67.4733 40.855 67.4503 40.8046 67.4274C40.9989 66.9066 41.1463 66.3793 41.2543 65.8454C41.3082 65.852 41.3622 65.8552 41.4161 65.8552C42.4953 65.8683 43.3838 65.0069 43.3946 63.9359C43.4054 62.8615 42.5421 61.9837 41.4629 61.9739C41.4053 61.9739 41.3514 61.9772 41.2974 61.9804C41.2039 61.44 41.0672 60.9061 40.8873 60.3886C40.9377 60.3657 40.9881 60.3428 41.0384 60.3133C41.9773 59.7859 42.3118 58.6003 41.7831 57.6668C41.2543 56.7366 40.0636 56.409 39.1283 56.9396C39.0815 56.9658 39.0348 56.9953 38.9916 57.0281C38.6427 56.6121 38.2578 56.2223 37.8369 55.862C37.8693 55.8162 37.898 55.7736 37.9268 55.7245C38.4736 54.8008 38.1714 53.6151 37.2469 53.0779C36.326 52.5408 35.1354 52.8519 34.5886 53.7756C34.5598 53.8247 34.5346 53.8706 34.513 53.9197C33.995 53.733 33.4662 53.5889 32.9338 53.4874C32.9374 53.435 32.9446 53.3793 32.9446 53.3269C32.959 52.2624 32.1029 51.3944 31.0381 51.3911C29.9733 51.3878 29.1028 52.246 29.0884 53.3105C29.0884 53.3662 29.092 53.4219 29.0956 53.4743C28.5596 53.5725 28.0308 53.7101 27.5164 53.8902C27.4948 53.8411 27.4696 53.792 27.4445 53.7429C26.9265 52.8225 25.7574 52.5015 24.8365 53.0288C23.9156 53.5562 23.5882 54.7287 24.1062 55.6491C24.1314 55.695 24.1602 55.7408 24.1926 55.7834C23.7825 56.1306 23.394 56.5138 23.0342 56.9298C22.9911 56.9003 22.9479 56.8676 22.8975 56.8414C21.991 56.3075 20.8219 56.6121 20.286 57.5259C19.75 58.4365 20.0485 59.6123 20.9514 60.1462C20.9982 60.1724 21.045 60.1986 21.0953 60.2216C20.9083 60.7358 20.7608 61.2599 20.6565 61.7872C20.6025 61.7839 20.5521 61.7774 20.4982 61.7774C19.4478 61.7675 18.5881 62.6159 18.5737 63.6738C18.5593 64.7318 19.401 65.5965 20.4514 65.6096C20.5054 65.6096 20.5593 65.6063 20.6133 65.603C20.7068 66.1369 20.8399 66.6643 21.0126 67.1752C20.9622 67.1981 20.9155 67.2211 20.8651 67.2473C19.9478 67.7615 19.6241 68.9275 20.1385 69.8512C20.6529 70.7749 21.8148 71.1057 22.7321 70.5914C22.7788 70.5652 22.822 70.5358 22.8688 70.5063C23.2105 70.919 23.5882 71.312 24.0019 71.6723C23.9695 71.7149 23.9407 71.7608 23.912 71.8066C23.3724 72.7172 23.671 73.8963 24.5811 74.44C25.4912 74.987 26.6675 74.6922 27.207 73.7817C27.2358 73.7358 27.261 73.6867 27.2826 73.6376C27.797 73.8308 28.3222 73.9815 28.851 74.0896C28.8474 74.142 28.8402 74.1976 28.8402 74.2501C28.8258 75.3146 29.6783 76.1924 30.7431 76.212C31.8079 76.2317 32.682 75.3833 32.6964 74.3156C32.6964 74.2599 32.6928 74.2042 32.6892 74.1518C33.2288 74.0601 33.7576 73.9291 34.2792 73.7555C34.3008 73.8046 34.326 73.8537 34.3548 73.9029C34.88 74.8363 36.0598 75.1737 36.9951 74.6562C37.9304 74.1387 38.265 72.9595 37.7362 72.0228C37.711 71.9737 37.6786 71.9311 37.6498 71.8852C38.0671 71.538 38.4628 71.1548 38.8297 70.7388C38.8693 70.7749 38.9161 70.8076 38.9628 70.8338ZM27.3222 69.8119C24.0199 67.8401 22.9335 63.5625 24.8904 60.2478C26.8509 56.9265 31.1352 55.8063 34.4663 57.7618C37.8117 59.727 38.9197 64.0374 36.9304 67.3783C34.9447 70.7094 30.6424 71.7935 27.3222 69.8119Z" fill="white" stroke="#A6A6A6" stroke-width="2" stroke-miterlimit="10"/>
<path d="M132.546 79.9513C132.546 79.9513 129.117 89.2122 127.402 89.2122C125.687 89.2122 123.56 81.4605 123.286 77.8934C123.011 74.3262 123.171 68.8612 123.629 67.6035" stroke="#19191B" stroke-width="2"/>
<path d="M132.546 80.2946C132.546 80.2946 127.401 77.8937 127.058 72.0627" stroke="#19191B" stroke-width="2"/>
<defs>
<linearGradient id="paint0_linear" x1="136.938" y1="115.399" x2="136.938" y2="50.5731" gradientUnits="userSpaceOnUse">
<stop stop-color="white" stop-opacity="0"/>
<stop offset="0.671429" stop-color="white"/>
</linearGradient>
</defs>
</svg>
