<svg width="207" height="206" fill="none" xmlns="http://www.w3.org/2000/svg"><path d="m69.91 47.201.462.94 1.23-1.538c.603-1.206 1.929-3.977 2.41-5.424.603-1.807-.602-10.243 1.809-10.846 1.928-.482 3.213-.602 3.615-.602.402-.402 1.446-1.085 2.41-.603 1.205.603 3.013-.602 3.616 0 .602.603 3.615-1.808 4.82-1.808s1.205-.602 1.808 0c.482.482 4.62 5.424 6.628 7.834.603 0 1.808.12 1.808.602 0 .483.803.201 1.205 0 .803-2.41 2.29-7.23 1.808-7.23-.603 0-6.026-.603-7.834-1.808-1.446-.964-3.414-2.812-4.218-3.615 1.607-.804 5.303-2.531 7.231-3.013 2.41-.603 9.641-5.423 10.846-6.026 1.205-.602 10.846-4.218 13.859-3.013 3.013 1.206 8.436 4.82 9.039 5.423.602.603 4.82 6.026 4.82 7.834 0 1.807 1.205 7.833.603 9.64-.603 1.809-3.013 7.231-4.218 8.437-.964.964-1.607 2.008-1.808 2.41.603.2 1.928.723 2.41 1.205.603.603 1.205 4.218 0 6.026-.964 1.446-2.41 2.61-3.012 3.012-.412.12-1.094.312-1.634.446l-1.116 8.088 1.976 10.21 5.929 2.185 17.126 3.953c2.306 2.525 7.707 8.168 10.869 10.539 3.952 2.964 29.516 28.983 29.516 36.887 0 6.324-22.71 29.204-34.786 38.865l-6.916-10.54 22.066-26.348-19.102-19.761c-.659 4.281-2.174 14.491-2.964 21.078-.791 6.587-2.525 33.485-3.294 46.11H86.064l2.92-78.716c-3.293-2.185-8.629 1.581-24.701 0-20.091-1.976-31.265-2.448-33.57-8.047-3.7-8.984 24.376-30.82 39.197-42.786z" fill="url(#a)"/><path d="M75.82 58.051 55.937 77.936l9.641-.603c8.235-.2 24.826-.602 25.308-.602h3.013c2.41-.402 7.471-1.205 8.435-1.205.965 0 5.223-.804 7.231-1.205l.603-3.013c-1.004 0-3.375-.12-4.821-.603-1.807-.602-3.013-3.615-4.82-6.628-1.446-2.41-1.808-11.047-1.808-15.064l-2.41.602c-1.607 1.407-5.062 4.218-6.026 4.218H79.436l-4.218 2.41.603 1.808z" fill="#fff"/><path d="m100.791 28.593-.018.537c-.214 1.998-.703 7.875-.703 7.875s-6.593 28.724 7.295 31.702c10.933 2.334 18.662-6.539 21.998-12.999 5.33.812 8.909-3.998 6.195-7.447-1.429-1.801-2.928-1.452-3.987-.912" stroke="#19191B" stroke-width="2" stroke-miterlimit="10" stroke-linecap="round" stroke-linejoin="round"/><path d="M107.195 41.354s1.565 3.521-2.723 9.213c0 0 3.819 1.22 5.916 1.688M109.673 57.937s3.764.675 6.743-1.308" stroke="#19191B" stroke-width="2" stroke-miterlimit="10" stroke-linecap="round" stroke-linejoin="round"/><path d="M106.203 42.333c-.098 2.731-2.25 4.596-4.917 4.152-2.519-.419-4.514-2.975-4.416-5.706.097-2.732 2.25-4.597 4.916-4.153 2.519.42 4.514 2.976 4.417 5.707zM119.152 42.387c-.097 2.731-2.25 4.597-4.917 4.152-2.518-.419-4.514-2.975-4.416-5.706.097-2.731 2.25-4.597 4.917-4.153 2.666.444 4.513 2.976 4.416 5.707z" fill="#fff" stroke="#19191B" stroke-width="2" stroke-miterlimit="10" stroke-linecap="round" stroke-linejoin="round"/><path d="M106.053 41.641s1.316-.564 4.05.123M118.909 41.447s7.672.862 10.11 1.808c1.002.446 3.259 2.433 3.259 2.433" stroke="#19191B" stroke-width="2" stroke-miterlimit="10" stroke-linecap="round" stroke-linejoin="round"/><path d="M128.57 30.173s-19.971 4.824-40.755-10.088c0 0 6.492 1.435 12.916-1.653 8.962-4.31 26.645-6.58 33.833 6.118 0 0 10.979 10.805-1.158 20.065-1.515 1.081-3.748 5.955-3.748 5.955l-2.809-.003s1.662-5.464 1.03-8.636c-.628-3.294-2.869-6.994.691-11.758zM77.333 52.705l1.655-.893s11.291 1.95 13.534 1.038c2.242-.912 3.816-3.898 7.644-3.682 3.831.084.399-3.133-3.442-2.953-3.84.181-7.73 1.814-6.592-1.359.991-3.19-.13-9.433.77-9.85.898-.418 4.56 4.817 7.1 3.81 2.54-1.007-1.04-4.242-3.315-6.783-2.275-2.54-2.547-3.238-4.31-3.46-1.762-.221-4.704-.458-4.19 1.861 0 0-1.443-.977-3.245-.01 0 0-2.755-1.407-4.42-.157 0 0-2.915-1.03-4.151.672-1.383 1.683.063 9.922-1.468 11.587-1.53 1.664-3.25 2.633-3.25 2.633" stroke="#19191B" stroke-width="2" stroke-miterlimit="10" stroke-linecap="round" stroke-linejoin="round"/><path d="M81.762 45.946s3.487-.881 6.487.462M88.817 30.726s-.159.254 1.288 1.942M87.73 32.926s3.349 5.038 1.867 5.5c-1.777.556-3.867-2.657-5.975-5.358 0 0 4.79 5.729 2.725 6.12-2.069.52-4.391-4.522-6.387-6.18 0 0 3.786 5.091 2.141 6.049-1.94 1.05-2.622-4.822-5.297-3.733M93.835 83.299s-22.65-2.337-41.8-3.64c0 0 5.63-3.685 22.561-16.342 0 0-5.34-6.601-6.416-12.031 0 0-46.296 25.355-43.623 34.027 3.239 10.384 65.647 18.007 65.647 18.007s.38 24.772 1.902 47.065c1.304 19.166 1.988 27.613 1.988 27.613M107.557 75.395s-7.386-.725-14.529.387M154.427 79.68s-5.182-1.803-17.453-3.475M149.914 149.622s.764-5.375 3.463-41.598c0 0 15.698 16.003 22.141 22.003 0 0-13.841 11.224-23.186 21.106 0 0 5.13 3.478 7.996 10.986 0 0 37.98-22.342 36.233-31.397-1.594-9.027-45.316-51.05-45.316-51.05M109.664 73.8l8.042 4.397 15.613-3.215 3.852 2.877-11.747 10.034-7.808-7.037-6.31 4.964-4.14-11.683 2.498-.336z" stroke="#19191B" stroke-width="2" stroke-miterlimit="10" stroke-linecap="round" stroke-linejoin="round"/><path d="M154.211 88.453c-2.62 5.312-3.554 11.3-2.463 17.123M129.685 55.758c-1.059 5.693-.837 11.607.558 17.16M110.192 71.287c-.195.852-.238 1.569-.432 2.42" stroke="#19191B" stroke-width="2" stroke-miterlimit="10" stroke-linecap="round" stroke-linejoin="round"/><path d="M102.317 43.748a1.15 1.15 0 1 0 .138-2.294 1.15 1.15 0 0 0-.138 2.294zM114.937 44.502a1.15 1.15 0 1 0 .138-2.294 1.15 1.15 0 0 0-.138 2.294z" fill="#19191B"/><path d="M152.628 155.854c-1.181.505-5.715 4.12-9.173 4.201-3.459.081-13.125-1.936-13.058-.637.066 1.299 9.267 3.864 9.267 3.864s-17.387 9.179-16.73 10.225c.657 1.047 10.27-3.272 10.27-3.272s-12.391 7.463-11 8.266c1.526.954 13.039-6.273 13.039-6.273s-10.139 8.317-9.169 8.95c.978.491 12.5-6.88 12.5-6.88s-8.012 6.429-7.169 6.767c.843.339 10.576-5.987 13.277-7.841 2.701-1.853 11.083-7.252 11.522-7.37M149.23 171.769l-.471 7.887" stroke="#19191B" stroke-width="2" stroke-miterlimit="10" stroke-linecap="round" stroke-linejoin="round"/><path d="M52.842 181.043c3.197.77 5.23 1.209 8.33 1.869.774.22 1.55-.55 1.55-1.429v-47.155c0-.769-.582-1.429-1.163-1.429l-8.33-.329c-.677 0-1.258.659-1.258 1.429v45.615c-.097.66.29 1.209.871 1.429z" fill="#fff" stroke="#A6A6A6" stroke-width="2" stroke-miterlimit="10" stroke-linecap="round" stroke-linejoin="round"/><path d="m55.72 181.69 6.587-3.952M52.426 181.032l9.88-5.929M51.767 179.055l10.54-6.587M51.767 176.42l10.54-6.587M51.767 173.786l10.54-6.587M51.767 171.151l10.54-6.588M51.767 168.516l10.54-6.587M51.767 165.881l10.54-6.587M51.767 163.548l7.905-4.611M51.767 161.572l3.953-2.635M59.013 181.992l3.953-2.635" stroke="#A6A6A6"/><path d="m52.426 158.278 9.88.988" stroke="#A6A6A6" stroke-width="2"/><path d="M36.184 177.196c3.196.769 5.23 1.209 8.33 1.869.774.219 1.549-.55 1.549-1.429v-67.49c0-.769-.581-1.429-1.356-1.429-3.1.11-5.23.22-8.33.44-.677 0-1.161.659-1.161 1.429v65.181c-.097.66.29 1.209.968 1.429zM19.429 173.349c3.196.769 5.23 1.209 8.329 1.869.775.219 1.55-.55 1.55-1.429v-70.458c0-.879-.581-1.429-1.356-1.429-3.1.22-5.133.44-8.33.66-.677 0-1.162.659-1.162 1.429v67.819c-.097.769.388 1.429.969 1.539zM2.674 169.502c3.196.769 5.23 1.209 8.33 1.868.774.22 1.549-.549 1.549-1.429v-78.37c0-.88-.678-1.54-1.453-1.43-3.1.44-5.133.77-8.33 1.21-.58.11-1.065.659-1.065 1.428v75.294c0 .659.388 1.319.969 1.429z" fill="#fff" stroke="#A6A6A6" stroke-width="2" stroke-miterlimit="10" stroke-linecap="round" stroke-linejoin="round"/><path d="m38.825 166.795 6.975-4.185M35.338 145.203l10.462-6.277M35.338 147.809l10.462-6.278M35.338 150.414l10.462-6.277M35.338 153.02l10.462-6.278M35.338 155.625l10.462-6.277M35.338 158.23l10.462-6.277M35.338 160.836l10.462-6.277M35.338 163.441l10.462-6.277M35.338 166.047 45.8 159.77M34.64 143.111l11.16-6.975M34.64 140.321l11.16-6.974M34.64 137.531l11.16-6.974M34.64 134.741l11.16-6.975M34.64 131.951l11.16-6.974M34.64 129.162l11.16-6.975M34.64 126.691l8.37-4.882M34.64 124.598l4.185-2.789M42.313 167.773l4.184-2.79" stroke="#A6A6A6"/><path d="m35.338 121.111 10.5.33" stroke="#A6A6A6" stroke-width="2"/><path d="m22.126 162.843 6.974-4.185M18.87 154.426l10.462-6.278M18.87 157.031l10.462-6.277M18.87 159.637l10.462-6.278M18.87 162.242l10.462-6.277M18.173 152.333l11.16-6.974M18.173 149.543l11.16-6.974M18.173 146.754l11.16-6.975M18.173 143.964l11.16-6.975M18.173 141.174l11.16-6.975M18.173 138.384l11.16-6.975M18.173 135.913l8.37-4.882M18.173 133.821l4.185-2.79M25.613 163.821l4.185-2.79" stroke="#A6A6A6"/><path d="m18.87 130.334 10.462 1.046" stroke="#A6A6A6" stroke-width="2"/><path d="m5.89 158.89 6.974-4.184M2.403 124.124l10.461-6.277M2.403 126.73l10.461-6.278M2.403 129.335l10.461-6.277M2.403 131.94l10.461-6.277M2.403 134.546l10.461-6.277M2.403 137.151l10.461-6.277M2.403 139.757l10.461-6.278M2.403 142.362l10.461-6.277M2.403 144.968l10.461-6.278M2.403 147.573l10.461-6.277M2.403 150.178l10.461-6.277M2.403 152.784l10.461-6.277M2.403 155.389l10.461-6.277M2.403 157.995l10.461-6.277M1.705 122.032l11.16-6.975M1.705 119.242l11.16-6.975M1.705 116.452l11.16-6.974M1.705 113.662l11.16-6.974M1.705 110.873l11.16-6.975M1.705 108.083l11.16-6.975M1.705 105.612l8.37-4.882M1.705 103.52l4.185-2.79M9.61 159.975l2.635-1.976" stroke="#A6A6A6"/><path d="m1.705 100.691 10.869-.329" stroke="#A6A6A6" stroke-width="2"/><defs><linearGradient id="a" x1="115.992" y1="68.513" x2="116.321" y2="158.427" gradientUnits="userSpaceOnUse"><stop stop-color="#fff"/><stop offset="1" stop-color="#fff" stop-opacity="0"/></linearGradient></defs></svg>