<svg width="156" height="159" viewBox="0 0 156 159" fill="none" xmlns="http://www.w3.org/2000/svg">
<path d="M71.0545 88.7007C70.8254 85.3783 72.0168 78.1149 78.6158 75.6403C85.2147 73.1657 94.6548 70.0266 98.55 68.7664V66.0169C94.9984 65.7878 85.2234 63.8558 83.0837 59.3846C81.6913 56.4749 80.7915 52.8617 80.534 49.0737V61.103C80.532 61.1802 80.5299 61.1736 80.5277 61.0956C71.0807 49.7802 76.7316 39.9345 79.7391 35.0761C78.9154 32.0586 77.713 26.9492 78.1534 25.6281C78.756 23.8204 81.7688 13.5768 85.9867 9.96142C89.3611 7.06912 94.6235 5.14091 96.8329 4.53835H98.038C100.697 2.5298 108.155 -0.884728 116.718 1.52553C127.42 4.53835 133.589 11.7692 134.192 15.3846C134.794 19 139.012 26.8333 139.615 27.4359C140.217 28.0385 143.833 35.2692 143.833 37.6795C143.833 39.0506 144.036 41.4444 144.226 43.3368C144.695 44.0478 144.97 44.7078 144.949 45.2931C144.605 54.9165 138.075 56.2913 135.325 57.3224C132.232 61.7904 124.098 64.0693 119.515 66.0169C119.859 67.2895 120.89 68.7664 121.921 69.6954C126.389 71.4139 136.7 70.0391 140.481 75.6403C146.667 80.6936 155.947 119.187 154.228 128.569C152.186 139.721 148.042 148.504 136.7 149.878C127.626 150.978 95.8004 153.315 81.0215 154.346C79.8759 134.527 77.3784 94.2687 76.5535 91.794C75.5224 88.7007 73.8041 88.7007 71.0545 88.7007H71.0545Z" fill="url(#paint0_linear)"/>
<path d="M97.5191 68.7666C88.2394 70.4851 70.3673 75.2968 71.0547 89.3883" stroke="#19191B" stroke-width="2"/>
<path d="M98.9395 66.1684C93.5404 65.5815 87.7892 63.9383 84.268 59.4782C82.6248 57.4829 81.6859 55.0181 81.6859 52.4359C81.6859 49.3843 82.9769 46.45 83.4464 43.5157C84.0333 40.1119 84.1507 36.5908 83.7986 33.0696C83.6812 32.3654 82.5075 32.248 82.6248 33.0696C82.977 36.4734 82.9769 39.8772 82.2727 43.1636C81.6859 46.3326 80.3948 49.3843 80.3948 52.5533C80.3948 57.9524 84.3854 62.5299 89.0803 64.7599C92.1319 66.1684 95.4183 66.8726 98.7047 67.3421C99.7611 67.4595 99.7611 66.2858 98.9395 66.1684Z" fill="#19191B" stroke="black"/>
<path d="M78.0475 29.4313C79.456 34.4783 76.4043 39.4079 75.2306 44.2201C74.1743 48.3281 74.409 52.7882 76.1696 56.6615C77.2259 58.7742 78.6344 60.7695 80.5123 62.178C81.0992 62.6474 81.6861 62.0606 81.4513 61.4737C79.9255 57.7178 79.6907 53.6098 80.9818 49.7366C81.2166 49.0323 80.0429 48.6802 79.8081 49.3845C78.3997 53.4925 78.7518 57.9526 80.395 62.0606C80.7471 61.8258 80.9818 61.5911 81.334 61.3564C77.9302 58.7742 76.0522 54.7836 75.7001 50.5582C75.4654 48.3281 75.8175 46.0981 76.4043 43.9854C77.1086 41.6379 78.0475 39.2905 78.7518 36.9431C79.456 34.3609 79.8081 31.7787 79.1039 29.0792C78.9865 28.3749 77.8128 28.7271 78.0475 29.4313Z" fill="#19191B" stroke="black"/>
<path d="M99.1744 4.78297C103.282 1.96605 108.564 1.37919 113.376 2.08342C118.306 2.67028 123.236 4.54823 126.991 7.952C131.452 11.9426 133.799 17.8112 136.499 23.0929C137.203 24.5014 137.907 25.9099 138.729 27.2009C139.55 28.492 140.372 29.7831 141.076 31.1916C142.602 34.0085 143.776 36.9428 144.245 40.1118C144.715 43.0461 144.597 46.0978 143.658 48.9147C142.719 51.849 140.607 54.1964 138.024 55.8396C137.32 56.1917 137.907 57.2481 138.611 56.8959C141.076 55.4875 143.071 53.3748 144.245 50.7926C145.419 48.3278 145.771 45.5109 145.654 42.694C145.536 39.525 144.715 36.5907 143.541 33.6564C142.25 30.6047 140.372 27.9052 138.846 24.9709C135.794 19.2197 133.564 12.999 129.104 8.18675C125.583 4.43086 120.536 2.08342 115.489 1.14445C109.855 0.0881069 103.517 0.440222 98.5876 3.72663C98.0007 4.19611 98.5876 5.13508 99.1744 4.78297Z" fill="#19191B" stroke="black"/>
<path d="M116.194 55.6052C114.081 57.7178 111.616 59.2437 108.799 60.3C107.626 60.7695 106.335 61.1216 105.161 61.4737C103.752 61.8258 102.344 62.4127 100.935 62.5301C98.0012 62.7648 96.0059 60.6521 94.0106 58.7742C92.1326 57.131 90.4894 54.9009 89.3157 52.6709C87.9072 50.0887 87.7899 47.1544 87.6725 44.2201C87.6725 42.6943 87.5551 41.2858 87.4377 39.76C87.4377 39.2905 87.3204 38.9384 87.3204 38.5863C87.0856 35.2999 86.9683 32.0135 87.203 28.7271C87.3204 26.9665 87.3204 24.9712 88.0246 23.328C88.7288 21.5674 89.7852 19.6895 91.311 18.5157C91.8979 18.0463 91.0763 17.2247 90.4894 17.6941C89.1983 18.7505 88.2594 20.2763 87.4377 21.8021C86.6161 23.5627 86.264 25.2059 86.1467 27.0839C85.7945 30.7224 86.0293 34.4783 86.1467 38.2342C86.264 39.9947 86.4988 41.7553 86.6162 43.5159C86.7335 46.5676 86.7335 49.6192 88.0246 52.4361C89.081 54.9009 90.8415 57.2484 92.7195 59.1263C93.6584 60.0653 94.7148 60.8869 95.6538 61.8259C96.7101 62.6475 97.8838 63.4691 99.2923 63.7038C100.935 64.0559 102.461 63.5864 104.105 63.1169C105.63 62.7648 107.156 62.2953 108.565 61.8259C111.734 60.6521 114.668 59.0089 117.133 56.6615C117.602 55.8399 116.781 55.0183 116.194 55.6052Z" fill="#19191B" stroke="black"/>
<path d="M80.9818 35.8869C79.5734 32.3657 78.9865 28.6098 79.3386 24.7366C79.5734 21.8023 80.5124 19.2201 81.8034 16.6379C83.6814 12.6473 86.4983 9.00877 90.3716 6.89608C93.3059 5.37025 96.5923 4.7834 99.8787 4.90077C100.7 4.90077 100.7 3.72705 99.8787 3.72705C94.1275 3.60968 88.611 5.605 84.7377 9.94775C83.2119 11.5909 82.0382 13.4689 80.9818 15.4642C79.6908 17.929 78.6344 20.6286 78.2823 23.3281C77.5781 27.6708 78.1649 32.131 79.8081 36.239C80.0429 36.8258 81.2166 36.5911 80.9818 35.8869Z" fill="#19191B" stroke="black"/>
<path d="M85.5596 14.1729C90.4892 16.4029 92.8367 21.802 96.3578 25.6753C98.2358 27.788 100.701 29.4312 103.283 30.6049C104.574 31.1918 105.865 31.6612 107.273 32.0134C108.447 32.2481 109.621 32.6002 110.795 32.4828C111.968 32.4828 113.259 32.2481 114.433 32.1307C115.372 32.0134 116.428 31.896 117.367 31.4265C117.719 31.3091 117.719 30.7223 117.485 30.4875C115.255 28.3748 111.851 25.91 111.851 22.6236C111.499 22.741 111.147 22.8584 110.677 22.9757C112.203 24.9711 113.846 26.849 116.194 27.9054C118.541 28.9617 121.241 29.0791 123.705 29.4312C124.058 29.4312 124.644 29.1964 124.41 28.727C123.588 26.6143 123.353 24.6189 123.236 22.3889C123.119 20.1588 122.649 18.0461 121.827 15.9335C120.888 13.586 119.95 11.4733 118.306 9.59539C116.898 7.95219 115.137 6.54373 113.142 5.60475C110.912 4.43104 108.564 3.72681 106.1 3.37469C105.278 3.25732 105.395 4.43104 106.1 4.54841C110.325 5.0179 114.316 7.01322 117.25 10.1822C118.893 11.9428 119.832 14.0555 120.771 16.2856C121.593 18.2809 122.062 20.2762 122.18 22.3889C122.297 24.7363 122.649 26.849 123.471 29.0791C123.705 28.8443 123.94 28.6096 124.175 28.3748C121.827 28.0227 119.245 27.9054 117.015 26.9664C114.785 26.1448 113.142 24.2668 111.733 22.3889C111.381 21.9194 110.56 22.0368 110.56 22.741C110.677 26.4969 114.081 29.1964 116.546 31.5439C116.546 31.1918 116.663 30.957 116.663 30.6049C115.959 30.957 115.02 31.0744 114.198 31.1918C113.142 31.3091 112.086 31.5439 111.029 31.5439C108.564 31.6612 105.982 30.8396 103.752 29.7833C101.287 28.6096 98.94 27.0838 97.062 24.9711C95.3015 22.9757 93.893 20.8631 92.2498 18.7504C90.4892 16.5203 88.6113 14.525 86.0291 13.3513C85.4423 12.7644 84.8554 13.8208 85.5596 14.1729Z" fill="#19191B" stroke="black"/>
<path d="M114.198 28.2573C114.198 28.2573 119.48 31.7785 119.48 42.2245C119.48 50.3232 117.367 51.7316 116.546 56.0744C116.194 57.3655 116.194 58.6566 116.428 59.9477C116.546 61.2387 116.898 62.6472 117.015 64.2904C117.133 64.7599 117.133 65.3467 117.602 65.5815C117.954 65.8162 118.541 65.8162 119.01 65.6989C122.414 64.9946 125.701 64.173 128.752 62.5298C131.804 60.8866 135.208 58.3044 136.499 55.1354C137.32 53.1401 137.907 50.6753 138.025 48.4452" stroke="#19191B" stroke-width="2" stroke-miterlimit="10" stroke-linecap="round" stroke-linejoin="round"/>
<path d="M95.3017 37.7645C96.1233 37.7645 96.1233 36.5908 95.3017 36.5908C94.4801 36.5908 94.4801 37.7645 95.3017 37.7645Z" fill="#19191B"/>
<path d="M94.7149 37.0606C94.4801 39.0559 94.128 41.0513 93.4238 43.0466C93.189 43.5161 92.8369 44.1029 92.8369 44.6898C92.8369 45.2766 93.189 45.7461 93.7759 45.9809C94.9496 46.4503 96.2407 46.5677 97.4144 46.5677C98.236 46.5677 98.236 45.394 97.4144 45.394C96.3581 45.394 95.3017 45.2766 94.3627 44.9245C94.128 44.8071 94.0106 44.8071 94.128 44.5724C94.2454 44.3377 94.3627 44.1029 94.4801 43.8682C94.7149 43.3987 94.8322 42.9292 94.9496 42.4597C95.4191 40.8165 95.6538 39.1733 95.8886 37.4127C95.8886 37.0606 95.7712 36.8259 95.4191 36.7085C95.1844 36.4738 94.7149 36.7085 94.7149 37.0606Z" fill="#19191B" stroke="black"/>
<path d="M103.915 58.5861C105.194 58.12 105.997 57.1003 105.709 56.3085C105.42 55.5167 104.149 55.2527 102.87 55.7188C101.591 56.1849 100.788 57.2046 101.077 57.9964C101.365 58.7882 102.636 59.0522 103.915 58.5861Z" fill="#A6A6A6"/>
<path d="M80.7474 149.267C80.7474 149.267 71.7098 147.741 67.9539 148.446C64.198 149.267 58.9163 150.441 59.0337 153.493H80.7474" stroke="#19191B" stroke-width="2" stroke-miterlimit="10" stroke-linecap="round" stroke-linejoin="round"/>
<path d="M122.415 157.366H9.97273C9.2685 157.366 8.68164 156.779 8.68164 156.075V154.666C8.68164 153.962 9.2685 153.375 9.97273 153.375H122.415C123.119 153.375 123.706 153.962 123.706 154.666V156.075C123.823 156.779 123.236 157.366 122.415 157.366Z" fill="white" stroke="#19191B" stroke-width="2" stroke-miterlimit="10" stroke-linecap="round" stroke-linejoin="round"/>
<path d="M79.2212 157.366H10.4414C9.50244 157.366 8.68084 156.427 8.68084 155.136L3.8686 92.2249C3.75123 90.699 4.57283 89.408 5.62918 89.408H74.9958C75.9348 89.408 76.7564 90.3469 76.7564 91.638L80.8644 154.549C81.0991 156.075 80.2775 157.366 79.2212 157.366Z" fill="white" stroke="#19191B" stroke-width="2" stroke-miterlimit="10" stroke-linecap="round" stroke-linejoin="round"/>
<path d="M76.9917 157.366H8.21192C7.27295 157.366 6.45135 156.427 6.45135 155.136L1.63911 92.2249C1.52174 90.699 2.34334 89.408 3.39969 89.408H72.7663C73.7053 89.408 74.5269 90.3469 74.5269 91.638L78.6349 154.549C78.8696 156.075 78.048 157.366 76.9917 157.366Z" fill="white" stroke="#19191B" stroke-width="2" stroke-miterlimit="10" stroke-linecap="round" stroke-linejoin="round"/>
<path d="M95.8889 52.4361C97.8842 52.9056 100.114 52.6708 101.992 51.6145" stroke="#19191B" stroke-width="2" stroke-miterlimit="10" stroke-linecap="round" stroke-linejoin="round"/>
<path d="M104.457 38.1167C104.975 38.1167 105.396 37.6963 105.396 37.1777C105.396 36.6592 104.975 36.2388 104.457 36.2388C103.938 36.2388 103.518 36.6592 103.518 37.1777C103.518 37.6963 103.938 38.1167 104.457 38.1167Z" fill="#19191B"/>
<path d="M90.8418 38.1167C91.3604 38.1167 91.7808 37.6963 91.7808 37.1777C91.7808 36.6592 91.3604 36.2388 90.8418 36.2388C90.3232 36.2388 89.9028 36.6592 89.9028 37.1777C89.9028 37.6963 90.3232 38.1167 90.8418 38.1167Z" fill="#19191B"/>
<path d="M100.818 35.5342C101.17 34.9474 101.757 34.5953 102.462 34.4779C103.048 34.2432 103.753 34.2432 104.457 34.2432C105.631 34.2432 107.039 34.3605 107.861 35.2995" stroke="#19191B" stroke-width="2" stroke-miterlimit="10" stroke-linecap="round" stroke-linejoin="round"/>
<path d="M87.438 35.5342C87.7901 34.9474 88.377 34.5953 89.0812 34.4779C89.668 34.2432 90.3723 34.2432 91.0765 34.2432C92.2502 34.2432 93.6587 34.3605 94.4803 35.2995" stroke="#19191B" stroke-width="2" stroke-miterlimit="10" stroke-linecap="round" stroke-linejoin="round"/>
<path d="M104.339 56.3095C104.339 56.3095 112.555 51.7321 116.077 48.7978C121.945 43.8682 125.584 38.8212 125.231 39.2907" stroke="#A6A6A6" stroke-width="2" stroke-miterlimit="10"/>
<path d="M129.809 42.2247C126.523 42.2247 123.823 38.7036 123.823 34.2435C123.823 29.7834 126.523 26.2622 129.809 26.2622" stroke="#A6A6A6" stroke-width="2" stroke-miterlimit="10" stroke-linecap="round" stroke-linejoin="round"/>
<path d="M132.744 42.2247C136.049 42.2247 138.729 38.6514 138.729 34.2435C138.729 29.8355 136.049 26.2622 132.744 26.2622C129.438 26.2622 126.758 29.8355 126.758 34.2435C126.758 38.6514 129.438 42.2247 132.744 42.2247Z" stroke="#A6A6A6" stroke-width="2" stroke-miterlimit="10" stroke-linecap="round" stroke-linejoin="round"/>
<path d="M50.3185 132.845C52.4952 130.096 53.87 126.544 53.87 122.763C53.87 113.827 46.6524 106.61 37.7164 106.61C28.7803 106.61 21.5627 113.827 21.5627 122.763C21.5627 131.7 28.7803 138.917 37.7164 138.917C39.7785 138.917 41.7261 138.573 43.5592 137.886L51.5787 140.979L50.3185 132.845Z" stroke="#A6A6A6" stroke-width="2" stroke-miterlimit="10" stroke-linecap="round" stroke-linejoin="round"/>
<path d="M31.6445 124.711C32.3405 124.711 32.9047 124.147 32.9047 123.451C32.9047 122.755 32.3405 122.19 31.6445 122.19C30.9485 122.19 30.3843 122.755 30.3843 123.451C30.3843 124.147 30.9485 124.711 31.6445 124.711Z" stroke="#A6A6A6" stroke-width="2" stroke-miterlimit="10" stroke-linecap="round" stroke-linejoin="round"/>
<path d="M37.4873 124.711C38.1833 124.711 38.7475 124.147 38.7475 123.451C38.7475 122.755 38.1833 122.19 37.4873 122.19C36.7913 122.19 36.2271 122.755 36.2271 123.451C36.2271 124.147 36.7913 124.711 37.4873 124.711Z" stroke="#A6A6A6" stroke-width="2" stroke-miterlimit="10" stroke-linecap="round" stroke-linejoin="round"/>
<path d="M43.2155 124.711C43.9115 124.711 44.4757 124.147 44.4757 123.451C44.4757 122.755 43.9115 122.19 43.2155 122.19C42.5195 122.19 41.9553 122.755 41.9553 123.451C41.9553 124.147 42.5195 124.711 43.2155 124.711Z" stroke="#A6A6A6" stroke-width="2" stroke-miterlimit="10" stroke-linecap="round" stroke-linejoin="round"/>
<path d="M108.861 153.315C123.984 153.315 136.645 152.468 145.636 145.41C160.104 134.054 152.554 110.993 147.699 90.763C143.574 73.5783 137.044 70.1414 124.327 70.1414C123.984 69.7977 119.859 70.8288 119.859 65.6733" stroke="#19191B" stroke-width="2"/>
<path d="M125.015 90.4194C126.848 100.959 130.72 122.452 131.545 124.101" stroke="#19191B" stroke-width="2"/>
<path d="M134.295 124.445C127.077 128.57 117.455 133.157 109.892 135.787C101.987 138.537 96.7173 141.057 95.8008 141.286C97.1756 142.547 98.7566 146.304 98.2066 152.628" stroke="#19191B" stroke-width="2"/>
<path d="M96.4881 142.661C94.0822 143.578 88.7206 145.548 86.521 146.098C84.3213 146.648 81.4801 148.389 80.3345 149.191" stroke="#19191B" stroke-width="2"/>
<path d="M121.578 69.7974C120.89 75.0673 112.697 84.2325 106.111 84.2325C99.2377 84.2325 99.2375 78.046 99.2375 70.8284" stroke="#19191B" stroke-width="2"/>
<defs>
<linearGradient id="paint0_linear" x1="111.267" y1="60.8617" x2="112.83" y2="154.347" gradientUnits="userSpaceOnUse">
<stop stop-color="white"/>
<stop offset="1" stop-color="white" stop-opacity="0"/>
</linearGradient>
</defs>
</svg>
