<svg width="207" height="206" viewBox="0 0 207 206" fill="none" xmlns="http://www.w3.org/2000/svg">
<path d="M69.9097 47.201L70.3724 48.1404L71.6026 46.6026C72.2051 45.3975 73.5308 42.6257 74.0128 41.1795C74.6154 39.3718 73.4104 30.9359 75.8206 30.3334C77.7489 29.8513 79.0343 29.7308 79.436 29.7308C79.8377 29.3291 80.8822 28.6462 81.8463 29.1282C83.0514 29.7308 84.8591 28.5255 85.4617 29.1281C86.0642 29.7306 89.0771 27.3203 90.2822 27.3203C91.4873 27.3203 91.4873 26.7178 92.0899 27.3203C92.5719 27.8024 96.7095 32.7436 98.7181 35.1539C99.3206 35.1539 100.526 35.2744 100.526 35.7565C100.526 36.2385 101.329 35.9573 101.731 35.7565C102.534 33.3462 104.021 28.5257 103.539 28.5257C102.936 28.5257 97.5129 27.9231 95.7053 26.718C94.2591 25.7539 92.2907 23.906 91.4873 23.1026C93.0941 22.2992 96.7899 20.5719 98.7181 20.0898C101.128 19.4872 108.359 14.6667 109.564 14.0642C110.769 13.4616 120.41 9.84622 123.423 11.0513C126.436 12.2565 131.859 15.8718 132.462 16.4744C133.064 17.077 137.282 22.5 137.282 24.3077C137.282 26.1154 138.487 32.1411 137.885 33.9488C137.282 35.7565 134.872 41.1795 133.667 42.3847C132.703 43.3488 132.06 44.3932 131.859 44.7949C132.462 44.9958 133.787 45.518 134.269 46C134.872 46.6026 135.474 50.218 134.269 52.0257C133.305 53.4718 131.859 54.6368 131.257 55.0385C130.845 55.1583 130.163 55.3496 129.623 55.4844L128.507 63.5725L130.483 73.7826L136.412 75.9673L153.538 79.9195C155.844 82.4446 161.245 88.0876 164.407 90.4589C168.359 93.4231 193.923 119.442 193.923 127.346C193.923 133.67 171.213 156.55 159.137 166.211L152.221 155.671L174.287 129.323L155.185 109.562C154.526 113.843 153.011 124.053 152.221 130.64C151.43 137.227 149.696 164.125 148.927 176.75H86.0642L88.9843 98.0341C85.6908 95.8494 80.3552 99.615 64.2827 98.0341C44.192 96.058 33.018 95.5862 30.7124 89.9872C27.0128 81.0027 55.0887 59.1676 69.9097 47.201Z" fill="url(#paint0_linear)"/>
<path d="M75.8206 58.0514L55.936 77.936L65.5771 77.3334C73.8121 77.1326 90.4027 76.7309 90.8847 76.7309H93.8976C96.3078 76.3292 101.369 75.5258 102.333 75.5258C103.298 75.5258 107.556 74.7223 109.564 74.3206L110.167 71.3078C109.163 71.3078 106.792 71.1873 105.346 70.7052C103.539 70.1027 102.333 67.0899 100.526 64.077C99.0796 61.6668 98.7181 53.03 98.7181 49.0129L96.3078 49.6155C94.701 51.0215 91.2463 53.8335 90.2822 53.8335H79.436L75.2181 56.2437L75.8206 58.0514Z" fill="white"/>
<path d="M100.791 28.5927C100.791 28.5927 100.791 28.5927 100.773 29.1304C100.559 31.1279 100.07 37.0049 100.07 37.0049C100.07 37.0049 93.4766 65.7286 107.365 68.7071C118.298 71.0405 126.027 62.1684 129.363 55.708C134.693 56.5198 138.272 51.7101 135.558 48.2608C134.129 46.4596 132.63 46.8091 131.571 47.3495" stroke="#19191B" stroke-width="2" stroke-miterlimit="10" stroke-linecap="round" stroke-linejoin="round"/>
<path d="M107.195 41.3543C107.195 41.3543 108.76 44.8754 104.472 50.5666C104.472 50.5666 108.291 51.7868 110.388 52.2545" stroke="#19191B" stroke-width="2" stroke-miterlimit="10" stroke-linecap="round" stroke-linejoin="round"/>
<path d="M109.673 57.9373C109.673 57.9373 113.437 58.6119 116.416 56.6285" stroke="#19191B" stroke-width="2" stroke-miterlimit="10" stroke-linecap="round" stroke-linejoin="round"/>
<path d="M106.203 42.3329C106.105 45.064 103.953 46.9295 101.286 46.4854C98.7673 46.066 96.7721 43.5097 96.8695 40.7785C96.9668 38.0474 99.1197 36.1818 101.786 36.626C104.305 37.0454 106.3 39.6017 106.203 42.3329Z" fill="white" stroke="#19191B" stroke-width="2" stroke-miterlimit="10" stroke-linecap="round" stroke-linejoin="round"/>
<path d="M119.152 42.387C119.055 45.1181 116.902 46.9836 114.235 46.5395C111.717 46.1201 109.721 43.5638 109.819 40.8326C109.916 38.1015 112.069 36.236 114.736 36.6801C117.402 37.1243 119.249 39.6559 119.152 42.387Z" fill="white" stroke="#19191B" stroke-width="2" stroke-miterlimit="10" stroke-linecap="round" stroke-linejoin="round"/>
<path d="M106.053 41.6414C106.053 41.6414 107.369 41.0772 110.103 41.7636" stroke="#19191B" stroke-width="2" stroke-miterlimit="10" stroke-linecap="round" stroke-linejoin="round"/>
<path d="M118.909 41.4471C118.909 41.4471 126.581 42.3092 129.019 43.2553C130.021 43.701 132.278 45.6882 132.278 45.6882" stroke="#19191B" stroke-width="2" stroke-miterlimit="10" stroke-linecap="round" stroke-linejoin="round"/>
<path d="M128.57 30.1734C128.57 30.1734 108.599 34.9973 87.8146 20.0846C87.8146 20.0846 94.3071 21.5202 100.731 18.4317C109.693 14.1228 127.376 11.8529 134.564 24.5497C134.564 24.5497 145.543 35.3554 133.406 44.6149C131.891 45.6963 129.658 50.5703 129.658 50.5703L126.849 50.5674C126.849 50.5674 128.511 45.1033 127.879 41.9309C127.251 38.6367 125.01 34.9371 128.57 30.1734Z" stroke="#19191B" stroke-width="2" stroke-miterlimit="10" stroke-linecap="round" stroke-linejoin="round"/>
<path d="M77.3334 52.7046L78.9879 51.8118C78.9879 51.8118 90.2794 53.7614 92.5219 52.8496C94.7644 51.9377 96.3383 48.9523 100.166 49.168C103.997 49.2517 100.565 46.035 96.724 46.2155C92.8835 46.396 88.9948 48.0294 90.1324 44.8565C91.1232 41.6652 90.0029 35.4232 90.9016 35.0057C91.8004 34.5881 95.4613 39.823 98.0019 38.8159C100.542 37.8089 96.9627 34.5737 94.6873 32.033C92.4119 29.4922 92.1401 28.7949 90.3776 28.5734C88.6152 28.3519 85.6734 28.1148 86.1864 30.4341C86.1864 30.4341 84.744 29.457 82.9421 30.4242C82.9421 30.4242 80.1866 29.0169 78.5228 30.2667C78.5228 30.2667 75.6073 29.2372 74.371 30.9387C72.9878 32.6217 74.4335 40.8612 72.9034 42.5257C71.3734 44.1903 69.6538 45.1594 69.6538 45.1594" stroke="#19191B" stroke-width="2" stroke-miterlimit="10" stroke-linecap="round" stroke-linejoin="round"/>
<path d="M81.7616 45.9463C81.7616 45.9463 85.2487 45.0648 88.2487 46.4085" stroke="#19191B" stroke-width="2" stroke-miterlimit="10" stroke-linecap="round" stroke-linejoin="round"/>
<path d="M88.8167 30.7264C88.8167 30.7264 88.6584 30.9797 90.105 32.6677" stroke="#19191B" stroke-width="2" stroke-miterlimit="10" stroke-linecap="round" stroke-linejoin="round"/>
<path d="M87.7305 32.9258C87.7305 32.9258 91.0787 37.9641 89.5975 38.4267C87.82 38.9818 85.7295 35.7688 83.6218 33.0682C83.6218 33.0682 88.4125 38.7968 86.3474 39.1882C84.278 39.7077 81.9558 34.6658 79.9596 33.0077C79.9596 33.0077 83.7458 38.0994 82.1014 39.0566C80.1607 40.1063 79.4787 34.2353 76.8038 35.3241" stroke="#19191B" stroke-width="2" stroke-miterlimit="10" stroke-linecap="round" stroke-linejoin="round"/>
<path d="M93.8353 83.2986C93.8353 83.2986 71.185 80.9617 52.0359 79.6586C52.0359 79.6586 57.6647 75.974 74.5963 63.3172C74.5963 63.3172 69.2561 56.7159 68.1805 51.2859C68.1805 51.2859 21.8839 76.641 24.5568 85.3126C27.7956 95.6972 90.2038 103.32 90.2038 103.32C90.2038 103.32 90.5831 128.092 92.1064 150.385C93.4104 169.551 94.0943 177.998 94.0943 177.998" stroke="#19191B" stroke-width="2" stroke-miterlimit="10" stroke-linecap="round" stroke-linejoin="round"/>
<path d="M107.557 75.3948C107.557 75.3948 100.171 74.6703 93.0281 75.7818" stroke="#19191B" stroke-width="2" stroke-miterlimit="10" stroke-linecap="round" stroke-linejoin="round"/>
<path d="M154.427 79.6804C154.427 79.6804 149.245 77.8766 136.974 76.2053" stroke="#19191B" stroke-width="2" stroke-miterlimit="10" stroke-linecap="round" stroke-linejoin="round"/>
<path d="M149.914 149.622C149.914 149.622 150.678 144.247 153.377 108.024C153.377 108.024 169.075 124.027 175.518 130.027C175.518 130.027 161.677 141.251 152.332 151.133C152.332 151.133 157.462 154.611 160.328 162.119C160.328 162.119 198.308 139.777 196.561 130.722C194.967 121.695 151.245 79.6719 151.245 79.6719" stroke="#19191B" stroke-width="2" stroke-miterlimit="10" stroke-linecap="round" stroke-linejoin="round"/>
<path d="M109.664 73.8006L117.706 78.1966L133.319 74.982L137.171 77.8589L125.424 87.8931L117.616 80.8556L111.306 85.8204L107.166 74.137L109.664 73.8006Z" stroke="#19191B" stroke-width="2" stroke-miterlimit="10" stroke-linecap="round" stroke-linejoin="round"/>
<path d="M154.211 88.4533C151.591 93.7653 150.657 99.7539 151.748 105.576" stroke="#19191B" stroke-width="2" stroke-miterlimit="10" stroke-linecap="round" stroke-linejoin="round"/>
<path d="M129.685 55.7583C128.626 61.4514 128.848 67.3652 130.243 72.9173" stroke="#19191B" stroke-width="2" stroke-miterlimit="10" stroke-linecap="round" stroke-linejoin="round"/>
<path d="M110.192 71.2869C109.997 72.1388 109.954 72.8558 109.76 73.7076" stroke="#19191B" stroke-width="2" stroke-miterlimit="10" stroke-linecap="round" stroke-linejoin="round"/>
<path d="M102.317 43.748C102.951 43.7859 103.495 43.303 103.533 42.6694C103.571 42.0358 103.088 41.4915 102.455 41.4536C101.821 41.4157 101.277 41.8986 101.239 42.5322C101.201 43.1658 101.684 43.7101 102.317 43.748Z" fill="#19191B"/>
<path d="M114.937 44.5024C115.571 44.5403 116.115 44.0573 116.153 43.4238C116.191 42.7902 115.708 42.2459 115.074 42.208C114.441 42.1701 113.896 42.653 113.858 43.2866C113.821 43.9202 114.303 44.4645 114.937 44.5024Z" fill="#19191B"/>
<path d="M152.628 155.854C151.447 156.359 146.913 159.974 143.455 160.055C139.996 160.136 130.33 158.119 130.397 159.418C130.463 160.717 139.664 163.282 139.664 163.282C139.664 163.282 122.277 172.461 122.934 173.507C123.591 174.554 133.204 170.235 133.204 170.235C133.204 170.235 120.813 177.698 122.204 178.501C123.73 179.455 135.243 172.228 135.243 172.228C135.243 172.228 125.104 180.545 126.074 181.178C127.052 181.669 138.574 174.298 138.574 174.298C138.574 174.298 130.562 180.727 131.405 181.065C132.248 181.404 141.981 175.078 144.682 173.224C147.383 171.371 155.765 165.972 156.204 165.854" stroke="#19191B" stroke-width="2" stroke-miterlimit="10" stroke-linecap="round" stroke-linejoin="round"/>
<path d="M149.23 171.769L148.759 179.656" stroke="#19191B" stroke-width="2" stroke-miterlimit="10" stroke-linecap="round" stroke-linejoin="round"/>
<path d="M52.8424 181.043C56.0385 181.813 58.0724 182.252 61.1716 182.912C61.9464 183.132 62.7212 182.362 62.7212 181.483V134.328C62.7212 133.559 62.1401 132.899 61.559 132.899L53.2298 132.57C52.5519 132.57 51.9708 133.229 51.9708 133.999V179.614C51.8739 180.274 52.2613 180.823 52.8424 181.043Z" fill="white" stroke="#A6A6A6" stroke-width="2" stroke-miterlimit="10" stroke-linecap="round" stroke-linejoin="round"/>
<path d="M55.7195 181.69L62.3066 177.738" stroke="#A6A6A6"/>
<path d="M52.426 181.032L62.3067 175.103" stroke="#A6A6A6"/>
<path d="M51.7673 179.055L62.3067 172.468" stroke="#A6A6A6"/>
<path d="M51.7673 176.42L62.3067 169.833" stroke="#A6A6A6"/>
<path d="M51.7673 173.786L62.3067 167.199" stroke="#A6A6A6"/>
<path d="M51.7673 171.151L62.3067 164.563" stroke="#A6A6A6"/>
<path d="M51.7673 168.516L62.3067 161.929" stroke="#A6A6A6"/>
<path d="M51.7673 165.881L62.3067 159.294" stroke="#A6A6A6"/>
<path d="M51.7673 163.548L59.6719 158.937" stroke="#A6A6A6"/>
<path d="M51.7673 161.572L55.7196 158.937" stroke="#A6A6A6"/>
<path d="M59.0134 181.992L62.9657 179.357" stroke="#A6A6A6"/>
<path d="M52.426 158.278L62.3067 159.266" stroke="#A6A6A6" stroke-width="2"/>
<path d="M36.1842 177.196C39.3803 177.965 41.4142 178.405 44.5134 179.065C45.2882 179.284 46.063 178.515 46.063 177.636V110.146C46.063 109.377 45.4819 108.717 44.7071 108.717C41.6079 108.827 39.4771 108.937 36.3779 109.157C35.7 109.157 35.2157 109.816 35.2157 110.586V175.767C35.1189 176.427 35.5063 176.976 36.1842 177.196Z" fill="white" stroke="#A6A6A6" stroke-width="2" stroke-miterlimit="10" stroke-linecap="round" stroke-linejoin="round"/>
<path d="M19.4288 173.349C22.6249 174.118 24.6588 174.558 27.758 175.218C28.5328 175.437 29.3076 174.668 29.3076 173.789V103.331C29.3076 102.452 28.7265 101.902 27.9517 101.902C24.8525 102.122 22.8186 102.342 19.6225 102.562C18.9446 102.562 18.4603 103.221 18.4603 103.991V171.81C18.3635 172.579 18.8477 173.239 19.4288 173.349Z" fill="white" stroke="#A6A6A6" stroke-width="2" stroke-miterlimit="10" stroke-linecap="round" stroke-linejoin="round"/>
<path d="M2.67396 169.502C5.87003 170.271 7.9039 170.711 11.0031 171.37C11.7779 171.59 12.5527 170.821 12.5527 169.941V91.5701C12.5527 90.6907 11.8748 90.0312 11.1 90.1411C8.00075 90.5808 5.96689 90.9106 2.77081 91.3502C2.18971 91.4601 1.70545 92.0097 1.70545 92.7792V168.073C1.70545 168.732 2.09286 169.392 2.67396 169.502Z" fill="white" stroke="#A6A6A6" stroke-width="2" stroke-miterlimit="10" stroke-linecap="round" stroke-linejoin="round"/>
<path d="M38.8254 166.795L45.8 162.61" stroke="#A6A6A6"/>
<path d="M35.3381 145.203L45.8 138.926" stroke="#A6A6A6"/>
<path d="M35.3381 147.809L45.8 141.531" stroke="#A6A6A6"/>
<path d="M35.3381 150.414L45.8 144.137" stroke="#A6A6A6"/>
<path d="M35.3381 153.02L45.8 146.742" stroke="#A6A6A6"/>
<path d="M35.3381 155.625L45.8 149.348" stroke="#A6A6A6"/>
<path d="M35.3381 158.23L45.8 151.953" stroke="#A6A6A6"/>
<path d="M35.3381 160.836L45.8 154.559" stroke="#A6A6A6"/>
<path d="M35.3381 163.441L45.8 157.164" stroke="#A6A6A6"/>
<path d="M35.3381 166.047L45.8 159.77" stroke="#A6A6A6"/>
<path d="M34.6406 143.111L45.8 136.136" stroke="#A6A6A6"/>
<path d="M34.6406 140.321L45.8 133.347" stroke="#A6A6A6"/>
<path d="M34.6406 137.531L45.8 130.557" stroke="#A6A6A6"/>
<path d="M34.6406 134.741L45.8 127.766" stroke="#A6A6A6"/>
<path d="M34.6406 131.951L45.8 124.977" stroke="#A6A6A6"/>
<path d="M34.6406 129.162L45.8 122.187" stroke="#A6A6A6"/>
<path d="M34.6406 126.691L43.0101 121.809" stroke="#A6A6A6"/>
<path d="M34.6406 124.598L38.8254 121.809" stroke="#A6A6A6"/>
<path d="M42.3127 167.773L46.4975 164.983" stroke="#A6A6A6"/>
<path d="M35.3381 121.111L45.8388 121.441" stroke="#A6A6A6" stroke-width="2"/>
<path d="M22.1257 162.843L29.1003 158.658" stroke="#A6A6A6"/>
<path d="M18.8706 154.426L29.3325 148.148" stroke="#A6A6A6"/>
<path d="M18.8706 157.031L29.3325 150.754" stroke="#A6A6A6"/>
<path d="M18.8706 159.637L29.3325 153.359" stroke="#A6A6A6"/>
<path d="M18.8706 162.242L29.3325 155.965" stroke="#A6A6A6"/>
<path d="M18.1731 152.333L29.3324 145.359" stroke="#A6A6A6"/>
<path d="M18.1731 149.543L29.3324 142.569" stroke="#A6A6A6"/>
<path d="M18.1731 146.754L29.3324 139.779" stroke="#A6A6A6"/>
<path d="M18.1731 143.964L29.3324 136.989" stroke="#A6A6A6"/>
<path d="M18.1731 141.174L29.3324 134.199" stroke="#A6A6A6"/>
<path d="M18.1731 138.384L29.3324 131.409" stroke="#A6A6A6"/>
<path d="M18.1731 135.913L26.5426 131.031" stroke="#A6A6A6"/>
<path d="M18.1731 133.821L22.3579 131.031" stroke="#A6A6A6"/>
<path d="M25.613 163.821L29.7978 161.031" stroke="#A6A6A6"/>
<path d="M18.8706 130.334L29.3325 131.38" stroke="#A6A6A6" stroke-width="2"/>
<path d="M5.88989 158.89L12.8645 154.706" stroke="#A6A6A6"/>
<path d="M2.40259 124.124L12.8645 117.847" stroke="#A6A6A6"/>
<path d="M2.40259 126.73L12.8645 120.452" stroke="#A6A6A6"/>
<path d="M2.40259 129.335L12.8645 123.058" stroke="#A6A6A6"/>
<path d="M2.40259 131.94L12.8645 125.663" stroke="#A6A6A6"/>
<path d="M2.40259 134.546L12.8645 128.269" stroke="#A6A6A6"/>
<path d="M2.40259 137.151L12.8645 130.874" stroke="#A6A6A6"/>
<path d="M2.40259 139.757L12.8645 133.479" stroke="#A6A6A6"/>
<path d="M2.40259 142.362L12.8645 136.085" stroke="#A6A6A6"/>
<path d="M2.40259 144.968L12.8645 138.69" stroke="#A6A6A6"/>
<path d="M2.40259 147.573L12.8645 141.296" stroke="#A6A6A6"/>
<path d="M2.40259 150.178L12.8645 143.901" stroke="#A6A6A6"/>
<path d="M2.40259 152.784L12.8645 146.507" stroke="#A6A6A6"/>
<path d="M2.40259 155.389L12.8645 149.112" stroke="#A6A6A6"/>
<path d="M2.40259 157.995L12.8645 151.718" stroke="#A6A6A6"/>
<path d="M1.70508 122.032L12.8644 115.057" stroke="#A6A6A6"/>
<path d="M1.70508 119.242L12.8644 112.267" stroke="#A6A6A6"/>
<path d="M1.70508 116.452L12.8644 109.478" stroke="#A6A6A6"/>
<path d="M1.70508 113.662L12.8644 106.688" stroke="#A6A6A6"/>
<path d="M1.70508 110.873L12.8644 103.898" stroke="#A6A6A6"/>
<path d="M1.70508 108.083L12.8644 101.108" stroke="#A6A6A6"/>
<path d="M1.70508 105.612L10.0746 100.73" stroke="#A6A6A6"/>
<path d="M1.70508 103.52L5.88983 100.73" stroke="#A6A6A6"/>
<path d="M9.60986 159.975L12.2447 157.999" stroke="#A6A6A6"/>
<path d="M1.70508 100.691L12.5738 100.362" stroke="#A6A6A6" stroke-width="2"/>
<defs>
<linearGradient id="paint0_linear" x1="115.992" y1="68.5129" x2="116.321" y2="158.427" gradientUnits="userSpaceOnUse">
<stop stop-color="white"/>
<stop offset="1" stop-color="white" stop-opacity="0"/>
</linearGradient>
</defs>
</svg>
