<svg width="245" height="238" fill="none" xmlns="http://www.w3.org/2000/svg"><path d="M143.829 60.805s-10.738 30.587 10.991 33.387c21.73 2.799 28.396-17.915 28.396-17.915s8.549 1.68 12.01-6.158c3.409-7.838-.255-13.233-7.583-9.62" stroke="#19191B" stroke-width="3" stroke-miterlimit="10"/><path d="M171.665 90.884s-3.308 11.553 4.579 14.861" stroke="#19191B" stroke-width="3" stroke-miterlimit="10" stroke-linejoin="round"/><path d="M140.572 106.814s.814 9.211 15.47 9.619c17.251.509 20.253-10.994 20.253-10.994s14.86 1.375 28.396 7.431c23.866 9.415 30.991 49.622 25.139 71.252-8.957 33.336-39.286 42.395-63.152 43.515-4.682.203-12.112.559-22.34 3.664-10.229 3.105-24.274 6.056-25.292 3.97-1.018-2.087 15.725-5.7 15.725-5.7s-21.17 6.209-22.747 3.206c-1.578-3.003 18.777-7.736 19.185-8.143.407-.407-23.616 7.074-23.209 3.003.458-4.072 20.511-7.278 20.511-7.278s-14.808 1.06-16.487-2.859c-1.731-3.919 30.431-3.503 30.431-3.503s-16.692-3.671-13.944-7.997c1.324-2.036 11.705 2.551 23.409 5.656" stroke="#19191B" stroke-width="3" stroke-miterlimit="10" stroke-linejoin="round"/><path d="M137.722 151.244c-2.392 14.556-.56 41.683-1.476 53.286M150.953 211.35c18.167 4.479 35.978-8.499 45.494-22.8 6.666-9.976 8.498-26.618 6.412-32.522" stroke="#19191B" stroke-width="3"/><path d="M194.106 59.33c2.188-2.596 12.722-18.628 7.277-32.166-5.801-11.4-24.731-17.508-43.916-12.266-19.999 5.446-21.068 25.804-21.068 25.804s6.87 13.538 43.713-3.868M141.132 58.718s2.595-1.17 7.429-.56c4.835.713 6.87 3.36 6.87 3.36l-4.274 10.127c-.967 2.24.814 4.683 3.257 4.48l1.577-.103M150.953 83.707c2.341 2.85 7.786 1.273 10.127 0" stroke="#19191B" stroke-width="3" stroke-miterlimit="10"/><path d="M150.495 93.123c.153.56.713 5.853-2.849 10.535-3.563 4.631-6.514 5.089-6.514 5.089" stroke="#19191B" stroke-width="3" stroke-miterlimit="10" stroke-linejoin="round"/><path d="M159.248 60.093s2.595-1.171 7.429-.56c4.835.712 6.87 3.359 6.87 3.359" stroke="#19191B" stroke-width="3" stroke-miterlimit="10"/><path d="M149.07 64.113a1.883 1.883 0 1 0 0-3.766 1.883 1.883 0 0 0 0 3.766zM168.306 65.996a1.883 1.883 0 1 0 0-3.766 1.883 1.883 0 0 0 0 3.766z" fill="#19191B"/><path d="M166.729 210.485s9.77 5.7 4.071 16.897" stroke="#19191B" stroke-width="3"/><path d="M179.399 37.19s-4.783 4.53.255 8.092c4.02 2.85-.967 4.428 1.374 8.093 3.257 5.089 2.901 10.433 3.511 10.433 0 0 1.374-3.41 4.631-3.97" stroke="#19191B" stroke-width="3" stroke-miterlimit="10"/><path d="M140.572 106.814c-24.935 3.257-18.315 73.909-24.981 103.885M66.123 223.176H95.89M59.202 218.934c-.204.712-6.412 8.448-6.412 8.448" stroke="#19191B" stroke-width="3" stroke-miterlimit="10" stroke-linejoin="round"/><path d="M111.432 218.934H58.438L39.75 134.308l-7.773 1.77 20.05 91.304H105" stroke="#19191B" stroke-width="3" stroke-miterlimit="10" stroke-linejoin="round"/><path d="M244 97.25c0 9.197-5.896 18.264-11.885 25.086-2.985 3.399-5.971 6.216-8.211 8.184a82.092 82.092 0 0 1-2.704 2.277c-.304.245-.547.435-.719.569a53.574 53.574 0 0 1-.719-.569 81.047 81.047 0 0 1-2.704-2.277c-2.241-1.968-5.227-4.785-8.211-8.184-5.99-6.822-11.885-15.889-11.885-25.086 0-12.957 10.514-23.522 23.519-23.522C233.486 73.728 244 84.243 244 97.25z" fill="#EBEBEB" stroke="#fff"/><path d="M238.851 98.726c0 14.403-18.37 28.144-18.37 28.144s-18.371-13.792-18.371-28.144c.051-10.128 8.244-18.373 18.422-18.373 10.126 0 18.319 8.245 18.319 18.373z" stroke="#19191B" stroke-width="3" stroke-miterlimit="10"/><path d="M220.532 101.576a3.46 3.46 0 1 0-.001-6.921 3.46 3.46 0 0 0 .001 6.921z" stroke="#19191B" stroke-width="3" stroke-miterlimit="10"/><rect x="61.552" y="82.451" width="35.773" height="35.773" rx="6.5" fill="#EBEBEB" stroke="#fff"/><circle cx="73.035" cy="99.339" r="1" stroke="#BABABA" stroke-width="1.869"/><circle cx="73.035" cy="105.529" r="1" stroke="#BABABA" stroke-width="1.869"/><circle cx="79.224" cy="99.339" r="1" stroke="#BABABA" stroke-width="1.869"/><circle cx="79.224" cy="105.529" r="1" stroke="#BABABA" stroke-width="1.869"/><path d="M85.8 89.668a5.416 5.416 0 0 1 5.417 5.416v11.182a7 7 0 0 1-7 7h-9.598a7 7 0 0 1-7-7v-12.29a4.308 4.308 0 0 1 4.308-4.308 2.462 2.462 0 0 0 2.462-2.462v-.44" stroke="#BABABA" stroke-width="2"/><circle cx="85.414" cy="99.339" r="1" stroke="#19191B" stroke-width="1.869"/><circle cx="78.992" cy="99.339" r="1" stroke="#19191B" stroke-width="1.869"/><circle cx="72.699" cy="99.339" r="1" stroke="#BABABA" stroke-width="1.869"/><circle cx="85.414" cy="105.529" r="1" stroke="#BABABA" stroke-width="1.869"/><circle cx="78.992" cy="105.529" r="1" stroke="#19191B" stroke-width="1.869"/><circle cx="72.699" cy="105.529" r="1" stroke="#19191B" stroke-width="1.869"/><path d="M76.323 94.116h4.19a2 2 0 0 0 2-2v-.418c0-.907.736-1.644 1.644-1.644.908 0 1.644-.736 1.644-1.644v-1.644" stroke="#BABABA" stroke-width="2"/><rect x="101.558" y="188.784" width="23.077" height="23.077" rx="6.5" fill="#EBEBEB" stroke="#fff"/><path d="m106.312 197.887 1.22-1.569c.584-.752 1.789-.339 1.789.614v9.554M113.754 198.353v-1.204a2.517 2.517 0 0 1 5.034 0v.827c0 1.911-.817 3.73-2.245 4.999l-1.699 1.511c-.687.61-.255 1.747.664 1.747h3.718" stroke="#19191B" stroke-width="2"/><rect x="76.921" y="135.618" width="23.077" height="23.077" rx="6.5" fill="#EBEBEB" stroke="#fff"/><path d="m85.88 144.72 1.22-1.569c.585-.752 1.79-.338 1.79.614v9.554" stroke="#19191B" stroke-width="2"/><g filter="url(#a)"><rect x="166.5" y="139" width="28.017" height="3.064" rx="1.532" fill="#8C8C8C"/></g><g filter="url(#b)"><rect x="166.5" y="145.567" width="28.017" height="3.064" rx="1.532" fill="#8C8C8C"/></g><g filter="url(#c)"><rect x="166.5" y="152.133" width="15.322" height="3.064" rx="1.532" fill="#8C8C8C"/></g><g filter="url(#d)"><rect x="104.186" y="20.827" width="13.79" height="1.532" rx=".766" stroke="#D8D8D8" stroke-width="1.532"/></g><g filter="url(#e)"><rect x="104.186" y="27.394" width="13.79" height="1.532" rx=".766" stroke="#D8D8D8" stroke-width="1.532"/></g><g filter="url(#f)"><rect x="104.186" y="33.96" width="6.847" height="1.532" rx=".766" stroke="#D8D8D8" stroke-width="1.532"/></g><g filter="url(#g)"><rect x="25.266" y="79.809" width="13.79" height="1.532" rx=".766" stroke="#A6A6A6" stroke-width="1.532"/></g><g filter="url(#h)"><rect x="25.266" y="86.376" width="13.79" height="1.532" rx=".766" stroke="#A6A6A6" stroke-width="1.532"/></g><g filter="url(#i)"><rect x="25.266" y="92.943" width="6.847" height="1.532" rx=".766" stroke="#A6A6A6" stroke-width="1.532"/></g><g filter="url(#j)"><rect x="66.037" y="192.662" width="28.017" height="3.064" rx="1.532" fill="#A6A6A6"/></g><g filter="url(#k)"><rect x="66.037" y="199.229" width="28.017" height="3.064" rx="1.532" fill="#A6A6A6"/></g><g filter="url(#l)"><rect x="66.037" y="205.795" width="15.322" height="3.064" rx="1.532" fill="#A6A6A6"/></g><defs><filter id="a" x="142.5" y="119" width="76.017" height="51.064" filterUnits="userSpaceOnUse" color-interpolation-filters="sRGB"><feFlood flood-opacity="0" result="BackgroundImageFix"/><feColorMatrix in="SourceAlpha" values="0 0 0 0 0 0 0 0 0 0 0 0 0 0 0 0 0 0 127 0" result="hardAlpha"/><feOffset dy="4"/><feGaussianBlur stdDeviation="12"/><feColorMatrix values="0 0 0 0 0.172549 0 0 0 0 0.368627 0 0 0 0 0.662745 0 0 0 0.22 0"/><feBlend in2="BackgroundImageFix" result="effect1_dropShadow"/><feBlend in="SourceGraphic" in2="effect1_dropShadow" result="shape"/></filter><filter id="b" x="142.5" y="125.567" width="76.017" height="51.064" filterUnits="userSpaceOnUse" color-interpolation-filters="sRGB"><feFlood flood-opacity="0" result="BackgroundImageFix"/><feColorMatrix in="SourceAlpha" values="0 0 0 0 0 0 0 0 0 0 0 0 0 0 0 0 0 0 127 0" result="hardAlpha"/><feOffset dy="4"/><feGaussianBlur stdDeviation="12"/><feColorMatrix values="0 0 0 0 0.172549 0 0 0 0 0.368627 0 0 0 0 0.662745 0 0 0 0.22 0"/><feBlend in2="BackgroundImageFix" result="effect1_dropShadow"/><feBlend in="SourceGraphic" in2="effect1_dropShadow" result="shape"/></filter><filter id="c" x="142.5" y="132.133" width="63.322" height="51.064" filterUnits="userSpaceOnUse" color-interpolation-filters="sRGB"><feFlood flood-opacity="0" result="BackgroundImageFix"/><feColorMatrix in="SourceAlpha" values="0 0 0 0 0 0 0 0 0 0 0 0 0 0 0 0 0 0 127 0" result="hardAlpha"/><feOffset dy="4"/><feGaussianBlur stdDeviation="12"/><feColorMatrix values="0 0 0 0 0.172549 0 0 0 0 0.368627 0 0 0 0 0.662745 0 0 0 0.22 0"/><feBlend in2="BackgroundImageFix" result="effect1_dropShadow"/><feBlend in="SourceGraphic" in2="effect1_dropShadow" result="shape"/></filter><filter id="d" x="79.419" y=".061" width="63.322" height="51.064" filterUnits="userSpaceOnUse" color-interpolation-filters="sRGB"><feFlood flood-opacity="0" result="BackgroundImageFix"/><feColorMatrix in="SourceAlpha" values="0 0 0 0 0 0 0 0 0 0 0 0 0 0 0 0 0 0 127 0" result="hardAlpha"/><feOffset dy="4"/><feGaussianBlur stdDeviation="12"/><feColorMatrix values="0 0 0 0 0.172549 0 0 0 0 0.368627 0 0 0 0 0.662745 0 0 0 0.22 0"/><feBlend in2="BackgroundImageFix" result="effect1_dropShadow"/><feBlend in="SourceGraphic" in2="effect1_dropShadow" result="shape"/></filter><filter id="e" x="79.419" y="6.628" width="63.322" height="51.064" filterUnits="userSpaceOnUse" color-interpolation-filters="sRGB"><feFlood flood-opacity="0" result="BackgroundImageFix"/><feColorMatrix in="SourceAlpha" values="0 0 0 0 0 0 0 0 0 0 0 0 0 0 0 0 0 0 127 0" result="hardAlpha"/><feOffset dy="4"/><feGaussianBlur stdDeviation="12"/><feColorMatrix values="0 0 0 0 0.172549 0 0 0 0 0.368627 0 0 0 0 0.662745 0 0 0 0.22 0"/><feBlend in2="BackgroundImageFix" result="effect1_dropShadow"/><feBlend in="SourceGraphic" in2="effect1_dropShadow" result="shape"/></filter><filter id="f" x="79.419" y="13.194" width="56.379" height="51.064" filterUnits="userSpaceOnUse" color-interpolation-filters="sRGB"><feFlood flood-opacity="0" result="BackgroundImageFix"/><feColorMatrix in="SourceAlpha" values="0 0 0 0 0 0 0 0 0 0 0 0 0 0 0 0 0 0 127 0" result="hardAlpha"/><feOffset dy="4"/><feGaussianBlur stdDeviation="12"/><feColorMatrix values="0 0 0 0 0.172549 0 0 0 0 0.368627 0 0 0 0 0.662745 0 0 0 0.22 0"/><feBlend in2="BackgroundImageFix" result="effect1_dropShadow"/><feBlend in="SourceGraphic" in2="effect1_dropShadow" result="shape"/></filter><filter id="g" x=".5" y="59.043" width="63.322" height="51.064" filterUnits="userSpaceOnUse" color-interpolation-filters="sRGB"><feFlood flood-opacity="0" result="BackgroundImageFix"/><feColorMatrix in="SourceAlpha" values="0 0 0 0 0 0 0 0 0 0 0 0 0 0 0 0 0 0 127 0" result="hardAlpha"/><feOffset dy="4"/><feGaussianBlur stdDeviation="12"/><feColorMatrix values="0 0 0 0 0.172549 0 0 0 0 0.368627 0 0 0 0 0.662745 0 0 0 0.22 0"/><feBlend in2="BackgroundImageFix" result="effect1_dropShadow"/><feBlend in="SourceGraphic" in2="effect1_dropShadow" result="shape"/></filter><filter id="h" x=".5" y="65.61" width="63.322" height="51.064" filterUnits="userSpaceOnUse" color-interpolation-filters="sRGB"><feFlood flood-opacity="0" result="BackgroundImageFix"/><feColorMatrix in="SourceAlpha" values="0 0 0 0 0 0 0 0 0 0 0 0 0 0 0 0 0 0 127 0" result="hardAlpha"/><feOffset dy="4"/><feGaussianBlur stdDeviation="12"/><feColorMatrix values="0 0 0 0 0.172549 0 0 0 0 0.368627 0 0 0 0 0.662745 0 0 0 0.22 0"/><feBlend in2="BackgroundImageFix" result="effect1_dropShadow"/><feBlend in="SourceGraphic" in2="effect1_dropShadow" result="shape"/></filter><filter id="i" x=".5" y="72.177" width="56.379" height="51.064" filterUnits="userSpaceOnUse" color-interpolation-filters="sRGB"><feFlood flood-opacity="0" result="BackgroundImageFix"/><feColorMatrix in="SourceAlpha" values="0 0 0 0 0 0 0 0 0 0 0 0 0 0 0 0 0 0 127 0" result="hardAlpha"/><feOffset dy="4"/><feGaussianBlur stdDeviation="12"/><feColorMatrix values="0 0 0 0 0.172549 0 0 0 0 0.368627 0 0 0 0 0.662745 0 0 0 0.22 0"/><feBlend in2="BackgroundImageFix" result="effect1_dropShadow"/><feBlend in="SourceGraphic" in2="effect1_dropShadow" result="shape"/></filter><filter id="j" x="42.037" y="172.662" width="76.017" height="51.064" filterUnits="userSpaceOnUse" color-interpolation-filters="sRGB"><feFlood flood-opacity="0" result="BackgroundImageFix"/><feColorMatrix in="SourceAlpha" values="0 0 0 0 0 0 0 0 0 0 0 0 0 0 0 0 0 0 127 0" result="hardAlpha"/><feOffset dy="4"/><feGaussianBlur stdDeviation="12"/><feColorMatrix values="0 0 0 0 0.172549 0 0 0 0 0.368627 0 0 0 0 0.662745 0 0 0 0.22 0"/><feBlend in2="BackgroundImageFix" result="effect1_dropShadow"/><feBlend in="SourceGraphic" in2="effect1_dropShadow" result="shape"/></filter><filter id="k" x="42.037" y="179.229" width="76.017" height="51.064" filterUnits="userSpaceOnUse" color-interpolation-filters="sRGB"><feFlood flood-opacity="0" result="BackgroundImageFix"/><feColorMatrix in="SourceAlpha" values="0 0 0 0 0 0 0 0 0 0 0 0 0 0 0 0 0 0 127 0" result="hardAlpha"/><feOffset dy="4"/><feGaussianBlur stdDeviation="12"/><feColorMatrix values="0 0 0 0 0.172549 0 0 0 0 0.368627 0 0 0 0 0.662745 0 0 0 0.22 0"/><feBlend in2="BackgroundImageFix" result="effect1_dropShadow"/><feBlend in="SourceGraphic" in2="effect1_dropShadow" result="shape"/></filter><filter id="l" x="42.037" y="185.795" width="63.322" height="51.064" filterUnits="userSpaceOnUse" color-interpolation-filters="sRGB"><feFlood flood-opacity="0" result="BackgroundImageFix"/><feColorMatrix in="SourceAlpha" values="0 0 0 0 0 0 0 0 0 0 0 0 0 0 0 0 0 0 127 0" result="hardAlpha"/><feOffset dy="4"/><feGaussianBlur stdDeviation="12"/><feColorMatrix values="0 0 0 0 0.172549 0 0 0 0 0.368627 0 0 0 0 0.662745 0 0 0 0.22 0"/><feBlend in2="BackgroundImageFix" result="effect1_dropShadow"/><feBlend in="SourceGraphic" in2="effect1_dropShadow" result="shape"/></filter></defs></svg>