<svg width="245" height="238" viewBox="0 0 245 238" fill="none" xmlns="http://www.w3.org/2000/svg">
<path d="M143.829 60.8051C143.829 60.8051 133.091 91.3925 154.82 94.1917C176.55 96.9909 183.216 76.2769 183.216 76.2769C183.216 76.2769 191.765 77.9564 195.226 70.1187C198.635 62.281 194.971 56.8862 187.643 60.4997" stroke="#19191B" stroke-width="3" stroke-miterlimit="10"/>
<path d="M171.665 90.8838C171.665 90.8838 168.357 102.437 176.244 105.745" stroke="#19191B" stroke-width="3" stroke-miterlimit="10" stroke-linejoin="round"/>
<path d="M140.572 106.814C140.572 106.814 141.386 116.025 156.042 116.433C173.293 116.942 176.295 105.439 176.295 105.439C176.295 105.439 191.155 106.814 204.691 112.87C228.557 122.285 235.682 162.492 229.83 184.122C220.873 217.458 190.544 226.517 166.678 227.637C161.996 227.84 154.566 228.196 144.338 231.301C134.109 234.406 120.064 237.357 119.046 235.271C118.028 233.184 134.771 229.571 134.771 229.571C134.771 229.571 113.601 235.78 112.024 232.777C110.446 229.774 130.801 225.041 131.209 224.634C131.616 224.227 107.593 231.708 108 227.637C108.458 223.565 128.511 220.359 128.511 220.359C128.511 220.359 113.703 221.419 112.024 217.5C110.293 213.581 142.455 213.997 142.455 213.997C142.455 213.997 125.763 210.326 128.511 206C129.835 203.964 140.216 208.551 151.92 211.656" stroke="#19191B" stroke-width="3" stroke-miterlimit="10" stroke-linejoin="round"/>
<path d="M137.722 151.244C135.33 165.8 137.162 192.927 136.246 204.53" stroke="#19191B" stroke-width="3"/>
<path d="M150.953 211.35C169.12 215.829 186.931 202.851 196.447 188.55C203.113 178.574 204.945 161.932 202.859 156.028" stroke="#19191B" stroke-width="3"/>
<path d="M194.106 59.3291C196.294 56.7335 206.828 40.7018 201.383 27.1639C195.582 15.7636 176.652 9.65631 157.467 14.8984C137.468 20.3441 136.399 40.7018 136.399 40.7018C136.399 40.7018 143.269 54.2397 180.112 36.8338" stroke="#19191B" stroke-width="3" stroke-miterlimit="10"/>
<path d="M141.132 58.7182C141.132 58.7182 143.727 57.5477 148.561 58.1584C153.396 58.8709 155.431 61.5174 155.431 61.5174L151.157 71.6454C150.19 73.8847 151.971 76.3277 154.414 76.1241L155.991 76.0223" stroke="#19191B" stroke-width="3" stroke-miterlimit="10"/>
<path d="M150.953 83.7075C153.294 86.5576 158.739 84.9799 161.08 83.7075" stroke="#19191B" stroke-width="3" stroke-miterlimit="10"/>
<path d="M150.495 93.1228C150.648 93.6826 151.208 98.9757 147.646 103.658C144.083 108.289 141.132 108.747 141.132 108.747" stroke="#19191B" stroke-width="3" stroke-miterlimit="10" stroke-linejoin="round"/>
<path d="M159.248 60.0925C159.248 60.0925 161.843 58.9219 166.677 59.5327C171.512 60.2452 173.547 62.8917 173.547 62.8917" stroke="#19191B" stroke-width="3" stroke-miterlimit="10"/>
<path d="M149.07 64.1133C150.11 64.1133 150.953 63.2703 150.953 62.2303C150.953 61.1903 150.11 60.3472 149.07 60.3472C148.03 60.3472 147.188 61.1903 147.188 62.2303C147.188 63.2703 148.03 64.1133 149.07 64.1133Z" fill="#19191B"/>
<path d="M168.306 65.9962C169.346 65.9962 170.189 65.1531 170.189 64.1131C170.189 63.0731 169.346 62.23 168.306 62.23C167.266 62.23 166.423 63.0731 166.423 64.1131C166.423 65.1531 167.266 65.9962 168.306 65.9962Z" fill="#19191B"/>
<path d="M166.729 210.485C166.729 210.485 176.499 216.185 170.8 227.382" stroke="#19191B" stroke-width="3"/>
<path d="M179.399 37.1902C179.399 37.1902 174.616 41.7198 179.654 45.2824C183.674 48.1325 178.687 49.7102 181.028 53.3746C184.285 58.464 183.929 63.8079 184.539 63.8079C184.539 63.8079 185.913 60.398 189.17 59.8381" stroke="#19191B" stroke-width="3" stroke-miterlimit="10"/>
<path d="M140.572 106.814C115.637 110.071 122.257 180.723 115.591 210.699" stroke="#19191B" stroke-width="3" stroke-miterlimit="10" stroke-linejoin="round"/>
<path d="M66.1228 223.176H95.8912" stroke="#19191B" stroke-width="3" stroke-miterlimit="10" stroke-linejoin="round"/>
<path d="M59.2019 218.934C58.9984 219.646 52.79 227.382 52.79 227.382" stroke="#19191B" stroke-width="3" stroke-miterlimit="10" stroke-linejoin="round"/>
<path d="M111.432 218.934H91.5156H58.4384L39.7498 134.308L31.9766 136.078L52.0265 227.382H105.001" stroke="#19191B" stroke-width="3" stroke-miterlimit="10" stroke-linejoin="round"/>
<path d="M244 97.2501C244 106.447 238.104 115.514 232.115 122.336C229.13 125.735 226.144 128.552 223.904 130.52C222.784 131.503 221.851 132.274 221.2 132.797C220.896 133.042 220.653 133.232 220.481 133.366C220.309 133.232 220.066 133.042 219.762 132.797C219.11 132.274 218.178 131.503 217.058 130.52C214.817 128.552 211.831 125.735 208.847 122.336C202.857 115.514 196.962 106.447 196.962 97.2501C196.962 84.293 207.476 73.728 220.481 73.728C233.486 73.728 244 84.2428 244 97.2501Z" fill="#EBEBEB" stroke="white"/>
<path d="M238.851 98.7259C238.851 113.129 220.481 126.87 220.481 126.87C220.481 126.87 202.11 113.078 202.11 98.7259C202.161 88.5979 210.354 80.353 220.532 80.353C230.658 80.353 238.851 88.5979 238.851 98.7259Z" stroke="#19191B" stroke-width="3" stroke-miterlimit="10"/>
<path d="M220.532 101.576C222.443 101.576 223.992 100.026 223.992 98.1151C223.992 96.2038 222.443 94.6543 220.532 94.6543C218.621 94.6543 217.071 96.2038 217.071 98.1151C217.071 100.026 218.621 101.576 220.532 101.576Z" stroke="#19191B" stroke-width="3" stroke-miterlimit="10"/>
<rect x="61.5522" y="82.4507" width="35.7728" height="35.7728" rx="6.5" fill="#EBEBEB" stroke="white"/>
<circle cx="73.0346" cy="99.3388" r="1" stroke="#BABABA" stroke-width="1.86854"/>
<circle cx="73.0346" cy="105.529" r="1" stroke="#BABABA" stroke-width="1.86854"/>
<circle cx="79.2241" cy="99.3388" r="1" stroke="#BABABA" stroke-width="1.86854"/>
<circle cx="79.2241" cy="105.529" r="1" stroke="#BABABA" stroke-width="1.86854"/>
<path d="M85.8008 89.6678V89.6678C88.7919 89.6678 91.2167 92.0926 91.2167 95.0837V106.266C91.2167 110.132 88.0827 113.266 84.2167 113.266H74.6187C70.7527 113.266 67.6187 110.132 67.6187 106.266V93.9759C67.6187 91.5966 69.5475 89.6678 71.9268 89.6678V89.6678C73.2864 89.6678 74.3886 88.5656 74.3886 87.206V86.7664" stroke="#BABABA" stroke-width="2"/>
<circle cx="85.4138" cy="99.3391" r="1" stroke="#19191B" stroke-width="1.86854"/>
<circle cx="78.9921" cy="99.3391" r="1" stroke="#19191B" stroke-width="1.86854"/>
<circle cx="72.6992" cy="99.3391" r="1" stroke="#BABABA" stroke-width="1.86854"/>
<circle cx="85.4138" cy="105.529" r="1" stroke="#BABABA" stroke-width="1.86854"/>
<circle cx="78.9921" cy="105.529" r="1" stroke="#19191B" stroke-width="1.86854"/>
<circle cx="72.6992" cy="105.529" r="1" stroke="#19191B" stroke-width="1.86854"/>
<path d="M76.323 94.1163H80.5127C81.6172 94.1163 82.5127 93.2209 82.5127 92.1163V91.6985C82.5127 90.7905 83.2488 90.0544 84.1568 90.0544V90.0544C85.0648 90.0544 85.8009 89.3183 85.8009 88.4102V86.7661" stroke="#BABABA" stroke-width="2"/>
<rect x="101.558" y="188.784" width="23.0774" height="23.0774" rx="6.5" fill="#EBEBEB" stroke="white"/>
<path d="M106.312 197.887L107.532 196.318C108.116 195.566 109.321 195.979 109.321 196.932V206.486" stroke="#19191B" stroke-width="2"/>
<path d="M113.754 198.353V197.149C113.754 195.759 114.881 194.632 116.271 194.632V194.632C117.661 194.632 118.788 195.759 118.788 197.149V197.976C118.788 199.887 117.971 201.706 116.543 202.975L114.844 204.486C114.157 205.096 114.589 206.233 115.508 206.233H119.226" stroke="#19191B" stroke-width="2"/>
<rect x="76.9207" y="135.618" width="23.0774" height="23.0774" rx="6.5" fill="#EBEBEB" stroke="white"/>
<path d="M85.8796 144.72L87.1 143.151C87.6845 142.399 88.8893 142.813 88.8893 143.765V153.319" stroke="#19191B" stroke-width="2"/>
<g filter="url(#filter0_d)">
<rect x="166.5" y="139" width="28.0173" height="3.0644" rx="1.5322" fill="#8C8C8C"/>
</g>
<g filter="url(#filter1_d)">
<rect x="166.5" y="145.567" width="28.0173" height="3.0644" rx="1.5322" fill="#8C8C8C"/>
</g>
<g filter="url(#filter2_d)">
<rect x="166.5" y="152.133" width="15.322" height="3.0644" rx="1.5322" fill="#8C8C8C"/>
</g>
<g filter="url(#filter3_d)">
<rect x="104.186" y="20.8274" width="13.7898" height="1.5322" rx="0.766099" stroke="#D8D8D8" stroke-width="1.5322"/>
</g>
<g filter="url(#filter4_d)">
<rect x="104.186" y="27.394" width="13.7898" height="1.5322" rx="0.766099" stroke="#D8D8D8" stroke-width="1.5322"/>
</g>
<g filter="url(#filter5_d)">
<rect x="104.186" y="33.9604" width="6.84701" height="1.5322" rx="0.766099" stroke="#D8D8D8" stroke-width="1.5322"/>
</g>
<g filter="url(#filter6_d)">
<rect x="25.2661" y="79.8093" width="13.7898" height="1.5322" rx="0.766099" stroke="#A6A6A6" stroke-width="1.5322"/>
</g>
<g filter="url(#filter7_d)">
<rect x="25.2661" y="86.376" width="13.7898" height="1.5322" rx="0.766099" stroke="#A6A6A6" stroke-width="1.5322"/>
</g>
<g filter="url(#filter8_d)">
<rect x="25.2661" y="92.9426" width="6.84701" height="1.5322" rx="0.766099" stroke="#A6A6A6" stroke-width="1.5322"/>
</g>
<g filter="url(#filter9_d)">
<rect x="66.0366" y="192.662" width="28.0173" height="3.0644" rx="1.5322" fill="#A6A6A6"/>
</g>
<g filter="url(#filter10_d)">
<rect x="66.0366" y="199.229" width="28.0173" height="3.0644" rx="1.5322" fill="#A6A6A6"/>
</g>
<g filter="url(#filter11_d)">
<rect x="66.0366" y="205.795" width="15.322" height="3.0644" rx="1.5322" fill="#A6A6A6"/>
</g>
<defs>
<filter id="filter0_d" x="142.5" y="119" width="76.0173" height="51.0644" filterUnits="userSpaceOnUse" color-interpolation-filters="sRGB">
<feFlood flood-opacity="0" result="BackgroundImageFix"/>
<feColorMatrix in="SourceAlpha" type="matrix" values="0 0 0 0 0 0 0 0 0 0 0 0 0 0 0 0 0 0 127 0" result="hardAlpha"/>
<feOffset dy="4"/>
<feGaussianBlur stdDeviation="12"/>
<feColorMatrix type="matrix" values="0 0 0 0 0.172549 0 0 0 0 0.368627 0 0 0 0 0.662745 0 0 0 0.22 0"/>
<feBlend mode="normal" in2="BackgroundImageFix" result="effect1_dropShadow"/>
<feBlend mode="normal" in="SourceGraphic" in2="effect1_dropShadow" result="shape"/>
</filter>
<filter id="filter1_d" x="142.5" y="125.567" width="76.0173" height="51.0644" filterUnits="userSpaceOnUse" color-interpolation-filters="sRGB">
<feFlood flood-opacity="0" result="BackgroundImageFix"/>
<feColorMatrix in="SourceAlpha" type="matrix" values="0 0 0 0 0 0 0 0 0 0 0 0 0 0 0 0 0 0 127 0" result="hardAlpha"/>
<feOffset dy="4"/>
<feGaussianBlur stdDeviation="12"/>
<feColorMatrix type="matrix" values="0 0 0 0 0.172549 0 0 0 0 0.368627 0 0 0 0 0.662745 0 0 0 0.22 0"/>
<feBlend mode="normal" in2="BackgroundImageFix" result="effect1_dropShadow"/>
<feBlend mode="normal" in="SourceGraphic" in2="effect1_dropShadow" result="shape"/>
</filter>
<filter id="filter2_d" x="142.5" y="132.133" width="63.322" height="51.0644" filterUnits="userSpaceOnUse" color-interpolation-filters="sRGB">
<feFlood flood-opacity="0" result="BackgroundImageFix"/>
<feColorMatrix in="SourceAlpha" type="matrix" values="0 0 0 0 0 0 0 0 0 0 0 0 0 0 0 0 0 0 127 0" result="hardAlpha"/>
<feOffset dy="4"/>
<feGaussianBlur stdDeviation="12"/>
<feColorMatrix type="matrix" values="0 0 0 0 0.172549 0 0 0 0 0.368627 0 0 0 0 0.662745 0 0 0 0.22 0"/>
<feBlend mode="normal" in2="BackgroundImageFix" result="effect1_dropShadow"/>
<feBlend mode="normal" in="SourceGraphic" in2="effect1_dropShadow" result="shape"/>
</filter>
<filter id="filter3_d" x="79.4194" y="0.0612793" width="63.322" height="51.0644" filterUnits="userSpaceOnUse" color-interpolation-filters="sRGB">
<feFlood flood-opacity="0" result="BackgroundImageFix"/>
<feColorMatrix in="SourceAlpha" type="matrix" values="0 0 0 0 0 0 0 0 0 0 0 0 0 0 0 0 0 0 127 0" result="hardAlpha"/>
<feOffset dy="4"/>
<feGaussianBlur stdDeviation="12"/>
<feColorMatrix type="matrix" values="0 0 0 0 0.172549 0 0 0 0 0.368627 0 0 0 0 0.662745 0 0 0 0.22 0"/>
<feBlend mode="normal" in2="BackgroundImageFix" result="effect1_dropShadow"/>
<feBlend mode="normal" in="SourceGraphic" in2="effect1_dropShadow" result="shape"/>
</filter>
<filter id="filter4_d" x="79.4194" y="6.62793" width="63.322" height="51.0644" filterUnits="userSpaceOnUse" color-interpolation-filters="sRGB">
<feFlood flood-opacity="0" result="BackgroundImageFix"/>
<feColorMatrix in="SourceAlpha" type="matrix" values="0 0 0 0 0 0 0 0 0 0 0 0 0 0 0 0 0 0 127 0" result="hardAlpha"/>
<feOffset dy="4"/>
<feGaussianBlur stdDeviation="12"/>
<feColorMatrix type="matrix" values="0 0 0 0 0.172549 0 0 0 0 0.368627 0 0 0 0 0.662745 0 0 0 0.22 0"/>
<feBlend mode="normal" in2="BackgroundImageFix" result="effect1_dropShadow"/>
<feBlend mode="normal" in="SourceGraphic" in2="effect1_dropShadow" result="shape"/>
</filter>
<filter id="filter5_d" x="79.4194" y="13.1943" width="56.3792" height="51.0644" filterUnits="userSpaceOnUse" color-interpolation-filters="sRGB">
<feFlood flood-opacity="0" result="BackgroundImageFix"/>
<feColorMatrix in="SourceAlpha" type="matrix" values="0 0 0 0 0 0 0 0 0 0 0 0 0 0 0 0 0 0 127 0" result="hardAlpha"/>
<feOffset dy="4"/>
<feGaussianBlur stdDeviation="12"/>
<feColorMatrix type="matrix" values="0 0 0 0 0.172549 0 0 0 0 0.368627 0 0 0 0 0.662745 0 0 0 0.22 0"/>
<feBlend mode="normal" in2="BackgroundImageFix" result="effect1_dropShadow"/>
<feBlend mode="normal" in="SourceGraphic" in2="effect1_dropShadow" result="shape"/>
</filter>
<filter id="filter6_d" x="0.5" y="59.0432" width="63.322" height="51.0644" filterUnits="userSpaceOnUse" color-interpolation-filters="sRGB">
<feFlood flood-opacity="0" result="BackgroundImageFix"/>
<feColorMatrix in="SourceAlpha" type="matrix" values="0 0 0 0 0 0 0 0 0 0 0 0 0 0 0 0 0 0 127 0" result="hardAlpha"/>
<feOffset dy="4"/>
<feGaussianBlur stdDeviation="12"/>
<feColorMatrix type="matrix" values="0 0 0 0 0.172549 0 0 0 0 0.368627 0 0 0 0 0.662745 0 0 0 0.22 0"/>
<feBlend mode="normal" in2="BackgroundImageFix" result="effect1_dropShadow"/>
<feBlend mode="normal" in="SourceGraphic" in2="effect1_dropShadow" result="shape"/>
</filter>
<filter id="filter7_d" x="0.5" y="65.6099" width="63.322" height="51.0644" filterUnits="userSpaceOnUse" color-interpolation-filters="sRGB">
<feFlood flood-opacity="0" result="BackgroundImageFix"/>
<feColorMatrix in="SourceAlpha" type="matrix" values="0 0 0 0 0 0 0 0 0 0 0 0 0 0 0 0 0 0 127 0" result="hardAlpha"/>
<feOffset dy="4"/>
<feGaussianBlur stdDeviation="12"/>
<feColorMatrix type="matrix" values="0 0 0 0 0.172549 0 0 0 0 0.368627 0 0 0 0 0.662745 0 0 0 0.22 0"/>
<feBlend mode="normal" in2="BackgroundImageFix" result="effect1_dropShadow"/>
<feBlend mode="normal" in="SourceGraphic" in2="effect1_dropShadow" result="shape"/>
</filter>
<filter id="filter8_d" x="0.5" y="72.1765" width="56.3792" height="51.0644" filterUnits="userSpaceOnUse" color-interpolation-filters="sRGB">
<feFlood flood-opacity="0" result="BackgroundImageFix"/>
<feColorMatrix in="SourceAlpha" type="matrix" values="0 0 0 0 0 0 0 0 0 0 0 0 0 0 0 0 0 0 127 0" result="hardAlpha"/>
<feOffset dy="4"/>
<feGaussianBlur stdDeviation="12"/>
<feColorMatrix type="matrix" values="0 0 0 0 0.172549 0 0 0 0 0.368627 0 0 0 0 0.662745 0 0 0 0.22 0"/>
<feBlend mode="normal" in2="BackgroundImageFix" result="effect1_dropShadow"/>
<feBlend mode="normal" in="SourceGraphic" in2="effect1_dropShadow" result="shape"/>
</filter>
<filter id="filter9_d" x="42.0366" y="172.662" width="76.0173" height="51.0644" filterUnits="userSpaceOnUse" color-interpolation-filters="sRGB">
<feFlood flood-opacity="0" result="BackgroundImageFix"/>
<feColorMatrix in="SourceAlpha" type="matrix" values="0 0 0 0 0 0 0 0 0 0 0 0 0 0 0 0 0 0 127 0" result="hardAlpha"/>
<feOffset dy="4"/>
<feGaussianBlur stdDeviation="12"/>
<feColorMatrix type="matrix" values="0 0 0 0 0.172549 0 0 0 0 0.368627 0 0 0 0 0.662745 0 0 0 0.22 0"/>
<feBlend mode="normal" in2="BackgroundImageFix" result="effect1_dropShadow"/>
<feBlend mode="normal" in="SourceGraphic" in2="effect1_dropShadow" result="shape"/>
</filter>
<filter id="filter10_d" x="42.0366" y="179.229" width="76.0173" height="51.0644" filterUnits="userSpaceOnUse" color-interpolation-filters="sRGB">
<feFlood flood-opacity="0" result="BackgroundImageFix"/>
<feColorMatrix in="SourceAlpha" type="matrix" values="0 0 0 0 0 0 0 0 0 0 0 0 0 0 0 0 0 0 127 0" result="hardAlpha"/>
<feOffset dy="4"/>
<feGaussianBlur stdDeviation="12"/>
<feColorMatrix type="matrix" values="0 0 0 0 0.172549 0 0 0 0 0.368627 0 0 0 0 0.662745 0 0 0 0.22 0"/>
<feBlend mode="normal" in2="BackgroundImageFix" result="effect1_dropShadow"/>
<feBlend mode="normal" in="SourceGraphic" in2="effect1_dropShadow" result="shape"/>
</filter>
<filter id="filter11_d" x="42.0366" y="185.795" width="63.322" height="51.0644" filterUnits="userSpaceOnUse" color-interpolation-filters="sRGB">
<feFlood flood-opacity="0" result="BackgroundImageFix"/>
<feColorMatrix in="SourceAlpha" type="matrix" values="0 0 0 0 0 0 0 0 0 0 0 0 0 0 0 0 0 0 127 0" result="hardAlpha"/>
<feOffset dy="4"/>
<feGaussianBlur stdDeviation="12"/>
<feColorMatrix type="matrix" values="0 0 0 0 0.172549 0 0 0 0 0.368627 0 0 0 0 0.662745 0 0 0 0.22 0"/>
<feBlend mode="normal" in2="BackgroundImageFix" result="effect1_dropShadow"/>
<feBlend mode="normal" in="SourceGraphic" in2="effect1_dropShadow" result="shape"/>
</filter>
</defs>
</svg>
