<svg width="239" height="263" viewBox="0 0 239 263" fill="none" xmlns="http://www.w3.org/2000/svg">
<path d="M2.14989 36.9886L26.142 90.2033C27.0701 92.2617 29.3929 93.1409 31.4513 92.2128L70.3331 74.6828C72.3153 73.7891 73.2364 71.3556 72.3427 69.3734L53.369 27.2896C52.8534 26.146 51.8042 25.2431 50.5799 24.9694L30.8056 20.583C29.9894 20.4006 29.0896 20.4394 28.3272 20.7831L4.15946 31.6792C2.10102 32.6073 1.2562 35.0064 2.14989 36.9886Z" fill="white"/>
<path d="M29.9454 28.0347L10.6569 36.731C9.2084 37.3841 8.5804 39.0433 9.27535 40.3812L29.3446 84.081C29.9633 85.4533 31.6225 86.0813 32.9948 85.4626L64.5576 71.2323C65.9299 70.6136 66.5579 68.9545 65.9392 67.5822L50.7809 33.9608C50.1278 32.5123 48.4686 31.8843 47.0545 32.6136L39.7699 35.9896C38.3976 36.6083 36.6966 36.091 36.0435 34.6424L34.6955 31.856C33.7674 29.7975 35.4284 27.5809 37.5868 27.892L44.9203 28.8973C45.8889 29.011 46.7244 29.6434 47.1025 30.482L50.8566 38.6052C51.5097 40.0538 50.8817 41.7129 49.4332 42.366L24.5106 53.419C23.062 54.0721 22.434 55.7313 23.0528 57.1036L24.7714 60.9155C25.3901 62.2878 27.0493 62.9158 28.4216 62.2971L49.8865 52.5278C51.2588 51.9091 52.918 52.537 53.5367 53.9093L54.5335 56.1203C55.1522 57.4926 54.5242 59.1517 53.1519 59.7704L31.687 69.5398C30.2384 70.1929 29.6104 71.852 30.3398 73.2662L31.2334 75.2484C31.8522 76.6207 33.5113 77.2487 34.9599 76.5956L59.2457 65.5545" stroke="#A6A6A6" stroke-width="3" stroke-miterlimit="10"/>
<mask id="mask0" style="mask-type:alpha" maskUnits="userSpaceOnUse" x="157" y="236" width="34" height="27">
<path d="M177.67 240.523C172.42 241.31 162.359 242.163 157.984 242.492C159.078 248.616 161.528 261.062 162.577 261.849C163.89 262.833 167.827 261.849 170.124 261.849C172.42 261.849 180.622 260.865 183.247 259.88C185.872 258.896 190.793 249.381 190.793 248.725V236.258C188.606 237.351 182.919 239.736 177.67 240.523Z" fill="black"/>
</mask>
<g mask="url(#mask0)">
<circle cx="175.497" cy="243.272" r="14.0544" transform="rotate(-21.0805 175.497 243.272)" fill="white"/>
<path d="M174.298 250.61L170.716 241.316C170.43 240.575 170.798 239.746 171.539 239.46L177.412 237.196C178.153 236.91 178.983 237.278 179.268 238.019L180.257 240.585C180.543 241.326 180.175 242.156 179.434 242.442L171.366 245.552C170.625 245.837 170.257 246.667 170.543 247.408C170.828 248.149 171.658 248.517 172.399 248.231L176.419 246.682" stroke="#BABABA" stroke-width="2" stroke-miterlimit="10"/>
<path d="M179.517 253.87C185.232 251.667 188.08 245.248 185.876 239.533C183.673 233.817 177.254 230.97 171.539 233.173C165.823 235.376 162.976 241.796 165.179 247.511C167.382 253.226 173.802 256.073 179.517 253.87Z" stroke="#BABABA" stroke-width="2" stroke-miterlimit="10"/>
</g>
<mask id="mask1" style="mask-type:alpha" maskUnits="userSpaceOnUse" x="125" y="187" width="38" height="39">
<path d="M142.236 225.103C134.362 224.315 127.8 221.056 125.503 219.525L131.409 193.278C132.284 192.075 134.034 189.406 134.034 188.356C134.034 187.306 144.97 187.919 150.438 188.356L162.249 193.278V221.494C158.859 223.025 150.11 225.89 142.236 225.103Z" fill="#D1D1D1"/>
</mask>
<g mask="url(#mask1)">
<path d="M149.363 193.811C138.354 191.81 137.995 204.216 139.192 210.669C136.141 210.987 129.776 213.073 128.723 218.868C127.407 226.111 132.938 228.613 142.717 230.389C152.495 232.166 158.125 232.067 159.507 224.461C160.613 218.377 155.116 214.31 152.23 213.038C155.862 207.462 160.373 195.811 149.363 193.811Z" fill="white"/>
<path d="M131.618 219.409C130.727 224.311 137.707 225.327 143.31 226.345C148.912 227.362 155.747 229.364 156.916 224.259C158.252 218.424 152.465 215.991 148.916 213.689C146.204 211.93 151.577 211.786 152.965 206.575C154.701 200.053 152.167 197.313 148.699 196.683C144.698 195.956 142.074 198.265 141.049 203.903C140.025 209.541 145.004 212.472 142.78 212.574C140.557 212.677 132.509 214.506 131.618 219.409Z" stroke="#A6A6A6" stroke-width="2"/>
</g>
<path d="M128.757 58.7386C128.757 58.7386 116.92 92.4487 140.864 95.5454C164.808 98.6422 172.162 75.8149 172.162 75.8149C172.162 75.8149 181.578 77.6729 185.434 69.0021C189.201 60.3312 185.165 54.4032 177.094 58.3847" stroke="#19191B" stroke-width="3" stroke-miterlimit="10"/>
<path d="M157.447 91.8972C157.447 91.8972 155.826 104.663 164.546 108.302" stroke="#19191B" stroke-width="3" stroke-miterlimit="10" stroke-linejoin="round"/>
<path d="M68.0609 168.751C67.0758 167.615 58.8168 152.764 58.9683 139.504C59.0441 126.244 70.7129 106.164 65.3331 104.346C59.9533 102.603 55.9375 121.546 55.9375 121.546C55.9375 121.546 38.5101 82.6754 34.7215 85.6305C31.0087 88.5855 39.5709 108.286 39.5709 108.286C39.5709 108.286 36.6158 79.6445 32.1453 80.2507C27.6748 80.8569 36.3127 112.605 35.7823 112.302C35.2519 111.999 24.1893 89.2675 21.3858 91.7679C18.5823 94.2684 31.5391 117.454 31.5391 117.454C31.5391 117.454 23.1285 100.557 21.1585 102.224C19.2642 103.891 26.2352 118.061 32.2969 128.214C38.3585 138.291 41.3894 147.005 42.2986 151.097C43.2079 155.188 45.1206 262.177 108.442 167.03" stroke="#19191B" stroke-width="3" stroke-miterlimit="10" stroke-linejoin="round"/>
<path d="M65.1816 163.447C65.1816 163.447 78.2901 136.018 95.869 120.561C110.341 107.831 125.192 109.498 125.192 109.498C125.192 109.498 125.44 123.595 141.58 124.05C160.603 124.586 164.593 107.983 164.593 107.983C164.593 107.983 180.974 109.498 195.887 116.166C228.196 130.612 242.426 170.994 235.985 194.862C226.135 231.611 180.295 241.507 153.94 242.749C148.798 242.992 140.604 243.356 129.314 246.765C118.024 250.175 102.567 253.433 101.431 251.16C100.294 248.887 118.782 244.871 118.782 244.871C118.782 244.871 95.421 251.731 93.6783 248.397C91.9356 245.063 114.387 239.87 114.842 239.415C115.297 238.961 88.3023 245.977 88.7569 241.507C89.2873 237.036 111.887 234.718 111.887 234.718C111.887 234.718 95.5726 237.952 93.6783 233.633C91.784 229.314 127.269 227.671 127.269 227.671C127.269 227.671 110.372 219.336 113.402 214.562C114.842 212.295 124.798 221.685 137.679 225.095" stroke="#19191B" stroke-width="3" stroke-miterlimit="10" stroke-linejoin="round"/>
<path d="M108.771 141.767C106.146 157.844 110.739 184.419 109.755 197.215" stroke="#19191B" stroke-width="3"/>
<path d="M136.658 224.774C156.672 229.696 186.528 208.698 197.027 192.949C204.352 181.962 199.324 168.999 197.027 162.437" stroke="#19191B" stroke-width="3"/>
<path d="M43.1521 152.922C45.1207 153.25 51.6825 153.578 56.2758 151.282" stroke="#19191B" stroke-width="3"/>
<path d="M149.03 225.105C148.704 227.074 148.386 233.637 150.689 238.226" stroke="#19191B" stroke-width="3"/>
<path d="M184.233 57.1195C186.66 54.2365 200.235 34.5967 192.234 21.6237C184.233 8.65059 172.635 7.29923 152.048 8.29023C131.461 9.28123 133.529 0.722603 132.27 2.16406C131.191 3.33524 131.82 11.5335 134.967 14.1461C137.664 16.4885 128.045 20.5426 119.864 9.91187C117.976 14.7768 120.673 20.5426 122.561 24.4165C125.168 30.0021 114.02 28.3805 114.02 28.3805C114.02 28.3805 127.235 65.1375 168.5 41.6238" stroke="#19191B" stroke-width="3" stroke-miterlimit="10"/>
<path d="M125.831 56.4631C125.831 56.4631 127.903 60.3484 133.257 61.0392C138.61 61.8162 141.632 59.5714 141.632 59.5714L134.638 76.1487L142.236 75.5443" stroke="#19191B" stroke-width="3" stroke-miterlimit="10"/>
<path d="M151.422 58.9107C152.343 59.4694 153.541 59.5492 154.646 59.629C158.882 59.7886 163.395 60.028 167.171 58.4319" stroke="#19191B" stroke-width="3" stroke-miterlimit="10"/>
<path d="M138.955 85.9506C141.641 86.0873 144.328 85.8823 146.829 85.3354" stroke="#19191B" stroke-width="3" stroke-miterlimit="10"/>
<path d="M137.523 93.8657C137.674 94.4963 138.253 100.61 134.338 105.781C130.423 110.889 125.831 111.583 125.831 111.583" stroke="#19191B" stroke-width="3" stroke-miterlimit="10" stroke-linejoin="round"/>
<g filter="url(#filter0_d)">
<circle cx="176.774" cy="219.614" r="11.2967" transform="rotate(4.9445 176.774 219.614)" fill="white"/>
<path d="M173.32 224.492L174.011 216.516C174.066 215.879 174.624 215.41 175.26 215.465L180.3 215.901C180.936 215.956 181.406 216.514 181.351 217.151L181.16 219.353C181.105 219.989 180.547 220.458 179.911 220.403L172.987 219.804C172.35 219.749 171.792 220.218 171.737 220.854C171.682 221.491 172.151 222.049 172.788 222.104L176.237 222.402" stroke="#19191B" stroke-width="2" stroke-miterlimit="10"/>
<path d="M175.94 228.687C180.845 229.111 185.166 225.479 185.59 220.574C186.014 215.669 182.382 211.348 177.477 210.924C172.572 210.5 168.251 214.132 167.827 219.037C167.403 223.942 171.035 228.263 175.94 228.687Z" stroke="#19191B" stroke-width="2" stroke-miterlimit="10"/>
</g>
<circle cx="116.434" cy="192.739" r="9.33216" transform="rotate(-23.2376 116.434 192.739)" fill="white"/>
<path d="M115.822 197.639L113.213 191.562C113.005 191.077 113.228 190.517 113.713 190.309L117.553 188.66C118.038 188.452 118.597 188.676 118.805 189.16L119.526 190.838C119.734 191.323 119.511 191.882 119.026 192.09L113.75 194.356C113.266 194.564 113.042 195.123 113.25 195.608C113.458 196.093 114.018 196.316 114.503 196.108L117.131 194.979" stroke="#A6A6A6" stroke-miterlimit="10"/>
<path d="M119.367 199.671C123.104 198.066 124.833 193.736 123.228 189.999C121.623 186.262 117.293 184.533 113.556 186.137C109.818 187.742 108.09 192.073 109.694 195.81C111.299 199.547 115.63 201.276 119.367 199.671Z" stroke="#A6A6A6" stroke-miterlimit="10"/>
<path d="M172.205 161.646L198.294 156.587C199.424 156.368 200.274 155.49 200.516 154.372L200.859 152.726C201.062 151.667 201.96 150.779 203.09 150.56L213.26 148.588C215.127 148.226 216.865 149.826 216.569 151.719L216.201 154.288C216.027 155.494 215.138 156.431 213.959 156.66L213.811 156.689C212.681 156.908 211.783 157.796 211.55 158.962L206.735 186.711C206.551 187.868 205.662 188.805 204.532 189.024L188.221 192.187C187.042 192.415 185.867 191.878 185.264 190.874L170.325 165.885C169.334 164.191 170.289 162.017 172.205 161.646Z" fill="white"/>
<path d="M213.666 152.614L208.42 153.815C207.546 154.015 206.839 154.693 206.618 155.447L201.5 174.071C201.286 174.87 200.573 175.503 199.699 175.703L184.166 179.258C183.24 179.47 182.352 179.157 181.995 178.442L176.285 167.833C175.664 166.708 176.534 165.242 177.974 164.913L199.268 160.039C200.759 159.697 201.958 160.783 201.551 162.143L197.244 177.203C197.03 178.003 196.317 178.635 195.443 178.835L187.985 180.542C187.059 180.754 186.114 180.407 185.751 179.646L182.197 172.203C181.684 171.1 182.508 169.692 183.949 169.362L192.384 167.432C193.824 167.102 195.011 168.097 194.707 169.433L194.194 171.615C193.985 172.46 193.278 173.138 192.353 173.35L187.466 174.468" stroke="#BABABA" stroke-width="2" stroke-miterlimit="10"/>
<path d="M191.436 186.532C192.655 186.25 193.53 185.147 193.388 184.068C193.247 182.989 192.144 182.343 190.925 182.624C189.706 182.906 188.831 184.009 188.973 185.088C189.114 186.167 190.217 186.813 191.436 186.532Z" stroke="#BABABA" stroke-width="2" stroke-miterlimit="10"/>
<path d="M201.164 184.646C202.384 184.364 203.258 183.261 203.116 182.182C202.975 181.103 201.872 180.457 200.653 180.738C199.434 181.02 198.56 182.123 198.701 183.202C198.842 184.281 199.945 184.927 201.164 184.646Z" stroke="#BABABA" stroke-width="2" stroke-miterlimit="10"/>
<path d="M74.0119 174.82L61.7472 214.879C61.2621 216.464 62.1532 218.141 63.7375 218.626L94.3217 227.99C95.9059 228.475 97.5834 227.584 98.0685 226L103.484 208.312C103.969 206.728 103.078 205.05 101.493 204.565L89.869 201.006C88.5016 200.588 87.6198 199.262 87.7621 197.839L89.6476 178.992C89.7899 177.569 88.9081 176.243 87.5408 175.825L77.7587 172.83C76.1744 172.345 74.4969 173.236 74.0119 174.82Z" fill="white"/>
<path d="M66.7349 215.514L73.6435 192.949C73.9668 191.893 75.0852 191.298 76.1413 191.622L79.2876 192.585C80.1781 192.858 80.7626 193.709 80.6972 194.638L80.2027 201.66C80.1045 203.054 80.9812 204.331 82.317 204.74L93.9145 208.29C94.9707 208.614 95.5647 209.732 95.2414 210.788L91.8711 221.796C91.6526 222.51 90.897 222.911 90.1834 222.693L88.0123 222.028C87.3085 221.813 86.9126 221.067 87.1281 220.364L87.9869 217.558C88.3207 216.468 87.7075 215.314 86.6173 214.98V214.98C85.5271 214.646 84.3727 215.259 84.039 216.35L83.1801 219.155C82.9646 219.859 82.2194 220.255 81.5155 220.039L79.8532 219.53C79.1494 219.315 78.7535 218.569 78.969 217.866L79.989 214.534C80.2337 213.734 79.784 212.888 78.9846 212.643V212.643C78.1851 212.398 77.3385 212.848 77.0938 213.648L76.0738 216.979C75.8583 217.683 75.113 218.079 74.4092 217.863L70.2091 216.577C69.4532 216.346 69.0281 215.546 69.2595 214.79L71.6608 206.946L76.818 190.102L77.1807 188.917C77.4254 188.118 78.272 187.668 79.0714 187.913V187.913C79.8709 188.158 80.7175 187.708 80.9622 186.909L81.3651 185.593C81.6099 184.793 81.1602 183.947 80.3608 183.702L79.8344 183.541C79.3256 183.385 79.0394 182.846 79.1952 182.337V182.337C79.351 181.829 79.8897 181.543 80.3984 181.698L80.9248 181.859C81.7243 182.104 82.5708 181.655 82.8156 180.855L83.2588 179.408" stroke="#19191B" stroke-width="2"/>
<defs>
<filter id="filter0_d" x="141.477" y="188.317" width="70.5948" height="70.5948" filterUnits="userSpaceOnUse" color-interpolation-filters="sRGB">
<feFlood flood-opacity="0" result="BackgroundImageFix"/>
<feColorMatrix in="SourceAlpha" type="matrix" values="0 0 0 0 0 0 0 0 0 0 0 0 0 0 0 0 0 0 127 0" result="hardAlpha"/>
<feOffset dy="4"/>
<feGaussianBlur stdDeviation="12"/>
<feColorMatrix type="matrix" values="0 0 0 0 0.172549 0 0 0 0 0.368627 0 0 0 0 0.662745 0 0 0 0.22 0"/>
<feBlend mode="normal" in2="BackgroundImageFix" result="effect1_dropShadow"/>
<feBlend mode="normal" in="SourceGraphic" in2="effect1_dropShadow" result="shape"/>
</filter>
</defs>
</svg>
