<svg width="277" height="255" fill="none" xmlns="http://www.w3.org/2000/svg"><path d="M53.009 163.699c1.882 1.003 4.935.46 6.19-2.05a4.286 4.286 0 0 0 .501-1.965m-2.3 12.547c.126-.419.377-.711.795-.837.585-.209 1.213-.376 1.756-.627.586-.209 1.046-.126 1.548.251.46.376.878.711 1.38 1.045.167.126.418.293.627.335a.967.967 0 0 0 .92-.209c.753-.753 1.548-1.464 2.3-2.175.042-.042.084-.042.126-.084.042-.083.084-.125.126-.209.083-.293 0-.627-.168-.92-.083-.125-.167-.293-.25-.418-.294-.544-.628-1.088-.92-1.631a.886.886 0 0 1 0-.795l.877-1.882c.251-.585.712-.92 1.339-.962a14.16 14.16 0 0 0 1.924-.251c.543-.125.794-.334.836-.878.084-1.046.126-2.049.21-3.095.041-.544-.168-.795-.67-.962a57.148 57.148 0 0 0-.376-.125 29.964 29.964 0 0 0-1.882-.46c-.46-.126-.711-.335-.879-.753-.209-.628-.46-1.297-.71-1.966a1.108 1.108 0 0 1 .083-.962c.126-.167.21-.334.335-.502.376-.502.752-1.045 1.17-1.589.21-.293.21-.627.042-.962-.083-.125-.125-.251-.25-.376a99.923 99.923 0 0 0-2.05-2.259c-.25-.209-.502-.251-.753-.167a3.445 3.445 0 0 0-.794.376c-.502.251-.962.586-1.422.879-.419.251-.837.251-1.297.083a17.602 17.602 0 0 0-1.296-.585c-1.088-.502-1.213-.669-1.38-1.882-.084-.544-.126-1.13-.251-1.673-.126-.544-.419-.795-.92-.837-.962-.083-1.966-.125-2.928-.167-.711 0-.962.167-1.13.836a32.28 32.28 0 0 0-.46 1.924c-.125.502-.376.92-.878 1.046-.71.209-1.464.502-2.175.711-.292.084-.543 0-.794-.126-.126-.125-.293-.209-.46-.334-.502-.377-1.046-.753-1.59-1.171-.292-.209-.627-.209-.961-.042-.126.084-.293.125-.377.251-.71.627-1.422 1.296-2.175 1.924-.376.293-.418.669-.209 1.129.126.293.251.544.418.795l.753 1.254c.251.377.251.795.084 1.171-.293.711-.627 1.339-.962 2.05-.167.292-.376.46-.627.502-.335.041-.628.125-1.004.167-.502.042-1.004.125-1.422.209-.67.125-.92.376-.962 1.087-.084.962-.125 1.924-.167 2.886 0 .586.25.92.794 1.088.711.209 1.422.376 2.175.543.418.126.753.377.878.837.21.711.502 1.38.712 2.091.125.334.041.669-.126.962-.126.209-.293.46-.46.669-.377.46-.711.878-1.004 1.38-.25.377-.209.837.126 1.213.25.293.46.586.71.837.46.543.46.501.963 1.003l.836.711c.377.126.753-.042 1.046-.251.543-.334 1.087-.585 1.547-.92.46-.293.962-.334 1.464-.042a37.87 37.87 0 0 0 1.882.92c.293.168.46.377.502.67.125.794.25 1.631.376 2.425.042.419.293.67.711.753.544.084 1.13.126 1.673.209h1.715c.376 0 .627-.167.753-.502l.627-2.634zm-.167-16.73c-2.677-1.38-5.437.084-6.274 1.966-1.045 1.966-.502 4.308 1.13 5.688l5.144-7.654zM53.43 30.527c-2.133 4.266-.25 9.243 4.099 11.334 3.555 1.715 9.2.544 11.417-4.057 2.05-4.14.251-9.243-3.973-11.25m3.011-20.242c-.209-1.172-.418-2.343-.669-3.472-.25-1.129-.878-1.63-2.007-1.673C63.175 1.084 61.084 1 58.95 1c-1.506 0-2.008.46-2.384 1.882-.377 1.297-.627 2.677-.92 4.057-.251 1.045-.795 1.882-1.882 2.258-1.548.544-3.053 1.13-4.6 1.673-.628.21-1.172.084-1.716-.209-.376-.209-.71-.418-1.087-.669-1.13-.753-2.342-1.59-3.471-2.384-.67-.46-1.339-.418-2.008 0-.25.21-.585.335-.794.544a454.82 454.82 0 0 0-4.56 4.266c-.71.71-.794 1.505-.376 2.384.293.543.628 1.129 1.004 1.63.586.879 1.171 1.716 1.757 2.594.502.753.585 1.63.209 2.425-.67 1.464-1.338 2.886-2.008 4.35-.25.544-.71.962-1.338 1.13-.67.167-1.38.292-2.133.46-1.004.209-2.007.334-3.053.543-1.464.293-1.966.92-2.008 2.384a285.361 285.361 0 0 0-.083 6.022c0 1.255.585 1.924 1.798 2.217 1.548.335 3.095.711 4.643 1.046.92.209 1.589.752 1.965 1.715.502 1.463 1.088 2.927 1.673 4.35.293.752.21 1.421-.209 2.09-.25.502-.627.962-.92 1.422-.67.962-1.464 1.924-2.05 2.928-.585.878-.418 1.756.252 2.51.501.543 1.045 1.128 1.547 1.672 1.087 1.046 2.175 2.133 3.262 3.179.21.167.418.25.46.083.879.168 1.59-.209 2.259-.627 1.087-.67 2.216-1.296 3.304-2.008 1.045-.71 2.049-.794 3.22-.25 1.338.627 2.76 1.212 4.099 1.84.627.293 1.004.753 1.129 1.422.376 1.715.711 3.387 1.045 5.102.21.92.712 1.464 1.59 1.59 1.17.167 2.426.25 3.638.292 1.255.042 2.468 0 3.723-.042.836 0 1.38-.418 1.589-1.129.418-1.255.71-2.593 1.046-3.848.167-.501.25-1.003.418-1.505.25-.92.836-1.464 1.715-1.757 1.254-.46 2.55-.878 3.764-1.38 1.254-.502 2.342-.335 3.345.46 1.004.753 1.966 1.464 3.012 2.133.418.293.92.544 1.38.67.71.167 1.38 0 1.966-.544 1.547-1.59 3.22-3.137 4.81-4.726.041-.042.166-.084.208-.168.084-.167.168-.292.251-.46a2.94 2.94 0 0 0-.46-1.965c-.167-.293-.376-.544-.502-.879-.71-1.129-1.463-2.258-2.174-3.387-.377-.544-.377-1.13-.084-1.715.585-1.297 1.13-2.635 1.715-3.931.501-1.297 1.463-2.008 2.885-2.175 1.38-.21 2.803-.46 4.14-.711 1.13-.21 1.674-.711 1.716-1.882.167-2.217.209-4.392.25-6.567 0-1.129-.46-1.672-1.547-2.007-.25-.084-.585-.21-.836-.251-1.339-.293-2.76-.627-4.099-.92-.92-.21-1.547-.711-1.924-1.59a71.265 71.265 0 0 0-1.673-4.14c-.25-.71-.167-1.38.21-1.966.208-.334.418-.71.668-1.045.837-1.13 1.59-2.259 2.426-3.388.46-.669.418-1.296 0-1.965-.167-.251-.293-.544-.502-.753-1.505-1.59-3.053-3.095-4.558-4.643-.46-.46-1.088-.502-1.673-.292-.628.25-1.171.501-1.715.794a120.694 120.694 0 0 0-3.011 1.924c-.879.544-1.799.627-2.802.21l-5.898-5.061z" stroke="#A6A6A6" stroke-width="2" stroke-miterlimit="10"/><path d="M164.195 76.991s-10.832 30.782 11.042 33.626c21.873 2.844 28.607-18.026 28.607-18.026s8.615 1.715 12.128-6.232c3.43-7.904-.251-13.341-7.612-9.703" stroke="#19191B" stroke-width="3" stroke-miterlimit="10"/><path d="M190.335 108.735c-.126-1.548-1.464 9.117 6.566 13.55M96.233 109.864c-4.224-3.262-8.658 0-8.658 0-1.714 1.506-17.022 21.33-11.5 30.614 5.52 9.202 8.322 17.148 9.117 20.912.284 1.266 1.045 4.14 1.463 6.859m58.971 7.695c-15.684 30.155-30.946 43.976-39.732 38.52m-23.003-46.215c.906 5.507 3.137 13.592 4.392 18.611M108.78 177.492c-.92-1.046-8.448-14.596-8.323-26.725 0-3.471.084-9.996 1.422-14.764 3.304-11.961 6.023-16.854 2.509-18.067-4.935-1.589-9.66 11.376-9.66 11.376" stroke="#19191B" stroke-width="3" stroke-miterlimit="10" stroke-linejoin="round"/><path d="M106.145 172.64s11.961-25.052 28.021-39.188c13.217-11.627 26.767-10.121 26.767-10.121s.209 12.881 14.973 13.3c17.398.501 21.037-14.68 21.037-14.68s14.973 1.38 28.607 7.486c29.527 13.216 28.9 32.915 26.39 58.594-5.395 30.866-12.421 53.408-58.427 58.427-7.319.798-18.36.669-19.029-2.509" stroke="#19191B" stroke-width="3" stroke-miterlimit="10" stroke-linejoin="round"/><path d="M145.96 152.858c-2.383 14.68 1.799 38.979.879 50.648M222.455 203.505c6.692-10.037 6.19-25.763 4.099-31.743M82.682 168.04c1.799.292 15.851-.837 20.075-2.928" stroke="#19191B" stroke-width="3"/><path d="M161.519 74.941s2.091.586 7.486 0c4.893.711 6.943 2.844 6.943 2.844l-3.688 8.726c-1.236 2.924 1.066 6.118 4.231 5.87M182.012 77.226c.837.502 1.924.586 2.928.67 4.266-2.886 7.988.376 11.459-1.088M173.522 101.875c2.468.126 4.893-.041 7.194-.543" stroke="#19191B" stroke-width="3" stroke-miterlimit="10"/><path d="M172.309 110.031c.125.586.585 5.228-3.011 9.954-3.555 4.684-7.779 5.311-7.779 5.311M131.315 84.878c5.702-12.884 2.5-26.791-7.153-31.063-9.652-4.272-22.099 2.709-27.801 15.593-5.703 12.884-2.5 26.791 7.152 31.063 9.652 4.272 22.1-2.71 27.802-15.593z" stroke="#19191B" stroke-width="3" stroke-miterlimit="10" stroke-linejoin="round"/><path d="M127.414 83.151c4.431-10.011 1.944-20.817-5.554-24.135-7.497-3.319-17.168 2.107-21.599 12.118-4.43 10.011-1.944 20.817 5.554 24.136 7.498 3.318 17.168-2.107 21.599-12.119zM106.981 101.583l-18.904 42.492-5.939-2.635" stroke="#19191B" stroke-width="3" stroke-miterlimit="10" stroke-linejoin="round"/><path d="M189.875 81.926a1.296 1.296 0 1 0 0-2.592 1.296 1.296 0 0 0 0 2.592zM168.252 81.926a1.297 1.297 0 1 0 0-2.594 1.297 1.297 0 0 0 0 2.594z" fill="#19191B"/><path d="M190.306 82.996a1.883 1.883 0 1 0 0-3.766 1.883 1.883 0 0 0 0 3.766zM168.383 82.996a1.883 1.883 0 1 0-.002-3.765 1.883 1.883 0 0 0 .002 3.765z" fill="#19191B"/><path d="m100.875 98.78-4.558 10.289M97.278 109.947s5.312 3.262 3.597 6.315c-1.714 3.053-7.528 0-7.528 0M93.347 116.806s5.312 3.262 3.597 6.315c-1.715 3.054-7.528 0-7.528 0M89.374 123.665s5.311 3.262 3.597 6.315c-1.715 3.053-7.529 0-7.529 0M85.442 130.524s6.692 3.837 4.978 6.89c-1.715 3.053-10.665-6.273-15.266-3.136" stroke="#19191B" stroke-width="3" stroke-miterlimit="10" stroke-linejoin="round"/><path d="M198.281 62.102c-3.638 4.14-9.954 5.688-15.098 3.68-.46-.167-.92-.376-1.422-.335-.544.042-1.046.419-1.464.753-1.589 1.213-3.429 2.175-5.437 2.259-2.007.083-4.098-.879-4.977-2.677-.167-.376-.334-.795-.753-.878-.209-.042-.376.041-.585.083-2.426.837-5.228.795-7.403-.502-2.175-1.296-3.555-4.098-2.844-6.524-2.802.335-5.897-1.213-6.65-3.931-.752-2.677 2.217-4.81 4.434-5.437-2.217-1.004-2.97-3.012-3.137-5.06-.126-2.05 1.087-4.225 3.053-4.81.585-.168 1.255-.21 1.715-.628.418-.334.627-.878.836-1.38 1.589-3.513 5.981-5.437 9.661-4.266 1.339.418 2.635 1.213 4.015 1.087 1.715-.167 2.928-1.63 4.308-2.593 1.715-1.17 3.89-1.589 5.939-1.17 1.422.292 2.802 1.003 4.266.878 1.589-.126 2.969-1.171 4.391-1.883 3.012-1.547 6.65-1.672 9.954-.836 3.304.795 6.316 2.51 9.118 4.433 2.049 1.422 3.722 3.304 5.604 5.02 6.566 5.938 5.981 11.082 6.357 13.215.418 2.426.084 4.893-.376 7.277a63.446 63.446 0 0 1-4.35 13.676c-.669 1.464-1.422 2.97-2.718 3.932M166.956 253.484H51.524l-25.136-66.666h70.18l19.322 55.206h51.066v5.186h-49.352M115.932 241.857H66.999" stroke="#19191B" stroke-width="3" stroke-miterlimit="10"/><path d="M174.484 240.895c-4.684.084-5.144 1.13-16.729 1.13-10.414.376-20.787.878-21.832 0-1.046-.879 11.585-5.186 11.585-5.186s-7.445 1.422-13.509 3.011c-3.764.962-6.984 2.677-7.612 2.175-1.254-.962 1.213-2.384 4.726-3.764 5.019-1.924 12.171-4.141 12.422-4.225.251-.083-8.072 1.046-14.597 2.97-4.977 1.464-5.729 5.019-8.113 3.889-2.091-1.045 2.76-5.353 6.901-6.859 5.687-2.091 13.216-2.969 13.216-2.969s-15.391-3.053-17.106-4.726c-1.715-1.673 31.367 3.848 31.367 3.848s-15.432-3.221-12.672-5.061c1.296-.878 10.414 2.76 22.166 4.099" stroke="#19191B" stroke-width="3" stroke-miterlimit="10" stroke-linejoin="round"/><path d="M163.861 229.018c18.277 1.923 34.253-6.232 43.83-12.338" stroke="#19191B" stroke-width="3"/><path d="m173.522 229.31 1.129 14.848" stroke="#19191B" stroke-width="3" stroke-miterlimit="10" stroke-linejoin="round"/><path d="M80.675 98.531H4.557A3.56 3.56 0 0 1 1 94.975V82.929a3.56 3.56 0 0 1 3.557-3.556h76.16a3.56 3.56 0 0 1 3.556 3.556v12.04c-.039 1.99-1.62 3.562-3.598 3.562z" fill="#fff" stroke="#E4E4E4"/><path d="M19.571 85.272H7.233c-.543 0-1.004-.46-1.004-1.004s.46-1.004 1.004-1.004h12.338c.544 0 1.004.46 1.004 1.004s-.46 1.004-1.004 1.004zM29.943 89.997H7.233c-.543 0-1.004-.46-1.004-1.004 0-.543.46-1.003 1.004-1.003h22.71c.544 0 1.004.46 1.004 1.004 0 .543-.46 1.003-1.004 1.003zM79.67 89.997H59.722c-.544 0-1.004-.46-1.004-1.004 0-.543.46-1.003 1.004-1.003h19.95c.543 0 1.003.46 1.003 1.004a.99.99 0 0 1-1.003 1.003zM13.005 94.682H7.233c-.543 0-1.004-.46-1.004-1.004s.46-1.004 1.004-1.004h5.772c.543 0 1.004.46 1.004 1.004s-.46 1.004-1.004 1.004zM79.67 94.682h-8.782c-.544 0-1.004-.46-1.004-1.004s.46-1.004 1.004-1.004h8.783c.544 0 1.004.46 1.004 1.004a.99.99 0 0 1-1.004 1.004zM35.338 85.272H23.042c-.543 0-1.003-.46-1.003-1.004s.46-1.004 1.003-1.004H35.38c.544 0 1.004.46 1.004 1.004s-.46 1.004-1.046 1.004zM44.581 85.272h-5.144c-.544 0-1.004-.46-1.004-1.004s.46-1.004 1.004-1.004h5.144c.544 0 1.004.46 1.004 1.004s-.46 1.004-1.004 1.004zM79.67 85.272H48.179c-.544 0-1.004-.46-1.004-1.004s.46-1.004 1.004-1.004h31.535c.543 0 1.003.46 1.003 1.004-.041.544-.46 1.004-1.045 1.004zM56.208 89.997h-22.71c-.543 0-1.003-.46-1.003-1.004 0-.543.46-1.003 1.003-1.003h22.71c.544 0 1.004.46 1.004 1.004 0 .543-.46 1.003-1.004 1.003zM40.19 94.682H16.434c-.543 0-1.003-.46-1.003-1.004s.46-1.004 1.003-1.004h23.798c.544 0 1.004.46 1.004 1.004s-.46 1.004-1.046 1.004zM67.333 94.682H43.536c-.544 0-1.004-.46-1.004-1.004s.46-1.004 1.004-1.004h23.797c.544 0 1.004.46 1.004 1.004s-.46 1.004-1.004 1.004z" fill="#8C8C8C"/><path d="M272.225 116.504h-55.207a3.56 3.56 0 0 1-3.557-3.556v-12.045a3.56 3.56 0 0 1 3.557-3.557h55.248a3.56 3.56 0 0 1 3.557 3.557v12.04c-.039 1.989-1.619 3.561-3.598 3.561z" fill="#fff" stroke="#E4E4E4"/><path d="M231.614 103.245h-12.338c-.543 0-1.004-.46-1.004-1.004s.461-1.004 1.004-1.004h12.338c.544 0 1.004.46 1.004 1.004s-.46 1.004-1.004 1.004zM241.986 107.971h-22.71c-.543 0-1.004-.46-1.004-1.004s.461-1.004 1.004-1.004h22.71c.544 0 1.004.46 1.004 1.004s-.46 1.004-1.004 1.004zM225.048 112.655h-5.772c-.543 0-1.004-.46-1.004-1.004s.461-1.004 1.004-1.004h5.772c.544 0 1.004.46 1.004 1.004s-.46 1.004-1.004 1.004zM247.382 103.245h-12.296c-.544 0-1.004-.46-1.004-1.004s.46-1.004 1.004-1.004h12.337c.544 0 1.004.46 1.004 1.004s-.46 1.004-1.045 1.004zM256.624 103.245h-5.144c-.544 0-1.004-.46-1.004-1.004s.46-1.004 1.004-1.004h5.144c.544 0 1.004.46 1.004 1.004s-.46 1.004-1.004 1.004zM270.133 103.245H259.97c-.543 0-1.003-.46-1.003-1.004s.46-1.004 1.003-1.004h10.163c.544 0 1.004.46 1.004 1.004s-.46 1.004-1.004 1.004zM270.342 107.971h-24.801c-.543 0-1.003-.46-1.003-1.004s.46-1.004 1.003-1.004h24.801c.544 0 1.004.46 1.004 1.004s-.46 1.004-1.004 1.004zM252.233 112.655h-23.756c-.543 0-1.003-.46-1.003-1.004s.46-1.004 1.003-1.004h23.798c.543 0 1.003.46 1.003 1.004s-.46 1.004-1.045 1.004zM270.175 112.655h-14.596c-.544 0-1.004-.46-1.004-1.004s.46-1.004 1.004-1.004h14.596c.544 0 1.004.46 1.004 1.004s-.46 1.004-1.004 1.004z" fill="#BABABA"/><path d="M108.152 125.005H61.31a3.56 3.56 0 0 1-3.556-3.556v-12.045a3.56 3.56 0 0 1 3.556-3.557h46.842a3.56 3.56 0 0 1 3.557 3.557v12.045a3.56 3.56 0 0 1-3.557 3.556z" fill="#fff" stroke="#E4E4E4"/><path d="M100.122 111.746h7.319c.544 0 1.004-.46 1.004-1.004s-.46-1.004-1.004-1.004h-7.319c-.543 0-1.003.46-1.003 1.004a.99.99 0 0 0 1.003 1.004zM93.347 116.43h14.094c.544 0 1.004-.46 1.004-1.004s-.46-1.004-1.004-1.004H93.347c-.544 0-1.004.46-1.004 1.004a.99.99 0 0 0 1.004 1.004zM60.892 116.43h12.296c.544 0 1.004-.46 1.004-1.004s-.46-1.004-1.004-1.004H60.892c-.543 0-1.003.46-1.003 1.004a.99.99 0 0 0 1.003 1.004zM104.388 121.156h3.053c.544 0 1.004-.46 1.004-1.004s-.46-1.004-1.004-1.004h-3.053c-.543 0-1.003.46-1.003 1.004s.46 1.004 1.003 1.004zM60.892 121.156h5.02c.543 0 1.003-.46 1.003-1.004s-.46-1.004-1.004-1.004h-5.019c-.543 0-1.003.46-1.003 1.004s.46 1.004 1.003 1.004zM89.792 111.746h7.32c.543 0 1.003-.46 1.003-1.004s-.46-1.004-1.004-1.004h-7.319c-.544 0-1.004.46-1.004 1.004s.46 1.004 1.004 1.004zM83.811 111.746h2.677c.544 0 1.004-.46 1.004-1.004s-.46-1.004-1.004-1.004h-2.677c-.543 0-1.003.46-1.003 1.004-.042.544.418 1.004 1.003 1.004zM60.892 111.746h19.866c.544 0 1.004-.46 1.004-1.004s-.46-1.004-1.004-1.004H60.892c-.543 0-1.003.46-1.003 1.004s.46 1.004 1.003 1.004zM76.2 116.43h14.094c.544 0 1.004-.46 1.004-1.004s-.46-1.004-1.004-1.004H76.2c-.544 0-1.004.46-1.004 1.004a.99.99 0 0 0 1.004 1.004zM86.655 121.156h14.806c.543 0 1.003-.46 1.003-1.004s-.46-1.004-1.003-1.004H86.655c-.543 0-1.003.46-1.003 1.004a.99.99 0 0 0 1.003 1.004zM68.964 121.156H83.77c.543 0 1.003-.46 1.003-1.004s-.46-1.004-1.003-1.004H68.964c-.543 0-1.004.46-1.004 1.004a.99.99 0 0 0 1.004 1.004z" fill="#A6A6A6"/></svg>