<svg width="277" height="255" viewBox="0 0 277 255" fill="none" xmlns="http://www.w3.org/2000/svg">
<path d="M53.0086 163.699C54.8907 164.702 57.9437 164.159 59.1984 161.649C59.533 161.022 59.7003 160.311 59.7003 159.684M57.4 172.231C57.5255 171.812 57.7765 171.52 58.1947 171.394C58.7802 171.185 59.4076 171.018 59.9513 170.767C60.5368 170.558 60.9968 170.641 61.4987 171.018C61.9588 171.394 62.377 171.729 62.8789 172.063C63.0462 172.189 63.2971 172.356 63.5062 172.398C63.799 172.482 64.1336 172.44 64.4263 172.189C65.1791 171.436 65.9738 170.725 66.7266 170.014C66.7684 169.972 66.8102 169.972 66.8521 169.93C66.8939 169.847 66.9357 169.805 66.9775 169.721C67.0612 169.428 66.9775 169.094 66.8102 168.801C66.7266 168.676 66.6429 168.508 66.5593 168.383C66.2665 167.839 65.932 167.295 65.6392 166.752C65.5137 166.501 65.5137 166.208 65.6392 165.957C65.932 165.33 66.2247 164.702 66.5175 164.075C66.7684 163.49 67.2285 163.155 67.8558 163.113C68.525 163.071 69.1523 162.988 69.7797 162.862C70.3234 162.737 70.5743 162.528 70.6161 161.984C70.6998 160.938 70.7416 159.935 70.8253 158.889C70.8671 158.345 70.658 158.094 70.1561 157.927C70.0306 157.885 69.9051 157.843 69.7797 157.802C69.1523 157.634 68.525 157.467 67.8976 157.342C67.4376 157.216 67.1867 157.007 67.0194 156.589C66.8102 155.961 66.5593 155.292 66.3084 154.623C66.1829 154.288 66.2247 153.954 66.392 153.661C66.5175 153.494 66.6011 153.327 66.7266 153.159C67.103 152.657 67.4794 152.114 67.8976 151.57C68.1068 151.277 68.1068 150.943 67.9395 150.608C67.8558 150.483 67.814 150.357 67.6885 150.232C67.0194 149.479 66.3502 148.726 65.6392 147.973C65.3883 147.764 65.1373 147.722 64.8864 147.806C64.6354 147.89 64.3427 148.015 64.0917 148.182C63.5899 148.433 63.1298 148.768 62.6698 149.061C62.2515 149.312 61.8333 149.312 61.3732 149.144C60.955 148.935 60.495 148.726 60.0767 148.559C58.9893 148.057 58.8639 147.89 58.6966 146.677C58.6129 146.133 58.5711 145.547 58.4456 145.004C58.3202 144.46 58.0274 144.209 57.5255 144.167C56.5636 144.084 55.5598 144.042 54.5979 144C53.8869 144 53.636 144.167 53.4687 144.836C53.3014 145.464 53.1341 146.133 53.0086 146.76C52.8832 147.262 52.6322 147.68 52.1303 147.806C51.4193 148.015 50.6665 148.308 49.9555 148.517C49.6628 148.601 49.4118 148.517 49.1609 148.391C49.0354 148.266 48.8681 148.182 48.7008 148.057C48.199 147.68 47.6553 147.304 47.1116 146.886C46.8188 146.677 46.4842 146.677 46.1496 146.844C46.0242 146.928 45.8569 146.969 45.7732 147.095C45.0622 147.722 44.3512 148.391 43.5984 149.019C43.222 149.312 43.1802 149.688 43.3893 150.148C43.5148 150.441 43.6402 150.692 43.8075 150.943C44.0585 151.361 44.3094 151.779 44.5604 152.197C44.8113 152.574 44.8113 152.992 44.644 153.368C44.3512 154.079 44.0167 154.707 43.6821 155.418C43.5148 155.71 43.3057 155.878 43.0547 155.92C42.7201 155.961 42.4274 156.045 42.051 156.087C41.5491 156.129 41.0472 156.212 40.629 156.296C39.9598 156.421 39.7089 156.672 39.667 157.383C39.5834 158.345 39.5416 159.307 39.4998 160.269C39.4998 160.855 39.7507 161.189 40.2944 161.357C41.0054 161.566 41.7164 161.733 42.4692 161.9C42.8874 162.026 43.222 162.277 43.3475 162.737C43.5566 163.448 43.8494 164.117 44.0585 164.828C44.1839 165.162 44.1003 165.497 43.933 165.79C43.8075 165.999 43.6402 166.25 43.473 166.459C43.0965 166.919 42.762 167.337 42.4692 167.839C42.2183 168.216 42.2601 168.676 42.5947 169.052C42.8456 169.345 43.0547 169.638 43.3057 169.889C43.7657 170.432 43.7657 170.39 44.2676 170.892L45.104 171.603C45.4805 171.729 45.8569 171.561 46.1496 171.352C46.6933 171.018 47.237 170.767 47.6971 170.432C48.1571 170.139 48.659 170.098 49.1609 170.39C49.7882 170.725 50.4156 171.018 51.0429 171.31C51.3357 171.478 51.503 171.687 51.5448 171.98C51.6703 172.774 51.7957 173.611 51.9212 174.405C51.963 174.824 52.214 175.075 52.6322 175.158C53.1759 175.242 53.7614 175.284 54.3051 175.367C54.8488 175.367 55.4762 175.367 56.0199 175.367C56.3963 175.367 56.6472 175.2 56.7727 174.865L57.4 172.231ZM57.2327 155.501C54.5561 154.121 51.7957 155.585 50.9593 157.467C49.9137 159.433 50.4574 161.775 52.0885 163.155L57.2327 155.501Z" stroke="#A6A6A6" stroke-width="2" stroke-miterlimit="10"/>
<path d="M53.4301 30.5271C51.2971 34.7931 53.1791 39.77 57.5287 41.8612C61.0837 43.5759 66.7298 42.4049 68.9464 37.8043C70.9958 33.6638 69.1974 28.5614 64.9733 26.5539M67.9845 6.31153C67.7754 5.14049 67.5663 3.96944 67.3153 2.84022C67.0644 1.71099 66.4371 1.20912 65.3078 1.16729C63.1749 1.08365 61.0837 1 58.9507 1C57.4451 1 56.9432 1.46005 56.5668 2.88204C56.1904 4.17856 55.9395 5.55872 55.6467 6.93888C55.3958 7.98446 54.8521 8.82092 53.7647 9.19733C52.2172 9.74103 50.7116 10.3266 49.1641 10.8703C48.5368 11.0794 47.9931 10.9539 47.4494 10.6611C47.073 10.452 46.7384 10.2429 46.362 9.99197C45.2328 9.23915 44.0199 8.40269 42.8907 7.60805C42.2215 7.148 41.5523 7.18982 40.8832 7.60805C40.6322 7.81717 40.2976 7.94263 40.0885 8.15175C38.5411 9.57374 37.0354 10.9957 35.5298 12.4177C34.8188 13.1287 34.7352 13.9233 35.1534 14.8016C35.4461 15.3453 35.7807 15.9308 36.1571 16.4327C36.7427 17.311 37.3282 18.1475 37.9137 19.0258C38.4156 19.7786 38.4992 20.6569 38.1228 21.4515C37.4537 22.9153 36.7845 24.3373 36.1153 25.8011C35.8644 26.3448 35.4043 26.763 34.777 26.9303C34.1078 27.0976 33.3968 27.2231 32.644 27.3904C31.6402 27.5995 30.6365 27.725 29.5909 27.9341C28.1271 28.2268 27.6252 28.8542 27.5834 30.318C27.5416 32.2837 27.4998 34.333 27.4998 36.3405C27.4998 37.5952 28.0853 38.2644 29.2982 38.5571C30.8456 38.8917 32.3931 39.2681 33.9405 39.6027C34.8606 39.8118 35.5298 40.3555 35.9062 41.3175C36.4081 42.7813 36.9936 44.2451 37.5791 45.6671C37.8719 46.4199 37.7882 47.0891 37.37 47.7582C37.1191 48.2601 36.7427 48.7202 36.4499 49.1802C35.7807 50.1421 34.9861 51.1041 34.4006 52.1078C33.815 52.9861 33.9823 53.8644 34.6515 54.6172C35.1534 55.1609 35.6971 55.7464 36.199 56.2901C37.2864 57.3357 38.3738 58.4231 39.4612 59.4687C39.6703 59.636 39.8794 59.7196 39.9212 59.5523C40.7995 59.7196 41.5105 59.3432 42.1797 58.925C43.2671 58.2558 44.3963 57.6285 45.4837 56.9175C46.5293 56.2065 47.533 56.1229 48.7041 56.6666C50.0424 57.2939 51.4644 57.8794 52.8027 58.5068C53.4301 58.7995 53.8065 59.2596 53.932 59.9288C54.3084 61.6435 54.643 63.3164 54.9775 65.0312C55.1867 65.9513 55.6885 66.495 56.5668 66.6205C57.7379 66.7877 58.9926 66.8714 60.2054 66.9132C61.4601 66.955 62.673 66.9132 63.9277 66.8714C64.7641 66.8714 65.3078 66.4532 65.517 65.7422C65.9352 64.4875 66.2279 63.1491 66.5625 61.8944C66.7298 61.3926 66.8135 60.8907 66.9808 60.3888C67.2317 59.4687 67.8172 58.925 68.6955 58.6322C69.9502 58.1722 71.2467 57.754 72.4596 57.2521C73.7143 56.7502 74.8017 56.9175 75.8054 57.7121C76.8092 58.4649 77.7711 59.1759 78.8167 59.8451C79.2349 60.1379 79.7368 60.3888 80.1969 60.5143C80.9079 60.6816 81.577 60.5143 82.1626 59.9706C83.71 58.3813 85.3829 56.8338 86.9722 55.2446C87.014 55.2027 87.1395 55.1609 87.1813 55.0773C87.265 54.91 87.3486 54.7845 87.4323 54.6172C87.5159 53.9062 87.3486 53.2371 86.9722 52.6515C86.8049 52.3588 86.5958 52.1078 86.4703 51.7733C85.7593 50.644 85.0065 49.5148 84.2955 48.3856C83.9191 47.8419 83.9191 47.2564 84.2119 46.6708C84.7974 45.3743 85.3411 44.036 85.9266 42.7395C86.4285 41.4429 87.3904 40.732 88.8124 40.5647C90.1926 40.3555 91.6146 40.1046 92.9529 39.8537C94.0821 39.6445 94.6258 39.1427 94.6677 37.9716C94.835 35.755 94.8768 33.5802 94.9186 31.4054C94.9186 30.2762 94.4585 29.7325 93.3711 29.3979C93.1202 29.3142 92.7856 29.1888 92.5347 29.147C91.1963 28.8542 89.7744 28.5196 88.436 28.2268C87.5159 28.0177 86.8886 27.5158 86.5122 26.6376C86.0103 25.2574 85.4248 23.8354 84.8392 22.4971C84.5883 21.7861 84.6719 21.1169 85.0483 20.5314C85.2575 20.1968 85.4666 19.8204 85.7175 19.4858C86.554 18.3566 87.3068 17.2274 88.1433 16.0981C88.6033 15.429 88.5615 14.8016 88.1433 14.1325C87.976 13.8815 87.8505 13.5888 87.6414 13.3796C86.1357 11.7904 84.5883 10.2847 83.0827 8.73727C82.6226 8.27722 81.9953 8.2354 81.4097 8.44451C80.7824 8.69545 80.2387 8.94639 79.695 9.23915C78.6912 9.8665 77.6875 10.4938 76.6837 11.163C75.8054 11.7067 74.8853 11.7904 73.8816 11.3721L67.9845 6.31153Z" stroke="#A6A6A6" stroke-width="2" stroke-miterlimit="10"/>
<path d="M164.195 76.991C164.195 76.991 153.363 107.773 175.237 110.617C197.11 113.461 203.844 92.591 203.844 92.591C203.844 92.591 212.459 94.3057 215.972 86.3593C219.402 78.4548 215.721 73.0178 208.36 76.6564" stroke="#19191B" stroke-width="3" stroke-miterlimit="10"/>
<path d="M190.335 108.735C190.209 107.187 188.871 117.852 196.901 122.285" stroke="#19191B" stroke-width="3" stroke-miterlimit="10" stroke-linejoin="round"/>
<path d="M96.2328 109.864C92.0087 106.602 87.5754 109.864 87.5754 109.864C85.8607 111.37 70.5534 131.194 76.0741 140.478C81.5947 149.68 84.3969 157.626 85.1915 161.39C85.4761 162.656 86.2371 165.53 86.6553 168.249M145.626 175.944C129.942 206.099 114.68 219.92 105.894 214.464M82.8912 168.249C83.7974 173.756 86.028 181.841 87.2827 186.86" stroke="#19191B" stroke-width="3" stroke-miterlimit="10" stroke-linejoin="round"/>
<path d="M108.78 177.492C107.86 176.446 100.332 162.896 100.457 150.767C100.457 147.296 100.541 140.771 101.879 136.003C105.183 124.042 107.902 119.149 104.388 117.936C99.4533 116.347 94.7273 129.312 94.7273 129.312" stroke="#19191B" stroke-width="3" stroke-miterlimit="10" stroke-linejoin="round"/>
<path d="M106.145 172.64C106.145 172.64 118.106 147.588 134.166 133.452C147.383 121.825 160.933 123.331 160.933 123.331C160.933 123.331 161.142 136.212 175.906 136.631C193.304 137.132 196.943 121.951 196.943 121.951C196.943 121.951 211.916 123.331 225.55 129.437C255.077 142.653 254.45 162.352 251.94 188.031C246.545 218.897 239.519 241.439 193.513 246.458C186.194 247.256 175.153 247.127 174.484 243.949" stroke="#19191B" stroke-width="3" stroke-miterlimit="10" stroke-linejoin="round"/>
<path d="M145.96 152.858C143.577 167.538 147.759 191.837 146.839 203.506" stroke="#19191B" stroke-width="3"/>
<path d="M222.455 203.505C229.147 193.468 228.645 177.742 226.554 171.762" stroke="#19191B" stroke-width="3"/>
<path d="M82.6821 168.04C84.4805 168.332 98.5331 167.203 102.757 165.112" stroke="#19191B" stroke-width="3"/>
<path d="M161.519 74.9414C161.519 74.9414 163.61 75.5269 169.005 74.9414C173.898 75.6524 175.948 77.7854 175.948 77.7854L172.26 86.5108C171.024 89.4353 173.326 92.6295 176.491 92.3816V92.3816" stroke="#19191B" stroke-width="3" stroke-miterlimit="10"/>
<path d="M182.012 77.2263C182.849 77.7282 183.936 77.8118 184.94 77.8955C189.206 75.0097 192.928 78.2719 196.399 76.8081" stroke="#19191B" stroke-width="3" stroke-miterlimit="10"/>
<path d="M173.522 101.875C175.99 102.001 178.415 101.834 180.716 101.332" stroke="#19191B" stroke-width="3" stroke-miterlimit="10"/>
<path d="M172.309 110.031C172.434 110.617 172.894 115.259 169.298 119.985C165.743 124.669 161.519 125.296 161.519 125.296" stroke="#19191B" stroke-width="3" stroke-miterlimit="10" stroke-linejoin="round"/>
<path d="M131.315 84.878C137.017 71.9942 133.815 58.0866 124.162 53.8147C114.51 49.5427 102.063 56.524 96.3606 69.4078C90.6584 82.2917 93.8606 96.1992 103.513 100.471C113.165 104.743 125.613 97.7619 131.315 84.878Z" stroke="#19191B" stroke-width="3" stroke-miterlimit="10" stroke-linejoin="round"/>
<path d="M127.414 83.1514C131.845 73.14 129.358 62.334 121.86 59.0155C114.363 55.697 104.692 61.1227 100.261 71.134C95.8305 81.1454 98.3168 91.9514 105.815 95.2699C113.313 98.5884 122.983 93.1627 127.414 83.1514Z" stroke="#19191B" stroke-width="3" stroke-miterlimit="10" stroke-linejoin="round"/>
<path d="M106.981 101.583L88.0773 144.075L82.1384 141.44" stroke="#19191B" stroke-width="3" stroke-miterlimit="10" stroke-linejoin="round"/>
<path d="M189.875 81.9258C190.591 81.9258 191.171 81.3453 191.171 80.6293C191.171 79.9132 190.591 79.3328 189.875 79.3328C189.159 79.3328 188.578 79.9132 188.578 80.6293C188.578 81.3453 189.159 81.9258 189.875 81.9258Z" fill="#19191B"/>
<path d="M168.252 81.9258C168.968 81.9258 169.549 81.3453 169.549 80.6293C169.549 79.9132 168.968 79.3328 168.252 79.3328C167.536 79.3328 166.956 79.9132 166.956 80.6293C166.956 81.3453 167.536 81.9258 168.252 81.9258Z" fill="#19191B"/>
<path d="M190.306 82.9962C191.346 82.9962 192.189 82.1531 192.189 81.1131C192.189 80.0731 191.346 79.23 190.306 79.23C189.266 79.23 188.423 80.0731 188.423 81.1131C188.423 82.1531 189.266 82.9962 190.306 82.9962Z" fill="#19191B"/>
<path d="M168.383 82.9962C169.422 82.9962 170.265 82.1531 170.265 81.1131C170.265 80.0731 169.422 79.23 168.383 79.23C167.343 79.23 166.5 80.0731 166.5 81.1131C166.5 82.1531 167.343 82.9962 168.383 82.9962Z" fill="#19191B"/>
<path d="M100.875 98.7803L96.3167 109.069" stroke="#19191B" stroke-width="3" stroke-miterlimit="10" stroke-linejoin="round"/>
<path d="M97.2785 109.947C97.2785 109.947 102.59 113.209 100.875 116.262C99.1606 119.315 93.3472 116.262 93.3472 116.262" stroke="#19191B" stroke-width="3" stroke-miterlimit="10" stroke-linejoin="round"/>
<path d="M93.3471 116.806C93.3471 116.806 98.6587 120.068 96.9439 123.121C95.2292 126.175 89.4158 123.121 89.4158 123.121" stroke="#19191B" stroke-width="3" stroke-miterlimit="10" stroke-linejoin="round"/>
<path d="M89.3738 123.665C89.3738 123.665 94.6853 126.927 92.9705 129.98C91.2558 133.033 85.4424 129.98 85.4424 129.98" stroke="#19191B" stroke-width="3" stroke-miterlimit="10" stroke-linejoin="round"/>
<path d="M85.4425 130.524C85.4425 130.524 92.1342 134.361 90.4195 137.414C88.7047 140.467 79.7546 131.141 75.1541 134.278" stroke="#19191B" stroke-width="3" stroke-miterlimit="10" stroke-linejoin="round"/>
<path d="M198.281 62.1015C194.643 66.242 188.327 67.7895 183.183 65.782C182.723 65.6147 182.263 65.4055 181.761 65.4474C181.217 65.4892 180.715 65.8656 180.297 66.2002C178.708 67.4131 176.868 68.375 174.86 68.4586C172.853 68.5423 170.762 67.5803 169.883 65.782C169.716 65.4055 169.549 64.9873 169.13 64.9037C168.921 64.8618 168.754 64.9455 168.545 64.9873C166.119 65.8238 163.317 65.782 161.142 64.4854C158.967 63.1889 157.587 60.3868 158.298 57.961C155.496 58.2956 152.401 56.7482 151.648 54.0297C150.896 51.353 153.865 49.22 156.082 48.5927C153.865 47.5889 153.112 45.5814 152.945 43.5321C152.819 41.4827 154.032 39.3079 155.998 38.7224C156.583 38.5551 157.253 38.5133 157.713 38.0951C158.131 37.7605 158.34 37.2168 158.549 36.7149C160.138 33.2018 164.53 31.2779 168.21 32.4489C169.549 32.8672 170.845 33.6618 172.225 33.5363C173.94 33.369 175.153 31.9052 176.533 30.9433C178.248 29.7723 180.423 29.354 182.472 29.7723C183.894 30.065 185.274 30.776 186.738 30.6505C188.327 30.5251 189.707 29.4795 191.129 28.7685C194.141 27.2211 197.779 27.0956 201.083 27.932C204.387 28.7267 207.399 30.4414 210.201 32.3653C212.25 33.7873 213.923 35.6693 215.805 37.3841C222.371 43.3229 221.786 48.4672 222.162 50.6002C222.58 53.0259 222.246 55.4935 221.786 57.8774C220.866 62.5616 219.402 67.1621 217.436 71.5535C216.767 73.0173 216.014 74.523 214.718 75.4849" stroke="#19191B" stroke-width="3" stroke-miterlimit="10"/>
<path d="M166.956 253.484H51.5239L26.3882 186.818H96.5674L115.89 242.024H166.956V247.21H117.604" stroke="#19191B" stroke-width="3" stroke-miterlimit="10"/>
<path d="M115.932 241.857L66.9985 241.857" stroke="#19191B" stroke-width="3" stroke-miterlimit="10"/>
<path d="M174.484 240.895C169.8 240.979 169.34 242.025 157.755 242.025C147.341 242.401 136.968 242.903 135.923 242.025C134.877 241.146 147.508 236.839 147.508 236.839C147.508 236.839 140.063 238.261 133.999 239.85C130.235 240.812 127.015 242.527 126.387 242.025C125.133 241.063 127.6 239.641 131.113 238.261C136.132 236.337 143.284 234.12 143.535 234.036C143.786 233.953 135.463 235.082 128.938 237.006C123.961 238.47 123.209 242.025 120.825 240.895C118.734 239.85 123.585 235.542 127.726 234.036C133.413 231.945 140.942 231.067 140.942 231.067C140.942 231.067 125.551 228.014 123.836 226.341C122.121 224.668 155.203 230.189 155.203 230.189C155.203 230.189 139.771 226.968 142.531 225.128C143.827 224.25 152.945 227.888 164.697 229.227" stroke="#19191B" stroke-width="3" stroke-miterlimit="10" stroke-linejoin="round"/>
<path d="M163.861 229.018C182.138 230.941 198.114 222.786 207.691 216.68" stroke="#19191B" stroke-width="3"/>
<path d="M173.522 229.31L174.651 244.158" stroke="#19191B" stroke-width="3" stroke-miterlimit="10" stroke-linejoin="round"/>
<path d="M80.6746 98.5313H4.5566C2.61275 98.5313 0.999756 96.9534 0.999756 94.9745V82.9294C0.999756 80.9856 2.57764 79.3726 4.5566 79.3726H80.7165C82.6603 79.3726 84.2733 80.9504 84.2733 82.9294V94.9696C84.2342 96.9588 82.6538 98.5313 80.6746 98.5313Z" fill="white" stroke="#E4E4E4"/>
<path d="M19.5711 85.2717H7.23325C6.68955 85.2717 6.22949 84.8116 6.22949 84.2679C6.22949 83.7242 6.68955 83.2642 7.23325 83.2642H19.5711C20.1148 83.2642 20.5748 83.7242 20.5748 84.2679C20.5748 84.8116 20.1148 85.2717 19.5711 85.2717Z" fill="#8C8C8C"/>
<path d="M29.9432 89.9973H7.23325C6.68955 89.9973 6.22949 89.5372 6.22949 88.9935C6.22949 88.4498 6.68955 87.9897 7.23325 87.9897H29.9432C30.4869 87.9897 30.9469 88.4498 30.9469 88.9935C30.9469 89.5372 30.4869 89.9973 29.9432 89.9973Z" fill="#8C8C8C"/>
<path d="M79.6707 89.9973H59.721C59.1773 89.9973 58.7173 89.5372 58.7173 88.9935C58.7173 88.4498 59.1773 87.9897 59.721 87.9897H79.6707C80.2144 87.9897 80.6744 88.4498 80.6744 88.9935C80.6744 89.5372 80.2562 89.9973 79.6707 89.9973Z" fill="#8C8C8C"/>
<path d="M13.0048 94.6816H7.23325C6.68955 94.6816 6.22949 94.2215 6.22949 93.6778C6.22949 93.1341 6.68955 92.6741 7.23325 92.6741H13.0048C13.5485 92.6741 14.0086 93.1341 14.0086 93.6778C14.0086 94.2215 13.5485 94.6816 13.0048 94.6816Z" fill="#8C8C8C"/>
<path d="M79.6709 94.6816H70.888C70.3443 94.6816 69.8843 94.2215 69.8843 93.6778C69.8843 93.1341 70.3443 92.6741 70.888 92.6741H79.6709C80.2146 92.6741 80.6746 93.1341 80.6746 93.6778C80.6746 94.2215 80.2564 94.6816 79.6709 94.6816Z" fill="#8C8C8C"/>
<path d="M35.3383 85.2717H23.0423C22.4986 85.2717 22.0386 84.8116 22.0386 84.2679C22.0386 83.7242 22.4986 83.2642 23.0423 83.2642H35.3801C35.9238 83.2642 36.3839 83.7242 36.3839 84.2679C36.3839 84.8116 35.9238 85.2717 35.3383 85.2717Z" fill="#8C8C8C"/>
<path d="M44.5813 85.2717H39.4371C38.8934 85.2717 38.4333 84.8116 38.4333 84.2679C38.4333 83.7242 38.8934 83.2642 39.4371 83.2642H44.5813C45.125 83.2642 45.5851 83.7242 45.5851 84.2679C45.5851 84.8116 45.125 85.2717 44.5813 85.2717Z" fill="#8C8C8C"/>
<path d="M79.6709 85.2717H48.1781C47.6344 85.2717 47.1743 84.8116 47.1743 84.2679C47.1743 83.7242 47.6344 83.2642 48.1781 83.2642H79.7127C80.2564 83.2642 80.7164 83.7242 80.7164 84.2679C80.6746 84.8116 80.2564 85.2717 79.6709 85.2717Z" fill="#8C8C8C"/>
<path d="M56.2083 89.9973H33.4984C32.9547 89.9973 32.4946 89.5372 32.4946 88.9935C32.4946 88.4498 32.9547 87.9897 33.4984 87.9897H56.2083C56.752 87.9897 57.2121 88.4498 57.2121 88.9935C57.2121 89.5372 56.752 89.9973 56.2083 89.9973Z" fill="#8C8C8C"/>
<path d="M40.1899 94.6816H16.4344C15.8907 94.6816 15.4307 94.2215 15.4307 93.6778C15.4307 93.1341 15.8907 92.6741 16.4344 92.6741H40.2318C40.7755 92.6741 41.2355 93.1341 41.2355 93.6778C41.2355 94.2215 40.7755 94.6816 40.1899 94.6816Z" fill="#8C8C8C"/>
<path d="M67.3331 94.6816H43.5357C42.992 94.6816 42.532 94.2215 42.532 93.6778C42.532 93.1341 42.992 92.6741 43.5357 92.6741H67.3331C67.8768 92.6741 68.3368 93.1341 68.3368 93.6778C68.3368 94.2215 67.8768 94.6816 67.3331 94.6816Z" fill="#8C8C8C"/>
<path d="M272.225 116.504H217.018C215.074 116.504 213.461 114.927 213.461 112.948V100.903C213.461 98.9587 215.039 97.3457 217.018 97.3457H272.266C274.21 97.3457 275.823 98.9236 275.823 100.903V112.943C275.784 114.932 274.204 116.504 272.225 116.504Z" fill="white" stroke="#E4E4E4"/>
<path d="M231.614 103.245H219.276C218.733 103.245 218.272 102.785 218.272 102.241C218.272 101.697 218.733 101.237 219.276 101.237H231.614C232.158 101.237 232.618 101.697 232.618 102.241C232.618 102.785 232.158 103.245 231.614 103.245Z" fill="#BABABA"/>
<path d="M241.986 107.971H219.276C218.733 107.971 218.272 107.511 218.272 106.967C218.272 106.423 218.733 105.963 219.276 105.963H241.986C242.53 105.963 242.99 106.423 242.99 106.967C242.99 107.511 242.53 107.971 241.986 107.971Z" fill="#BABABA"/>
<path d="M225.048 112.655H219.276C218.733 112.655 218.272 112.195 218.272 111.651C218.272 111.107 218.733 110.647 219.276 110.647H225.048C225.592 110.647 226.052 111.107 226.052 111.651C226.052 112.195 225.592 112.655 225.048 112.655Z" fill="#BABABA"/>
<path d="M247.382 103.245H235.086C234.542 103.245 234.082 102.785 234.082 102.241C234.082 101.697 234.542 101.237 235.086 101.237H247.423C247.967 101.237 248.427 101.697 248.427 102.241C248.427 102.785 247.967 103.245 247.382 103.245Z" fill="#BABABA"/>
<path d="M256.624 103.245H251.48C250.936 103.245 250.476 102.785 250.476 102.241C250.476 101.697 250.936 101.237 251.48 101.237H256.624C257.168 101.237 257.628 101.697 257.628 102.241C257.628 102.785 257.168 103.245 256.624 103.245Z" fill="#BABABA"/>
<path d="M270.133 103.245H259.97C259.427 103.245 258.967 102.785 258.967 102.241C258.967 101.697 259.427 101.237 259.97 101.237H270.133C270.677 101.237 271.137 101.697 271.137 102.241C271.137 102.785 270.677 103.245 270.133 103.245Z" fill="#BABABA"/>
<path d="M270.342 107.971H245.541C244.998 107.971 244.538 107.511 244.538 106.967C244.538 106.423 244.998 105.963 245.541 105.963H270.342C270.886 105.963 271.346 106.423 271.346 106.967C271.346 107.511 270.886 107.971 270.342 107.971Z" fill="#BABABA"/>
<path d="M252.233 112.655H228.477C227.934 112.655 227.474 112.195 227.474 111.651C227.474 111.107 227.934 110.647 228.477 110.647H252.275C252.818 110.647 253.278 111.107 253.278 111.651C253.278 112.195 252.818 112.655 252.233 112.655Z" fill="#BABABA"/>
<path d="M270.175 112.655H255.579C255.035 112.655 254.575 112.195 254.575 111.651C254.575 111.107 255.035 110.647 255.579 110.647H270.175C270.719 110.647 271.179 111.107 271.179 111.651C271.179 112.195 270.719 112.655 270.175 112.655Z" fill="#BABABA"/>
<path d="M108.152 125.005H61.3105C59.3315 125.005 57.7537 123.392 57.7537 121.449V109.404C57.7537 107.425 59.3667 105.847 61.3105 105.847H108.152C110.131 105.847 111.709 107.46 111.709 109.404V121.449C111.709 123.428 110.096 125.005 108.152 125.005Z" fill="white" stroke="#E4E4E4"/>
<path d="M100.122 111.746H107.441C107.985 111.746 108.445 111.286 108.445 110.742C108.445 110.198 107.985 109.738 107.441 109.738H100.122C99.5787 109.738 99.1187 110.198 99.1187 110.742C99.1187 111.286 99.5369 111.746 100.122 111.746Z" fill="#A6A6A6"/>
<path d="M93.347 116.43H107.441C107.985 116.43 108.445 115.97 108.445 115.426C108.445 114.882 107.985 114.422 107.441 114.422H93.347C92.8033 114.422 92.3433 114.882 92.3433 115.426C92.3433 116.012 92.8033 116.43 93.347 116.43Z" fill="#A6A6A6"/>
<path d="M60.8924 116.43H73.1884C73.7321 116.43 74.1922 115.97 74.1922 115.426C74.1922 114.882 73.7321 114.422 73.1884 114.422H60.8924C60.3487 114.422 59.8887 114.882 59.8887 115.426C59.8887 116.012 60.3487 116.43 60.8924 116.43Z" fill="#A6A6A6"/>
<path d="M104.388 121.156H107.441C107.985 121.156 108.445 120.696 108.445 120.152C108.445 119.608 107.985 119.148 107.441 119.148H104.388C103.845 119.148 103.385 119.608 103.385 120.152C103.385 120.696 103.845 121.156 104.388 121.156Z" fill="#A6A6A6"/>
<path d="M60.8924 121.156H65.9112C66.4549 121.156 66.915 120.696 66.915 120.152C66.915 119.608 66.4549 119.148 65.9112 119.148H60.8924C60.3487 119.148 59.8887 119.608 59.8887 120.152C59.8887 120.696 60.3487 121.156 60.8924 121.156Z" fill="#A6A6A6"/>
<path d="M89.7921 111.746H97.1111C97.6548 111.746 98.1149 111.286 98.1149 110.742C98.1149 110.198 97.6548 109.738 97.1111 109.738H89.7921C89.2484 109.738 88.7883 110.198 88.7883 110.742C88.7883 111.286 89.2484 111.746 89.7921 111.746Z" fill="#A6A6A6"/>
<path d="M83.8113 111.746H86.488C87.0317 111.746 87.4918 111.286 87.4918 110.742C87.4918 110.198 87.0317 109.738 86.488 109.738H83.8113C83.2676 109.738 82.8076 110.198 82.8076 110.742C82.7658 111.286 83.2258 111.746 83.8113 111.746Z" fill="#A6A6A6"/>
<path d="M60.8924 111.746H80.7584C81.3021 111.746 81.7622 111.286 81.7622 110.742C81.7622 110.198 81.3021 109.738 80.7584 109.738H60.8924C60.3487 109.738 59.8887 110.198 59.8887 110.742C59.8887 111.286 60.3487 111.746 60.8924 111.746Z" fill="#A6A6A6"/>
<path d="M76.1996 116.43H90.2939C90.8376 116.43 91.2977 115.97 91.2977 115.426C91.2977 114.882 90.8376 114.422 90.2939 114.422H76.1996C75.6559 114.422 75.1958 114.882 75.1958 115.426C75.1958 116.012 75.6559 116.43 76.1996 116.43Z" fill="#A6A6A6"/>
<path d="M86.6554 121.156H101.461C102.004 121.156 102.464 120.696 102.464 120.152C102.464 119.608 102.004 119.148 101.461 119.148H86.6554C86.1117 119.148 85.6516 119.608 85.6516 120.152C85.6516 120.696 86.0698 121.156 86.6554 121.156Z" fill="#A6A6A6"/>
<path d="M68.9642 121.156H83.7696C84.3133 121.156 84.7733 120.696 84.7733 120.152C84.7733 119.608 84.3133 119.148 83.7696 119.148H68.9642C68.4205 119.148 67.9604 119.608 67.9604 120.152C67.9604 120.696 68.3787 121.156 68.9642 121.156Z" fill="#A6A6A6"/>
</svg>
