<svg width="160" height="53" fill="none" xmlns="http://www.w3.org/2000/svg"><path d="M26.5 52.75c14.36 0 26-11.64 26-26s-11.64-26-26-26-26 11.64-26 26 11.64 26 26 26z" fill="#19191B"/><path d="M41.158 46.608c-.179-.627-.403-1.21-.583-1.838-.94-2.824-2.24-5.827-4.258-7.576 5.559-2.24 8.114-7.8 8.114-12.91 0-4.124-1.659-7.934-4.707-10.758-2.017-1.883-4.528-3.228-7.442-3.99.987-1.21 2.152-2.152 3.497-2.78a8.356 8.356 0 0 1 7.307.18 26.304 26.304 0 0 0-4.976-3.228c-1.12.135-2.241.404-3.317.897-2.197.986-3.855 2.555-5.11 4.393a23.267 23.267 0 0 0-3.587-.27c-5.514 0-10.22 1.66-13.583 4.753-3.048 2.824-4.751 6.679-4.751 10.758 0 6.814 4.572 12.059 11.879 13.583l.493-2.331c-6.186-1.3-9.996-5.603-9.996-11.252 0-6.32 4.975-13.134 15.913-13.134.807 0 1.57.045 2.331.09-2.555 5.424-2.6 12.237-2.42 15.824l.09 1.165c.537 10.58-1.883 17.931-6.725 20.262-2.645 1.3-5.872.897-8.652-.941a25.556 25.556 0 0 0 7.218 3.9c.851-.18 1.658-.449 2.465-.807 3.362-1.614 8.876-6.724 8.07-22.548l-.09-1.166c-.314-6.41.537-11.655 2.51-15.286 7.62 1.659 11.117 7.307 11.117 12.641 0 7.397-5.065 11.073-10.041 11.476v.045h-.18l.27 2.376c2.51-.314 4.392 1.883 6.23 7.351.18.583.404 1.21.583 1.794.224.717.449 1.39.673 2.107a20.3 20.3 0 0 0 2.062-1.345c-.09-.404-.27-.897-.404-1.435z" fill="#fff"/><path d="M113.037 31.881c-.649 1.984-1.259 3.547-1.793 4.654a22.062 22.062 0 0 1-1.983 3.356c-1.984 2.86-3.242 3.433-3.929 3.433-.229 0-.381-.038-.496-.152-.114-.115-.152-.267-.152-.496 0-.306.076-.84.19-1.64l.954-5.15c.191-1.068.305-1.83.305-2.403 0-.839-.191-1.564-.61-2.136-.42-.61-.992-.915-1.602-.915-.458 0-.992.229-1.488.648-.458.382-1.182 1.145-2.136 2.25l-.534.573.992.839.267-.267c1.411-1.526 2.021-1.678 2.174-1.678.114 0 .229.038.381.267.153.267.229.61.229 1.068 0 .495-.114 1.22-.343 2.136l-.992 3.928-.229 1.03c-.19.725-.305 1.259-.305 1.678 0 .763.229 1.374.687 1.87a2.449 2.449 0 0 0 1.754.724c1.335 0 2.747-.8 4.196-2.326.916-.992 1.831-2.29 2.746-3.891l-1.602 6.713 3.243-1.373 2.784-14.304-2.479.763-.229.801zM156.595 31.042l-.305.839c-.648 1.983-1.258 3.547-1.792 4.654a22.075 22.075 0 0 1-1.984 3.356c-1.983 2.86-3.242 3.433-3.929 3.433-.228 0-.381-.038-.495-.153-.115-.114-.153-.267-.153-.496 0-.305.076-.839.191-1.64l.953-5.149c.191-1.068.305-1.83.305-2.403 0-.84-.19-1.564-.61-2.136-.419-.61-.992-.915-1.602-.915-.458 0-.992.229-1.487.648-.458.382-1.183 1.144-2.136 2.25l-.534.573.991.839.267-.267c1.412-1.526 2.022-1.678 2.174-1.678.115 0 .229.038.382.267.152.267.229.61.229 1.068 0 .495-.115 1.22-.344 2.136l-.953 3.928-.229 1.03c-.191.725-.305 1.259-.305 1.678 0 .763.229 1.373.686 1.87a2.45 2.45 0 0 0 1.755.724c1.335 0 2.746-.801 4.196-2.327.915-.991 1.831-2.288 2.746-3.89l-1.602 6.675 3.242-1.373 2.785-14.304-2.442.763zM126.92 40.997c-.762.992-1.487 1.678-2.174 2.136-.648.42-1.297.648-1.983.648-.839 0-1.526-.305-2.06-.915-.534-.648-.801-1.45-.801-2.441v-.153c2.251-.877 4.081-1.907 5.416-3.127 1.412-1.297 2.136-2.632 2.136-3.967 0-.725-.267-1.297-.762-1.755-.496-.458-1.145-.686-1.869-.686-1.221 0-2.442.534-3.662 1.525-1.183.992-2.174 2.289-2.937 3.776-.801 1.526-1.182 3.052-1.182 4.54 0 1.525.419 2.746 1.258 3.7.839.953 1.984 1.41 3.395 1.41 1.144 0 2.25-.305 3.242-.915.992-.61 1.983-1.602 3.013-2.937l.229-.305-1.03-.84-.229.306zm-2.25-6.408c-.381.687-.839 1.373-1.449 1.983-.763.801-1.869 1.526-3.243 2.213.267-1.564.84-3.052 1.755-4.463.992-1.526 1.945-2.289 2.823-2.289.419 0 .648.115.648.763 0 .496-.153 1.106-.534 1.793zM141.338 41.952c-1.068 1.106-1.679 1.335-2.022 1.335-.152 0-.343-.077-.534-.23-.229-.19-.496-.533-.801-.991-.305-.496-.648-1.144-1.068-1.945a41.842 41.842 0 0 1-1.983-4.501c1.525-1.678 3.127-2.556 4.844-2.556.229 0 .534.038.992.153l.381.076.61-2.784-.496.038c-1.029.038-1.983.229-2.784.572-.839.305-1.64.801-2.479 1.45a15 15 0 0 0-1.945 1.907c-.649.763-1.259 1.563-1.755 2.364l6.065-26.356-3.471 1.64-6.599 33.68 2.403-.763.038-.229c.382-2.25 1.183-4.5 2.441-6.713a44.964 44.964 0 0 0 2.212 4.54c.611 1.105 1.107 1.868 1.564 2.326.496.496 1.068.763 1.679.763.534 0 1.563-.305 3.814-3.052l.191-.267-.801-.915-.496.458z" fill="#19191B"/><path d="M94.868 41.392c-.153-.534-.344-1.03-.496-1.563-.801-2.403-1.907-4.959-3.624-6.446 4.73-1.908 6.904-6.637 6.904-10.986 0-3.509-1.411-6.75-4.005-9.154-1.717-1.602-3.853-2.746-6.332-3.394.84-1.03 1.831-1.831 2.975-2.365a7.11 7.11 0 0 1 6.218.152c-.068-1.763-2.253-2.92-4.234-2.746-.954.114-1.907.343-2.823.763-1.869.839-3.28 2.174-4.348 3.738a19.798 19.798 0 0 0-3.051-.229c-4.692 0-8.697 1.411-11.558 4.043-2.593 2.403-4.043 5.683-4.043 9.154 0 5.798 3.89 10.26 10.108 11.558l.42-1.984c-5.264-1.106-8.332-4.768-8.332-9.574 0-5.378 4.06-11.175 13.366-11.175.687 0 1.335.038 1.984.076-2.174 4.615-2.386 10.413-2.234 13.464l.077.992c.457 9.002-1.429 15.257-5.548 17.24-2.25 1.106-4.997.763-7.362-.8.47 3.047 3.912 3.787 6.141 3.318a10.382 10.382 0 0 0 2.098-.687c2.861-1.373 7.726-5.721 7.04-19.185l-.077-.992c-.267-5.455.284-9.917 1.963-13.007 6.484 1.411 9.285 6.217 9.285 10.756 0 6.294-4.136 9.422-8.37 9.765v.038h-.153l.056 2.022c2.136-.267 3.738 1.602 5.302 6.255.152.496.343 1.03.495 1.526.191.61.336 1.198.573 1.792.364.917 1.233 1.937 2.665 1.937 2.306 0 3.933-3.441 3.933-3.441l-.983-.983s-1.168 1.232-1.602 1.493c-.435.26-1.082.316-1.564 0s-.75-.913-.864-1.37z" fill="#19191B" stroke="#19191B" stroke-width=".5"/></svg>