<svg width="124" height="123" fill="none" xmlns="http://www.w3.org/2000/svg"><g filter="url(#a)"><circle cx="62" cy="61.5" r="61.5" fill="#19191B"/></g><path d="M59.735 76.518c-.29.401-.58.802-.856 1.22-.26.402-.228.74.093 1.105a58.31 58.31 0 0 0 1.836 2.006c.444.462.735.49 1.27.19.504-.269.993-.585 1.497-.885.398-.228.795-.303 1.239-.086.627.318 1.239.619 1.866.936a.874.874 0 0 1 .444.585c.046.17.092.34.123.525.107.571.215 1.173.307 1.758.061.34.276.532.597.622.138.021.275.073.398.078.886.068 1.758.12 2.63.172.428.018.688-.2.825-.578.076-.257.152-.514.198-.772.091-.425.168-.865.259-1.29a.993.993 0 0 1 .672-.767c.642-.218 1.269-.421 1.91-.64a.84.84 0 0 1 .735.093c.245.163.505.342.765.522.352.244.704.52 1.07.78.521.358.858.342 1.316-.068a94.344 94.344 0 0 0 1.849-1.712c.382-.367.412-.733.136-1.204l-1.056-1.743a1.096 1.096 0 0 1-.062-1.104c.29-.585.564-1.186.824-1.772.137-.315.367-.474.688-.537.229-.067.474-.087.703-.123.49-.072 1.009-.111 1.498-.213.428-.074.657-.385.688-.813l.045-.962-.002-1.928c-.015-.108-.046-.201-.107-.173-.214-.315-.535-.436-.857-.526-.52-.144-1.055-.305-1.59-.434-.52-.114-.857-.404-1.026-.916-.214-.59-.444-1.197-.659-1.787a.837.837 0 0 1 .092-.762c.412-.61.81-1.205 1.237-1.8.213-.327.229-.648-.001-.948-.306-.411-.643-.823-.98-1.205-.352-.397-.734-.765-1.117-1.133-.245-.255-.535-.314-.81-.172-.505.239-.994.524-1.468.795-.198.099-.382.214-.58.312-.352.185-.688.17-1.04-.013-.505-.25-1.01-.532-1.53-.768s-.795-.615-.857-1.169a17.078 17.078 0 0 0-.246-1.54 1.686 1.686 0 0 0-.214-.622.891.891 0 0 0-.75-.444c-.933-.024-1.896-.08-2.844-.12-.03-.001-.077-.019-.107-.02-.077.012-.138.04-.214.052-.245.174-.382.428-.459.716-.045.136-.06.273-.106.408-.122.546-.26 1.107-.381 1.653-.061.272-.23.434-.489.53l-1.697.617c-.55.222-1.04.14-1.514-.263a43.8 43.8 0 0 0-1.438-1.07c-.398-.292-.704-.305-1.07.016-.718.597-1.39 1.212-2.063 1.826-.336.323-.366.628-.152 1.065.046.11.107.234.168.329.307.502.628 1.02.934 1.523.215.346.245.684.093 1.045-.26.555-.519 1.141-.763 1.713a.907.907 0 0 1-.657.508c-.169.038-.337.077-.52.1-.581.068-1.162.166-1.743.233-.336.047-.52.254-.596.572-.03.12-.076.257-.076.38-.03.916-.03 1.834-.059 2.751 0 .276.169.482.398.599.26.118.505.22.75.291.474.127.978.256 1.468.368.428.11.719.383.887.803m11.851.759c1.911-.578 2.873-2.604 2.214-4.544-.537-1.6-2.556-3-4.605-2.352-1.865.564-2.872 2.603-2.213 4.483" stroke="#929292" stroke-width="2" stroke-miterlimit="10"/><path d="M50.344 61.518c.327-.216.654-.432.954-.665.3-.232.606-.263.96-.105.327.143.654.285.996.402a.95.95 0 0 0 .428.095c.2-.005.385-.074.511-.285.327-.575.68-1.135 1.012-1.689.016-.026.037-.031.053-.058l.032-.142c-.006-.2-.117-.375-.264-.518-.064-.074-.148-.142-.211-.216-.27-.27-.564-.555-.834-.824a.575.575 0 0 1-.142-.48c.074-.423.148-.845.2-1.262.058-.396.258-.67.649-.813.39-.142.754-.3 1.112-.48.317-.169.412-.327.348-.67l-.406-1.895c-.058-.322-.248-.454-.564-.465-.09 0-.159-.005-.248-.005l-1.203.03c-.29.006-.49-.078-.659-.306-.242-.343-.49-.707-.76-1.066a.62.62 0 0 1-.1-.58l.111-.365c.132-.37.28-.765.432-1.14.08-.222.01-.407-.142-.57-.058-.053-.122-.127-.2-.175l-1.599-1.014a.437.437 0 0 0-.485.032c-.132.1-.28.227-.406.348-.253.243-.48.501-.706.76-.211.232-.464.295-.765.258-.284-.063-.585-.1-.864-.143-.744-.106-.834-.195-1.14-.882-.147-.322-.274-.65-.443-.966-.163-.296-.369-.401-.69-.343-.596.126-1.192.253-1.783.4-.422.106-.538.27-.543.697.01.4.027.823.037 1.224.016.333-.073.602-.342.782-.385.253-.786.532-1.17.786-.154.105-.333.105-.502.057-.1-.042-.221-.079-.343-.116a27.56 27.56 0 0 1-1.139-.433c-.221-.08-.406-.01-.57.142a.898.898 0 0 0-.194.206l-.965 1.52c-.163.243-.126.48.064.702.126.148.247.275.39.396.21.217.438.407.67.618.205.195.285.422.237.681-.063.465-.153.913-.237 1.383a.584.584 0 0 1-.3.412c-.18.09-.359.179-.56.274-.284.116-.569.232-.827.364-.38.184-.485.39-.4.818.126.596.247 1.172.39 1.742.09.359.306.507.664.507.47-.005.912-.026 1.382-.031.269 0 .516.095.67.349.253.385.522.744.775 1.13.137.19.142.39.084.607-.031.142-.1.316-.152.464-.138.348-.285.655-.38.992-.09.27.021.534.264.697.19.132.38.264.564.375.374.243.37.222.738.444l.633.29c.248.006.433-.152.59-.326.264-.29.538-.539.781-.824.227-.258.517-.353.87-.284.427.095.849.169 1.27.243.19.042.328.143.418.322.205.465.432.924.638 1.389a.51.51 0 0 0 .553.333c.349-.043.691-.106 1.034-.169.338-.084.69-.195 1.028-.28M47.11 52.164c-1.82-.376-3.233.965-3.412 2.22-.29 1.352.417 2.656 1.63 3.206m3.965-3.324c.1.4.122.844.027 1.272-.262 1.32-1.358 2.118-2.445 2.277" stroke="#fff" stroke-width="2" stroke-miterlimit="10"/><path d="M99.5 62.5C99.5 41.237 82.263 24 61 24S22.5 41.237 22.5 62.5a38.36 38.36 0 0 0 3.472 16" stroke="#fff" stroke-width="2"/><path d="M92.942 84.5c-6.916 10.255-18.642 17-31.942 17-14.359 0-26.881-7.86-33.5-19.513" stroke="#929292" stroke-width="2"/><path d="m104.582 62.567-5.31 7.205-5.31-7.205h6.538" stroke="#fff" stroke-width="2" stroke-linejoin="round"/><defs><filter id="a" x="-3.5" y="-4" width="131" height="131" filterUnits="userSpaceOnUse" color-interpolation-filters="sRGB"><feFlood flood-opacity="0" result="BackgroundImageFix"/><feGaussianBlur in="BackgroundImage" stdDeviation="2"/><feComposite in2="SourceAlpha" operator="in" result="effect1_backgroundBlur"/><feBlend in="SourceGraphic" in2="effect1_backgroundBlur" result="shape"/></filter></defs></svg>