<svg width="124" height="123" viewBox="0 0 124 123" fill="none" xmlns="http://www.w3.org/2000/svg">
<g filter="url(#filter0_b)">
<circle cx="62" cy="61.5" r="61.5" fill="#19191B"/>
</g>
<path d="M59.7346 76.5184C59.4444 76.9194 59.1542 77.3204 58.8793 77.7373C58.6197 78.1396 58.6505 78.4776 58.9719 78.8431C59.5688 79.5263 60.181 80.1948 60.8084 80.8487C61.2522 81.3112 61.5428 81.3387 62.0777 81.0399C62.5821 80.7703 63.0711 80.4542 63.5755 80.154C63.9729 79.9259 64.3703 79.8508 64.814 80.0684C65.4411 80.3856 66.053 80.6868 66.6802 81.004C66.9249 81.1367 67.0627 81.3414 67.1241 81.5889C67.1701 81.7592 67.2161 81.9295 67.2468 82.1144C67.3543 82.6852 67.4619 83.2866 67.5541 83.872C67.6155 84.2113 67.8297 84.4039 68.1509 84.494C68.2885 84.5151 68.4262 84.5668 68.5485 84.5719C69.4355 84.6399 70.3071 84.6918 71.1787 84.7438C71.6068 84.7618 71.8666 84.5432 72.0039 84.1664C72.0801 83.9094 72.1564 83.6524 72.2021 83.3942C72.2935 82.9695 72.3695 82.5289 72.4609 82.1042C72.5371 81.7248 72.7815 81.4596 73.1331 81.3367C73.7751 81.1188 74.4019 80.9156 75.0439 80.6978C75.2885 80.6163 75.5485 80.6425 75.778 80.7899C76.0227 80.9532 76.2828 81.1325 76.5429 81.3118C76.8948 81.5562 77.2467 81.8312 77.6139 82.0915C78.1341 82.4501 78.4705 82.4336 78.9288 82.0244C79.54 81.4685 80.1665 80.898 80.7776 80.3116C81.1596 79.9451 81.1899 79.579 80.9143 79.1083C80.5621 78.5272 80.2099 77.9462 79.8578 77.3651C79.6434 77.0194 79.6126 76.6508 79.7957 76.2606C80.0858 75.6759 80.3605 75.0753 80.62 74.4894C80.7573 74.1738 80.9866 74.0151 81.3076 73.952C81.5369 73.8852 81.7816 73.8649 82.0109 73.8286C82.5001 73.7574 83.02 73.718 83.5092 73.6162C83.9373 73.5423 84.1664 73.2306 84.1966 72.8034C84.2117 72.4826 84.2267 72.1618 84.2417 71.8411C84.2412 71.1983 84.2407 70.5555 84.2402 69.9127C84.2248 69.8049 84.1941 69.7118 84.133 69.7398C83.9187 69.4247 83.5975 69.3041 83.2763 69.2141C82.7563 69.0697 82.221 68.9095 81.6857 68.7798C81.1657 68.6661 80.8291 68.3765 80.6605 67.8644C80.4459 67.2738 80.2161 66.6672 80.0015 66.0767C79.9096 65.7973 79.9399 65.5537 80.0927 65.3153C80.505 64.7052 80.9021 64.1097 81.3297 63.5155C81.5435 63.1878 81.5586 62.8671 81.329 62.5666C81.0228 62.1558 80.6861 61.7438 80.3494 61.3623C79.9974 60.9649 79.6148 60.5968 79.2322 60.2287C78.9874 59.9735 78.6968 59.9154 78.4217 60.0569C77.9173 60.2958 77.4282 60.5813 76.9544 60.8521C76.7557 60.9509 76.5723 61.0656 76.3736 61.1644C76.0221 61.3486 75.6857 61.3344 75.3339 61.1513C74.8291 60.9005 74.3243 60.619 73.8042 60.3829C73.2841 60.1468 73.0086 59.7679 72.9469 59.2143C72.8854 58.6914 72.8085 58.1831 72.701 57.6736C72.6703 57.458 72.5936 57.2252 72.4865 57.0524C72.3181 56.7851 72.0733 56.6218 71.7369 56.6076C70.8041 56.5837 69.8408 56.5278 68.8927 56.4879C68.8621 56.4866 68.8162 56.4694 68.7857 56.4681C68.7092 56.4802 68.6481 56.5083 68.5716 56.5203C68.3271 56.6937 68.1897 56.9481 68.1135 57.2357C68.0677 57.3715 68.0525 57.5086 68.0068 57.6444C67.8849 58.1902 67.7477 58.7507 67.6259 59.2965C67.5649 59.5694 67.3968 59.7307 67.137 59.8269C66.5714 60.0327 66.0058 60.2384 65.4402 60.4442C64.8899 60.6659 64.4006 60.5841 63.9262 60.1815C63.4519 59.8096 62.9623 59.4523 62.488 59.1109C62.0902 58.8187 61.7844 58.8059 61.4177 59.1271C60.6995 59.7244 60.0272 60.3389 59.3549 60.9533C59.0188 61.2759 58.9885 61.5807 59.2029 62.0182C59.2489 62.1273 59.3101 62.2523 59.3714 62.3467C59.6776 62.8493 59.9991 63.3679 60.3053 63.8705C60.5197 64.2162 60.5505 64.5542 60.3979 64.9151C60.1384 65.4704 59.879 66.0564 59.6348 66.6277C59.4974 66.9127 59.2682 67.0714 58.9777 67.1357C58.8095 67.1745 58.6414 67.2133 58.4579 67.2362C57.8769 67.3036 57.2959 67.4016 56.7149 67.469C56.3786 67.516 56.1953 67.7226 56.1191 68.0408C56.0886 68.1619 56.0428 68.2977 56.0429 68.4202C56.0131 69.3372 56.0138 70.2554 55.984 71.1724C55.9842 71.4479 56.1526 71.654 56.382 71.7707C56.6421 71.8888 56.8868 71.9909 57.1315 72.0624C57.6056 72.1895 58.1103 72.3179 58.5997 72.4303C59.028 72.5402 59.3187 72.8126 59.4872 73.2329M71.3381 73.9917C73.249 73.414 74.2107 71.3884 73.5516 69.4477C73.0151 67.8487 70.9956 66.4476 68.9472 67.096C67.0822 67.6603 66.0747 69.6993 66.7337 71.5788" stroke="#929292" stroke-width="2" stroke-miterlimit="10"/>
<path d="M50.3438 61.5181C50.6707 61.3018 50.9976 61.0855 51.2981 60.8533C51.5986 60.6212 51.9045 60.5896 52.2578 60.7481C52.5848 60.8908 52.9117 61.0334 53.2545 61.1497C53.3811 61.2078 53.5498 61.2554 53.6816 61.2449C53.882 61.2397 54.0666 61.1711 54.1931 60.96C54.5199 60.3848 54.8731 59.8254 55.2052 59.2712C55.221 59.2448 55.2421 59.2396 55.2579 59.2132C55.2685 59.1657 55.279 59.1182 55.2896 59.0707C55.2842 58.8701 55.1735 58.6958 55.0258 58.5532C54.9625 58.4793 54.8781 58.4107 54.8148 58.3367C54.5459 58.0674 54.2505 57.7822 53.9815 57.5129C53.8602 57.3862 53.818 57.2172 53.8391 57.0325C53.9128 56.6102 53.9866 56.1879 54.0392 55.7709C54.0972 55.375 54.2975 55.1006 54.6877 54.9582C55.0779 54.8159 55.4417 54.6576 55.8002 54.4783C56.1166 54.3095 56.2115 54.1512 56.1481 53.808C56.0109 53.1692 55.879 52.5516 55.7418 51.9128C55.6837 51.5907 55.4939 51.4587 55.1775 51.448C55.0878 51.448 55.0193 51.4427 54.9296 51.4426C54.5289 51.453 54.1281 51.4634 53.7274 51.4738C53.4373 51.479 53.237 51.3945 53.0682 51.1674C52.8256 50.8242 52.5777 50.4598 52.3087 50.1008C52.1715 49.9107 52.1451 49.7154 52.2084 49.5201C52.2453 49.3987 52.2821 49.2773 52.319 49.1559C52.4508 48.7864 52.5984 48.3906 52.7512 48.0158C52.8303 47.7941 52.7617 47.6094 52.6088 47.4457C52.5507 47.3928 52.4875 47.3189 52.4083 47.2714C51.8757 46.9333 51.3431 46.5953 50.8104 46.2572C50.6311 46.1674 50.4782 46.1832 50.3253 46.2887C50.1935 46.3889 50.0459 46.5156 49.9193 46.6369C49.6663 46.8797 49.4396 47.1382 49.2129 47.3968C49.002 47.629 48.7489 47.6922 48.4483 47.6552C48.1636 47.5917 47.863 47.5546 47.5835 47.5123C46.84 47.4064 46.7503 47.3166 46.4444 46.6303C46.2966 46.3082 46.17 45.9809 46.0012 45.6641C45.8377 45.3684 45.6321 45.2627 45.3104 45.3207C44.7146 45.4471 44.1187 45.5736 43.5282 45.7212C43.1063 45.8266 42.9904 45.9902 42.9852 46.4177C42.9958 46.8189 43.0117 47.2412 43.0223 47.6424C43.0382 47.975 42.9486 48.2442 42.6797 48.4236C42.2948 48.6768 41.8941 48.9564 41.5092 49.2096C41.3563 49.3152 41.177 49.3151 41.0082 49.2675C40.908 49.2252 40.7868 49.1882 40.6655 49.1512C40.2963 49.0191 39.9008 48.8712 39.5264 48.7179C39.3049 48.6387 39.1204 48.7072 38.9569 48.8602C38.8831 48.9235 38.8093 48.9869 38.7619 49.066C38.4403 49.5727 38.1187 50.0793 37.7972 50.5859C37.6337 50.8287 37.6707 51.0663 37.8606 51.288C37.9871 51.4359 38.1084 51.5626 38.2508 51.6841C38.4618 51.9006 38.6886 52.0908 38.9206 52.302C39.1263 52.4974 39.2055 52.7244 39.158 52.9831C39.0948 53.4476 39.0053 53.8962 38.921 54.366C38.8788 54.556 38.7787 54.6932 38.6205 54.7776C38.4412 54.8673 38.262 54.957 38.0616 55.0519C37.7769 55.1679 37.4921 55.284 37.2338 55.4158C36.8542 55.6004 36.7487 55.8063 36.8332 56.2339C36.9598 56.8304 37.0812 57.4059 37.2237 57.9761C37.3134 58.335 37.5296 58.4829 37.8882 58.4831C38.3575 58.478 38.8004 58.4571 39.2697 58.452C39.5387 58.4521 39.7865 58.5472 39.9395 58.8006C40.1927 59.1861 40.4617 59.5451 40.7148 59.9306C40.852 60.1207 40.8573 60.3213 40.7993 60.5377C40.7677 60.6802 40.6992 60.8544 40.6465 61.0022C40.5094 61.3505 40.3618 61.6566 40.267 61.9944C40.1774 62.2636 40.2882 62.5276 40.5308 62.6913C40.7206 62.8234 40.9105 62.9554 41.095 63.0664C41.4695 63.3093 41.4642 63.2882 41.8334 63.5101L42.4662 63.8007C42.714 63.806 42.8986 63.6478 43.0567 63.4736C43.3203 63.1834 43.5945 62.9354 43.837 62.6504C44.0637 62.3919 44.3537 62.297 44.707 62.3657C45.1341 62.4609 45.556 62.535 45.9779 62.6091C46.1677 62.6514 46.3048 62.7517 46.3945 62.9312C46.6002 63.3958 46.8271 63.8552 47.0328 64.3198C47.1383 64.5627 47.3229 64.6736 47.5865 64.6526C47.9345 64.6105 48.2773 64.5473 48.62 64.4841C48.9575 64.3998 49.3108 64.289 49.6482 64.2047M47.1097 52.1627C45.2905 51.7872 43.8775 53.1275 43.6984 54.3838C43.4086 55.735 44.1155 57.0392 45.3284 57.5886M49.2932 54.2646C49.3934 54.6658 49.4146 55.1092 49.3198 55.5368C49.0578 56.8575 47.9615 57.6551 46.8746 57.8136" stroke="white" stroke-width="2" stroke-miterlimit="10"/>
<path d="M99.5 62.5C99.5 41.237 82.263 24 61 24C39.737 24 22.5 41.237 22.5 62.5C22.5 68.2088 23.7425 73.6273 25.9718 78.5" stroke="white" stroke-width="2"/>
<path d="M92.9421 84.5C86.0257 94.7555 74.3004 101.5 61 101.5C46.6414 101.5 34.1186 93.6397 27.5 81.9873" stroke="#929292" stroke-width="2"/>
<path d="M104.582 62.567L99.2722 69.7722L93.9626 62.567L100.5 62.567" stroke="white" stroke-width="2" stroke-linejoin="round"/>
<defs>
<filter id="filter0_b" x="-3.5" y="-4" width="131" height="131" filterUnits="userSpaceOnUse" color-interpolation-filters="sRGB">
<feFlood flood-opacity="0" result="BackgroundImageFix"/>
<feGaussianBlur in="BackgroundImage" stdDeviation="2"/>
<feComposite in2="SourceAlpha" operator="in" result="effect1_backgroundBlur"/>
<feBlend mode="normal" in="SourceGraphic" in2="effect1_backgroundBlur" result="shape"/>
</filter>
</defs>
</svg>
