<svg width="124" height="123" fill="none" xmlns="http://www.w3.org/2000/svg"><g filter="url(#a)"><circle cx="62" cy="61.5" r="61.5" fill="#19191B"/></g><path d="M70.131 47.633a4.25 4.25 0 0 0 .175-.352c.196-.38.413-.786.633-1.173.118-.227.065-.41-.085-.565-.062-.07-.123-.14-.206-.184l-1.578-.882c-.25-.15-.521-.099-.794.106-.182.136-.34.266-.495.416-.27.225-.512.465-.779.711-.246.219-.51.312-.794.28-.512-.037-1.003-.1-1.519-.157-.207-.032-.348-.124-.422-.279-.077-.175-.154-.35-.235-.546-.093-.28-.186-.56-.3-.812-.158-.372-.375-.466-.865-.355-.685.162-1.345.319-2.002.496-.414.111-.608.338-.655.7-.055.471-.089.916-.144 1.389a.899.899 0 0 1-.478.695c-.464.278-.901.57-1.366.847a.887.887 0 0 1-.691.121c-.156-.023-.342-.082-.501-.126-.373-.117-.696-.248-1.063-.323-.29-.075-.6.053-.815.306-.172.2-.345.398-.493.591-.32.391-.297.385-.593.77l-.408.654c-.038.25.116.427.29.576.291.248.533.51.821.737.26.213.33.5.206.86-.162.435-.3.864-.437 1.294a.763.763 0 0 1-.415.438c-.547.235-1.091.49-1.639.725-.285.12-.434.313-.444.577.002.348.028.69.054 1.031.051.335.13.684.18 1.02m19.417-7.654c.45-.034.926-.075 1.377-.11.478-.02.647.088.71.506.089.586.153 1.179.218 1.772.023.32-.122.533-.475.716-.377.188-.76.335-1.14.503-.809.349-.92.444-1.136 1.2-.084.283-.164.588-.272.879-.08.305-.043.556.19.755.26.213.52.426.76.666.12.12.242.262.337.388.099.148.097.301-.027.487l-1.344 1.67c-.063.082-.154.15-.221.212-.203.163-.42.243-.658.177-.4-.132-.824-.257-1.22-.368l-.395-.09c-.21-.052-.432-.014-.663.135-.437.292-.878.564-1.294.828m-1.182 2.737-2.176.521c-.393.084-.558-.002-.706-.31a8.271 8.271 0 0 1-.393-1.092c-.11-.385-.39-.57-.827-.605-.46-.029-.924-.078-1.387-.127a.795.795 0 0 0-.557.172c-.337.286-.695.6-1.031.888-.091.068-.18.157-.27.225-.18.157-.389.279-.614.296l-.156-.023c-.027-.015-.03-.036-.058-.05-.578-.302-1.159-.624-1.761-.92-.22-.114-.273-.296-.253-.498.005-.132.08-.305.162-.435.175-.353.377-.69.58-1.028.223-.365.227-.671.006-.96-.221-.29-.421-.606-.621-.922" stroke="#fff" stroke-width="2" stroke-miterlimit="10"/><path d="M52.5 32.867h-10a4 4 0 0 0-4 4V79.5m35-46.633h11a4 4 0 0 1 4 4V39.5" stroke="#929292" stroke-width="2" stroke-miterlimit="10" stroke-linecap="round"/><path d="M38.5 83.5v5.007a4 4 0 0 0 4 4h42a4 4 0 0 0 4-4V43" stroke="#fff" stroke-width="2" stroke-miterlimit="10" stroke-linecap="round"/><path d="M47.438 71.311h32.15" stroke="#929292" stroke-width="2" stroke-miterlimit="10" stroke-linecap="round" stroke-linejoin="round"/><path d="M47.438 81.99h7.503" stroke="#929292" stroke-width="2" stroke-miterlimit="10" stroke-linecap="round"/><path d="M57.92 81.99H79.59M47.438 76.313h12.297M63.175 76.313h16.414" stroke="#929292" stroke-width="2" stroke-miterlimit="10" stroke-linecap="round" stroke-linejoin="round"/><path d="M69.432 30.137v-.216A5.925 5.925 0 0 0 63.5 24a5.924 5.924 0 0 0-5.932 5.92c0 .082 0 .163.027.217h-4.117v6.38h20.07v-6.38h-4.116z" stroke="#929292" stroke-width="2" stroke-miterlimit="10" stroke-linejoin="round"/><circle cx="63" cy="53.5" r="2.5" stroke="#fff" stroke-width="2"/><defs><filter id="a" x="-3.5" y="-4" width="131" height="131" filterUnits="userSpaceOnUse" color-interpolation-filters="sRGB"><feFlood flood-opacity="0" result="BackgroundImageFix"/><feGaussianBlur in="BackgroundImage" stdDeviation="2"/><feComposite in2="SourceAlpha" operator="in" result="effect1_backgroundBlur"/><feBlend in="SourceGraphic" in2="effect1_backgroundBlur" result="shape"/></filter></defs></svg>