<svg width="121" height="120" fill="none" xmlns="http://www.w3.org/2000/svg"><g filter="url(#a)"><circle cx="60.5" cy="60" r="60" fill="#19191B"/></g><path d="M54.3 78.546c.36-.062.72-.125 1.079-.203.343-.078.5-.266.515-.61.032-.64.047-1.281.047-1.922 0-.454-.14-.61-.578-.72-.406-.109-.828-.187-1.25-.28-.328-.079-.578-.235-.703-.564-.172-.469-.344-.922-.516-1.39a.596.596 0 0 1 .062-.517c.063-.11.125-.219.203-.328.235-.344.485-.703.735-1.047.14-.204.125-.407 0-.61-.063-.078-.11-.172-.172-.234-.438-.47-.875-.923-1.313-1.376-.218-.219-.468-.235-.734-.11-.172.094-.344.188-.5.297-.266.172-.532.36-.797.532a.76.76 0 0 1-.75.063c-.454-.204-.891-.407-1.344-.61a.6.6 0 0 1-.344-.407c-.047-.203-.094-.422-.14-.64-.063-.298-.11-.61-.173-.923-.094-.438-.281-.594-.734-.61a72.71 72.71 0 0 0-1.86-.03c-.39 0-.594.171-.688.546l-.328 1.407a.786.786 0 0 1-.531.594c-.453.157-.906.329-1.344.5a.667.667 0 0 1-.64-.062c-.157-.078-.298-.188-.438-.281-.297-.204-.594-.438-.907-.626-.265-.172-.547-.125-.781.078l-.516.47-.984.984c-.047.063-.078.125-.032.141-.047.266.063.485.188.688.203.328.406.672.625 1 .219.313.25.626.078.97-.187.406-.375.828-.562 1.235a.613.613 0 0 1-.438.343c-.531.11-1.047.22-1.578.313-.282.063-.454.219-.485.485-.047.36-.078.734-.094 1.094-.015.375 0 .75.016 1.125 0 .25.125.423.344.485.39.125.797.219 1.188.313.156.047.312.078.468.125m15.222 2.954c.203.297.406.61.593.907.094.156.172.328.25.516.063.172.047.36-.093.5-.485.453-.954.922-1.438 1.376-.063.062-.156.11-.234.156-.204.125-.407.14-.61 0-.344-.25-.703-.484-1.047-.735a3.746 3.746 0 0 0-.328-.203.695.695 0 0 0-.61-.062c-.422.172-.86.344-1.281.5a.763.763 0 0 0-.485.578l-.28 1.235a1.536 1.536 0 0 1-.079.25c-.11.329-.281.47-.625.47a44.919 44.919 0 0 1-2.032-.079c-.36-.015-.515-.172-.578-.516a29.627 29.627 0 0 1-.219-1.25c-.047-.438-.265-.72-.672-.876l-1.219-.516c-.187-.078-.359-.078-.53.032-.345.219-.704.437-1.048.656-.094.047-.172.11-.266.157a.932.932 0 0 1-.61.14c-.046-.031-.093-.047-.14-.078-.015-.016-.031-.047-.047-.062-.484-.485-.969-.985-1.453-1.454a.613.613 0 0 1-.172-.594c.031-.14.11-.297.203-.422.203-.313.422-.61.657-.907m8.407-6.753c-1.313-.641-2.86-.078-3.5 1.235-.532 1.078-.172 2.782 1.25 3.455 1.281.625 2.86.078 3.47-1.204" stroke="#929292" stroke-width="2" stroke-miterlimit="10"/><path d="M82.379 71.203a8.877 8.877 0 0 0-9.525-2.623 91.322 91.322 0 0 1-.095-.107l-17.82-20.088a3.966 3.966 0 0 0-.4-.38c1.557-3.135 1.125-7.059-1.377-9.88-2.44-2.75-6.166-3.656-9.392-2.614l5.433 6.125-5.242 4.65-5.417-6.107a8.932 8.932 0 0 0 1.475 9.636 8.984 8.984 0 0 0 9.646 2.547c.093.14.187.281.33.442l9.698 10.822m2.144 2.68 5.993 6.604.047.053a8.93 8.93 0 0 0 1.343 9.913c2.44 2.75 6.166 3.655 9.392 2.613l-5.433-6.125 5.242-4.65 5.433 6.125a8.899 8.899 0 0 0 .455-6.125" stroke="#fff" stroke-width="2" stroke-miterlimit="10" stroke-linecap="round" stroke-linejoin="round"/><path d="M65.59 35.216h13.4M82.743 35.216h2.144M65.59 45.937h13.4M82.743 45.937h2.144M65.59 40.577h3.216M73.094 40.577h11.793M65.59 51.297h8.576M78.454 51.297h6.433" stroke="#929292" stroke-width="2" stroke-linecap="round"/><defs><filter id="a" x="-3.5" y="-4" width="128" height="128" filterUnits="userSpaceOnUse" color-interpolation-filters="sRGB"><feFlood flood-opacity="0" result="BackgroundImageFix"/><feGaussianBlur in="BackgroundImage" stdDeviation="2"/><feComposite in2="SourceAlpha" operator="in" result="effect1_backgroundBlur"/><feBlend in="SourceGraphic" in2="effect1_backgroundBlur" result="shape"/></filter></defs></svg>