<svg width="124" height="123" viewBox="0 0 124 123" fill="none" xmlns="http://www.w3.org/2000/svg">
<g filter="url(#filter0_b)">
<circle cx="62" cy="61.5" r="61.5" fill="#19191B"/>
</g>
<path d="M70.1313 47.6332C70.1916 47.5298 70.2488 47.4055 70.306 47.2811C70.5019 46.9016 70.719 46.4945 70.9393 46.1083C71.0568 45.8806 71.0039 45.6988 70.8537 45.5432C70.7923 45.4726 70.731 45.4021 70.6484 45.359C70.1225 45.0651 69.5965 44.7712 69.0705 44.4773C68.8197 44.3271 68.5488 44.3783 68.2756 44.5827C68.0935 44.7189 67.9358 44.8486 67.7812 44.9992C67.5113 45.2244 67.2688 45.4641 67.002 45.7103C66.7564 45.929 66.4918 46.0221 66.2081 45.9897C65.6959 45.9535 65.2048 45.8898 64.6893 45.8327C64.4819 45.8015 64.3412 45.7088 64.2671 45.5545C64.1899 45.3792 64.1127 45.204 64.0323 45.0078C63.9392 44.7279 63.8462 44.448 63.7319 44.1956C63.5743 43.8242 63.3574 43.7302 62.8673 43.8406C62.1824 44.0034 61.5219 44.1597 60.8646 44.3369C60.4507 44.4485 60.257 44.675 60.2103 45.0362C60.1551 45.5085 60.1211 45.9533 60.066 46.4257C60.031 46.6965 59.8922 46.9518 59.5884 47.1208C59.1237 47.3986 58.6865 47.6908 58.2218 47.9685C57.991 48.1179 57.7655 48.1351 57.5306 48.0895C57.375 48.0661 57.1887 48.0074 57.03 47.9631C56.6574 47.8457 56.3336 47.7151 55.9674 47.6396C55.6774 47.5653 55.3673 47.6925 55.1523 47.9465C54.9798 48.1455 54.8072 48.3445 54.6589 48.537C54.3381 48.9284 54.3625 48.9219 54.066 49.3068L53.6583 49.9613C53.6202 50.2112 53.7736 50.3877 53.9482 50.5367C54.2392 50.785 54.4815 51.0464 54.7693 51.2738C55.0296 51.4868 55.0983 51.7733 54.9755 52.1332C54.8134 52.569 54.6757 52.9982 54.538 53.4275C54.4659 53.6211 54.3357 53.7652 54.123 53.8661C53.5757 54.1008 53.0316 54.3564 52.4843 54.5911C52.1985 54.7117 52.0503 54.9042 52.0396 55.1684C52.0416 55.5164 52.068 55.8579 52.0944 56.1993C52.1451 56.5342 52.2233 56.8834 52.274 57.2183M71.6908 49.5655C72.1417 49.531 72.617 49.49 73.0679 49.4556C73.5463 49.4356 73.7146 49.5427 73.7779 49.9613C73.8667 50.5473 73.9311 51.1399 73.9955 51.7325C74.0187 52.053 73.8736 52.2664 73.5211 52.4486C73.1443 52.6373 72.7611 52.7842 72.381 52.952C71.5723 53.3007 71.4601 53.3963 71.245 54.1514C71.1613 54.4354 71.0808 54.7403 70.9728 55.0308C70.8922 55.3357 70.9303 55.5869 71.1631 55.7856C71.4234 55.9986 71.6837 56.2116 71.9228 56.4521C72.0424 56.5723 72.1651 56.7135 72.2604 56.8403C72.3587 56.9881 72.3566 57.1412 72.2327 57.3271C71.7848 57.8835 71.337 58.4399 70.8891 58.9963C70.8256 59.0788 70.7345 59.1469 70.6678 59.2085C70.4646 59.3722 70.2486 59.4522 70.0105 59.3857C69.6104 59.2539 69.186 59.1287 68.7892 59.0179C68.6579 58.9879 68.5267 58.9579 68.3955 58.928C68.1848 58.8758 67.9626 58.914 67.7318 59.0633C67.2946 59.3555 66.8542 59.6267 66.4382 59.8913M65.2562 62.6281C64.5227 62.804 63.8135 62.9734 63.0799 63.1494C62.6872 63.2335 62.5221 63.1473 62.374 62.8387C62.2196 62.4882 62.0895 62.1312 61.9806 61.7466C61.8717 61.3621 61.5902 61.1766 61.1541 61.1416C60.6937 61.1133 60.2302 61.064 59.7666 61.0147C59.5623 61.0044 59.3676 61.0569 59.2098 61.1866C58.8732 61.4734 58.5153 61.7877 58.1787 62.0746C58.0876 62.1427 57.9997 62.2317 57.9087 62.2998C57.7298 62.457 57.5202 62.5788 57.2947 62.5961C57.2429 62.5883 57.191 62.5804 57.1391 62.5726C57.1116 62.5583 57.1085 62.5374 57.0809 62.523C56.5031 62.2213 55.9221 61.8987 55.32 61.6036C55.0999 61.4886 55.047 61.3068 55.0672 61.1053C55.0725 60.9732 55.1477 60.8004 55.2292 60.6695C55.404 60.3174 55.6062 59.9797 55.8085 59.642C56.0319 59.2768 56.0362 58.9706 55.8151 58.6817C55.5939 58.3928 55.394 58.0763 55.194 57.7599" stroke="white" stroke-width="2" stroke-miterlimit="10"/>
<path d="M52.5 32.8674H42.5C40.2909 32.8674 38.5 34.6583 38.5 36.8674V79.4999M73.5 32.8674H84.5C86.7091 32.8674 88.5 34.6583 88.5 36.8674V39.4999" stroke="#929292" stroke-width="2" stroke-miterlimit="10" stroke-linecap="round"/>
<path d="M38.5 83.5V88.5066C38.5 90.7157 40.2909 92.5066 42.5 92.5066H84.5C86.7091 92.5066 88.5 90.7157 88.5 88.5066V43" stroke="white" stroke-width="2" stroke-miterlimit="10" stroke-linecap="round"/>
<path d="M47.4382 71.311H79.5888" stroke="#929292" stroke-width="2" stroke-miterlimit="10" stroke-linecap="round" stroke-linejoin="round"/>
<path d="M47.4382 81.99H54.9409" stroke="#929292" stroke-width="2" stroke-miterlimit="10" stroke-linecap="round"/>
<path d="M57.9204 81.99H79.5889" stroke="#929292" stroke-width="2" stroke-miterlimit="10" stroke-linecap="round" stroke-linejoin="round"/>
<path d="M47.4382 76.3125H59.7351" stroke="#929292" stroke-width="2" stroke-miterlimit="10" stroke-linecap="round" stroke-linejoin="round"/>
<path d="M63.175 76.3125H79.5889" stroke="#929292" stroke-width="2" stroke-miterlimit="10" stroke-linecap="round" stroke-linejoin="round"/>
<path d="M69.4317 30.1369C69.4317 30.0558 69.4317 29.9747 69.4317 29.9207C69.4317 26.6494 66.7773 24 63.4999 24C60.2226 24 57.5682 26.6494 57.5682 29.9207C57.5682 30.0018 57.5682 30.0829 57.5953 30.1369H53.4783V36.5172H73.5487V30.1369H69.4317Z" stroke="#929292" stroke-width="2" stroke-miterlimit="10" stroke-linejoin="round"/>
<circle cx="63" cy="53.5" r="2.5" stroke="white" stroke-width="2"/>
<defs>
<filter id="filter0_b" x="-3.5" y="-4" width="131" height="131" filterUnits="userSpaceOnUse" color-interpolation-filters="sRGB">
<feFlood flood-opacity="0" result="BackgroundImageFix"/>
<feGaussianBlur in="BackgroundImage" stdDeviation="2"/>
<feComposite in2="SourceAlpha" operator="in" result="effect1_backgroundBlur"/>
<feBlend mode="normal" in="SourceGraphic" in2="effect1_backgroundBlur" result="shape"/>
</filter>
</defs>
</svg>
